<svg width="124" height="118" viewBox="0 0 124 118" fill="none" xmlns="http://www.w3.org/2000/svg">
<g clip-path="url(#clip0_38_9)">
<path d="M62 0C27.7605 0 0 26.4136 0 59C0 91.5864 27.7605 118 62 118C96.2395 118 124 91.5864 124 59C124 26.4136 96.2395 0 62 0ZM62 103.25C47.4649 103.25 34.4953 96.8964 25.9703 86.9549C29.8569 75.7671 37.6301 66.8249 47.3835 62.2819C39.866 57.6946 34.875 49.6891 34.875 40.5625C34.875 27.199 45.5468 16.2066 59.2255 14.8827C60.1478 14.8311 61.0622 14.75 62 14.75C62.9378 14.75 63.8522 14.8311 64.7745 14.8827C78.4532 16.2066 89.125 27.199 89.125 40.5625C89.125 49.6891 84.134 57.6946 76.6165 62.2819C86.3737 66.8286 94.1431 75.7707 98.0298 86.9549C89.5048 96.8964 76.5351 103.25 62 103.25Z" fill="#65B1F7"/>
</g>
<defs>
<clipPath id="clip0_38_9">
<rect width="124" height="118" fill="white"/>
</clipPath>
</defs>
</svg>
