<svg id="Layer_2" data-name="Layer 2" xmlns="http://www.w3.org/2000/svg" xmlns:xlink="http://www.w3.org/1999/xlink" viewBox="0 0 400 300" width="96" height="72" class="illustration styles_illustrationTablet__1DWOa"><defs><linearGradient id="linear-gradient" x1="183.77" y1="212.13" x2="206.23" y2="190.6" gradientUnits="userSpaceOnUse"><stop offset="0" stop-color="#fb9c4d"></stop><stop offset="0.98" stop-color="#e16c3f"></stop></linearGradient><linearGradient id="linear-gradient-2" x1="134.5" y1="229.93" x2="171.78" y2="201.67" xlink:href="#linear-gradient"></linearGradient><linearGradient id="linear-gradient-3" x1="318.91" y1="199.11" x2="340.83" y2="182.49" xlink:href="#linear-gradient"></linearGradient><linearGradient id="linear-gradient-4" x1="38.71" y1="193.43" x2="53.57" y2="183.52" xlink:href="#linear-gradient"></linearGradient></defs><title>ZZ</title><path d="M189.57,290,16,187.47c-5.53-3.1-10.27-8.2-4.88-11.54L185.32,75.55c2.61-1.62,6.58-2.68,9.24-1.14L376.75,180.15c5.53,3.21,6.52,12.17,1,15.38L212.45,289.89A23.08,23.08,0,0,1,189.57,290Z" fill="#fb9c4d"></path><path d="M156.56,199.18l44.55-16.87L238,199.19l-41.55,25.25C187.06,218.33,165.66,205.68,156.56,199.18Z" fill="url(#linear-gradient)"></path><path d="M107.72,222.67l42.51-21,32.13,19.51-41.55,22.41C131.43,237.52,116.82,229.17,107.72,222.67Z" fill="url(#linear-gradient-2)"></path><path d="M219.35,175.47l-29.85,11.2s-1.25.81-.45,2.75c.46,1.11,2.93,2.71,2.93,2.71l25.77,15a14.86,14.86,0,0,0,4.44,1.2c2.06.12,5.51-1.55,5.51-1.55l24-13.9Z" fill="#34323d"></path><path d="M218.93,174.08l-28.52,11.66s-2,1.09-1.47,2.57a6.16,6.16,0,0,0,2.55,2.59l25.84,14.85a14.86,14.86,0,0,0,4.44,1.2c2.06.12,5.51-1.55,5.51-1.55L250,192.48Z" fill="#1363df"></path><path d="M218.93,174.08l-28.52,11.66s-2,1.09-1.47,2.57a6.16,6.16,0,0,0,2.55,2.59l25.84,14.85a14.86,14.86,0,0,0,4.44,1.2c2.06.12,5.51-1.55,5.51-1.55L250,192.48Z" fill="#06577a" opacity="0.45"></path><path d="M286.38,213.33a2.75,2.75,0,0,0,3.19-.77s.56-.11.56-2.56V96.29a7,7,0,0,0-2.49-5.14,82.23,82.23,0,0,0-8.7-5.32L152.6,12.9l-1.42-.72a2.23,2.23,0,0,0-2.82.72,4.54,4.54,0,0,0-.62,2.07c-.05,1.19,0,12.68,0,12.68v102.3a7.07,7.07,0,0,0,2.3,5.22Z" fill="#1363df"></path><path d="M287.81,196.1V98c0-3.26-.45-5.08-3-6.44L151.56,14.36a1.76,1.76,0,0,0-2.81,1.42l.33,100.88Z" fill="#fff"></path><path d="M303.26,195l28.24-12.65L347,193.85l-23.73,13.76C317.57,203.92,308.75,198.89,303.26,195Z" fill="url(#linear-gradient-3)"></path><polygon points="278.64 98.92 278.64 132.79 254.13 118.58 254.3 84.78 278.64 98.92" fill="#fb9c4d"></polygon><polygon points="248.04 82.01 248.04 115.88 223.53 101.66 223.7 67.87 248.04 82.01" fill="#06577a"></polygon><polygon points="216.88 64.21 216.88 98.08 192.37 83.86 192.53 50.07 216.88 64.21" fill="#f78b72"></polygon><polygon points="184.36 45.71 184.36 79.58 159.85 65.37 160.01 31.57 184.36 45.71" fill="#22b573"></polygon><line x1="278.64" y1="142.16" x2="223.53" y2="110.85" fill="#fb9c4d"></line><path d="M279.4,140.86l-55.11-31.3a1.5,1.5,0,0,0-1.51,2.59l55.11,31.3a1.5,1.5,0,0,0,1.51-2.59Z" fill="#fbb03b"></path><line x1="277.57" y1="151.48" x2="222.46" y2="120.18" fill="#fb9c4d"></line><path d="M278.32,150.19l-55.11-31.3a1.5,1.5,0,0,0-1.51,2.59l55.11,31.3a1.5,1.5,0,0,0,1.51-2.59Z" fill="#fbb03b"></path><line x1="276.92" y1="160.39" x2="221.81" y2="129.09" fill="#fb9c4d"></line><path d="M277.68,159.1l-55.11-31.3a1.5,1.5,0,0,0-1.51,2.59l55.11,31.3a1.5,1.5,0,0,0,1.51-2.59Z" fill="#fbb03b"></path><ellipse cx="200.59" cy="110.85" rx="9.63" ry="13.16" transform="translate(-21.78 55.39) rotate(-14.92)" fill="#06577a"></ellipse><ellipse cx="167.34" cy="95.01" rx="9.63" ry="13.16" transform="translate(-18.82 46.3) rotate(-14.92)" fill="#fb9c4d"></ellipse><path d="M154.08,204.52s6.05-2.69,7.51-2.8,3.89.39,1.77,3.06c0,0-6.36,4.16-7.2,4.29s-2.88-.51-2.93-.29-.24,1.83-.24,1.83-5.32,2-5.55-1.53c0-.46.77-7.07.77-7.07" fill="#e55600"></path><path d="M147.14,188.92c1.05-6.84,3-13.47,3.78-20.39.5-4.35.86-8.73,1.4-13.08s2.16-8.56,3.2-12.87a.47.47,0,0,0-.22-.53c0-.15.09-.3.14-.45.54-.51,1.09-1,1.62-1.46l7.44,5s0,4.55-.28,11.16c-.86,3.85-1.52,7.28-2.5,10.93a1,1,0,0,1,.23.87,309,309,0,0,0-5.28,34.8,1,1,0,0,1-.66.87l-.21,1.8c-6.47,2.5-7.89-1.85-7.89-1.85s-.29-3.71-.66-8.85C147.12,192.87,147.09,190.9,147.14,188.92Z" fill="#34323d"></path><path d="M193,117.63l.17.06a.83.83,0,0,1,.38-1.29c.36-.12.73-.22,1.1-.34a.73.73,0,0,1,.1-.12,2.25,2.25,0,0,1,.39-.28.71.71,0,0,1,.6-.32l.28,0c.31-.07.63-.13,1-.2l1.13-.25a.81.81,0,0,1,.16-.28,50.51,50.51,0,0,0,4.25-5.93c.46-.7,1.76-.28,1.44.6a17.19,17.19,0,0,1-1.15,2.88c1.67-1.7,2.58-2.08,4.1-3.92.65-.78,1.75.34,1.11,1.11-.39.47-1.93,1.66-2.32,2.12.75-.69,2.65-2.11,3.41-2.79s1.87.44,1.11,1.11q-1.82,1.62-3.59,3.29c1.07-.66,2.12-1.35,3.14-2.09.82-.6,1.6.77.79,1.36-1.17.85-2.38,1.64-3.62,2.38a15.91,15.91,0,0,0,2.3-.66c.94-.37,1.35,1.15.42,1.52-.77.3-1.57.55-2.36.8l-1.19.38a4.77,4.77,0,0,0-1.32.58,17.41,17.41,0,0,1-5,2.09l-.33.2a.69.69,0,0,1-.68,0,11.48,11.48,0,0,1-6.24-.5C191.65,118.8,192,117.28,193,117.63Z" fill="#fcbf81"></path><path d="M169.9,104.89a8.71,8.71,0,0,1,.94-.9.13.13,0,0,0,0,.07.15.15,0,0,0,.25.14l.62-.47a.76.76,0,0,0-.07.24.65.65,0,0,0,.51.72.64.64,0,0,0,.82-.57l.26-.15a.65.65,0,0,0,0,.2.57.57,0,0,0,.8.53l.27-.12a.47.47,0,0,0,.35.14,14.62,14.62,0,0,0,1.76-.08.25.25,0,0,1,.06-.41,16.32,16.32,0,0,1,2.33-.63h.09l.06-.05a2.23,2.23,0,0,0,.43-1.54,1.75,1.75,0,0,0,.83-1.27.27.27,0,0,1-.12-.11,1.21,1.21,0,0,1-.14-.37,1.69,1.69,0,0,1-.09-.58.23.23,0,0,1,.16-.21c-.13-.41-.3-.82-.46-1.19a6.52,6.52,0,0,0,2.06-3.16.56.56,0,0,0-.89-.6,11.82,11.82,0,0,0-1.07,1,.47.47,0,0,0-.21.11,69.23,69.23,0,0,1-5.64,5c-.33.26-4.22,2.94-4,3.13C169.73,103.8,165.82,108,169.9,104.89Zm2.09-1,0,0a.15.15,0,0,0,.21.09h0a.58.58,0,0,0,.42.25.36.36,0,0,1-.67-.29Z" fill="#fcbf81"></path><path d="M170.59,103.84a6.07,6.07,0,0,0,2-1.1,1.17,1.17,0,0,1,1.67.11,6.84,6.84,0,0,0,.37-.85,1.23,1.23,0,0,1,2.32.8,6,6,0,0,1-2.07,3,10,10,0,0,1-3.31,1.33,1.26,1.26,0,0,1-1.44-1.52l-.07-.12A1.24,1.24,0,0,1,170.59,103.84Z" fill="#fcbf81"></path><path d="M174,106a5,5,0,0,0,2.93-2,.14.14,0,0,0,.17.11l1.14-.29a2.29,2.29,0,0,0,.67-.24c.49-.31.35-.91.35-1.41a.15.15,0,0,0,0-.09l.2-.17a2.1,2.1,0,0,0,.75-1c.08-.42-.2-.82-.26-1.23a1,1,0,0,0-.19-1.17c-.41-.4-.82-.12-1.21.15q-1.26.86-2.46,1.81c-.16.12,0,.35.2.23q.65-.51,1.32-1a5.78,5.78,0,0,1,1.39-1c1.24-.23.53,1.12.24,1.43s-.37.34-.56.5l-1.27,1.1,0,0a.14.14,0,0,0-.05.11,4.31,4.31,0,0,1-3.38,3.88C173.73,105.79,173.79,106.09,174,106Zm3.77-4a.14.14,0,0,0-.16,0s0-.07,0-.1a11.66,11.66,0,0,0,2.1-1.91c0,.12.08.23.12.36a.93.93,0,0,1-.29,1C179.17,101.76,178.25,102.67,177.74,102.08Zm-.72,1.73a4.29,4.29,0,0,0,.53-1.48c.41.42.94.25,1.39,0a3.38,3.38,0,0,1,0,.64c0,.32-.25.45-.54.53C178,103.59,177.49,103.69,177,103.81Z" fill="#34323d"></path><path d="M156.23,112.36c.48-.75,16.39-10.38,17.36-11.58a8.31,8.31,0,0,1,.62,9.35s-8.92,10.45-13.56,11.38" fill="#5f66fc"></path><path d="M167.32,214.47l3.6,1.29a2,2,0,0,0,1.45,1.32.8.8,0,0,0,.5.28,9.42,9.42,0,0,0,4.27-.69c1.72-.54,8.44-3.11,6.58,1.71-1.23.86-2.6,1.61-3.85,2.37-.71.43-1.41.86-2.14,1.26a4.25,4.25,0,0,1-1.26.58c-1,.15-3.31-.58-3.37-.33s-.28,2.1-.28,2.1-6.12,2.34-6.39-1.76C166.4,222.06,167.32,214.47,167.32,214.47Z" fill="#e55600"></path><path d="M162.26,177.68c-.75-12.09-1.16-24.26-3.72-36.14-.11-3.09-2.11-1.12-2-2.34,1.09-9.95,15.58,1.89,15.58,1.89.59.48.66,3.53.78,4.22q1,5.73,1.68,11.5c2.4,19.42,1.51,38.75.53,58.23-3.08,3.15-5.09,4.09-10.05,2.06-1-12.75-1.93-25.5-2.75-38.27Z" fill="#34323d"></path><path d="M154,132a126.13,126.13,0,0,1-.39-18c.11-1.57.54-5.43,2.11-6.34,3.45-2,8.25-.21,11.16,1.93,3.88,2.86,6.12,29.46,6.13,36-5.34,2.11-12.32,2.91-17.78.65-.48-.2-.59-6.73-.66-7.54C154.43,136.46,154.23,134.22,154,132Z" fill="#8b93fc"></path><path d="M165.11,123.28a9.22,9.22,0,0,0,6.78,8.1c0,.37.12,2.67.15,3-4.36-1-7.57-6.51-8-11.14C163.95,122.58,165,122.59,165.11,123.28Z" fill="#34323d"></path><path d="M165.23,96.23c.34.16,2,7.61.06,11.58s-8.26-1.69-9.44-5.21S158.84,93.22,165.23,96.23Z" fill="#fcbf81"></path><path d="M165,97.17a3.36,3.36,0,0,1-2.56,2.63c-2.13.36-3.87.54-3.94,1.48s3.62.55,3.23,2.66a16,16,0,0,1-1.36,4.09c-.41,1-5.78-3.3-6.73-9.07s4.25-6.26,4.5-6.26a5.09,5.09,0,0,1,3.48-1.44c2.52-.07,3,1,3,1a3,3,0,0,1,3.46,1.05c1.89,2.19.71,5.31-2.05,6.15Z" fill="#e55600"></path><path d="M166.69,112.47s13.65,4.62,18.07,3.76a99,99,0,0,0,12.45-4.11c3.55,2,4.63,6.45,3.42,10.27-5.19,1.92-20.61,7.33-26.08,5.83-6.62-1.81-14-4.5-14-4.5S153.39,119,166.69,112.47Z" fill="#8b93fc"></path><path d="M276.92,168.44v8.19a1.7,1.7,0,0,1-2.51,1.49L266.84,174a1.7,1.7,0,0,1-.88-1.49v-8.38a1.7,1.7,0,0,1,2.54-1.47l7.57,4.35A1.7,1.7,0,0,1,276.92,168.44Z" fill="#ef7f6c"></path><path d="M261.62,160v8.19a1.7,1.7,0,0,1-2.51,1.49l-7.57-4.16a1.7,1.7,0,0,1-.88-1.49v-8.38a1.7,1.7,0,0,1,2.54-1.47l7.57,4.35A1.7,1.7,0,0,1,261.62,160Z" fill="#06577a"></path><path d="M244.82,150.55v8.19a1.7,1.7,0,0,1-2.51,1.49l-7.57-4.16a1.7,1.7,0,0,1-.88-1.49v-8.38a1.7,1.7,0,0,1,2.54-1.47l7.57,4.35A1.7,1.7,0,0,1,244.82,150.55Z" fill="#22b573"></path><path d="M353.32,171.45s2.29,19.66-8.12,23.47-16-6.1-16.13-23.47" fill="#06577a"></path><ellipse cx="341.19" cy="171.45" rx="12.12" ry="7.01" fill="#f2696a"></ellipse><path d="M338.09,155.86s4.76-6.87,2.68-11.62c0,0-1.71-3.05-4.14-3.54,0,0,.24,6.51-2.18,5.68s0-6.82,0-6.82-2.55-3.45-5.34-3.34,0,6.09-1.94,5.1-.12-6.08-2.3-6.69a45.82,45.82,0,0,0-6.06-1s-2.06,5.94,0,6.79,5.09,1.14,3.64,2.45-5.58-.2-5.58-.2-.26,3.34,1.14,4.79,9.65-1.75,8.19,1.12-6.91,1.43-6.91,1.43,2.79,4,6.06,5.8S338.09,155.86,338.09,155.86Z" fill="#8ccc00"></path><path d="M337,173.05s3.44-3.39,2.76-6.31a4.46,4.46,0,0,0-2-2.45s-.56,3.72-1.85,3,.73-3.87.73-3.87-1.08-2.23-2.67-2.47-.65,3.46-1.65,2.69.58-3.47-.59-4a26.47,26.47,0,0,0-3.34-1.2s-1.8,3.15-.72,3.86,2.77,1.19,1.8,1.78-3.15-.71-3.15-.71-.5,1.87.14,2.84,5.66,0,4.53,1.51-4.08.08-4.08.08a12.91,12.91,0,0,0,2.82,3.94C331.41,173.08,337,173.05,337,173.05Z" fill="#8ccc00"></path><path d="M349.62,165.72s8.35.32,11.24-4c0,0,1.65-3.08.76-5.39,0,0-5.36,3.7-6,1.21s5.75-3.66,5.75-3.66,1.54-4,0-6.29-5.14,3.27-5.34,1.1,5.07-3.37,4.4-5.54a45.82,45.82,0,0,0-2.44-5.64s-6.12,1.45-5.73,3.65,1.78,4.91-.11,4.38-2.83-4.81-2.83-4.81-3,1.58-3.42,3.54,6.66,7.2,3.46,7.51-4.92-5.06-4.92-5.06-1.86,4.49-1.64,8.23S349.62,165.72,349.62,165.72Z" fill="#8ccc00"></path><path d="M320.62,136.3l2.67,2.28c-.09-.95-.2-1.89-.35-2.83-.08-.5.68-.71.76-.21q.3,1.89.45,3.79c2.34,2.05,4.66,4.2,6.83,6.48a28.17,28.17,0,0,0,.14-4.82c0-.51.76-.51.79,0a29,29,0,0,1-.23,5.57,54.59,54.59,0,0,1,3.88,4.69,15.64,15.64,0,0,0,2.7-6.3c.09-.5.85-.29.76.21a16.17,16.17,0,0,1-2.92,6.68.4.4,0,0,1-.08.07,30.5,30.5,0,0,1,6.06,16.83c0,.51-.77.51-.79,0a29.64,29.64,0,0,0-5.81-16.25,30.43,30.43,0,0,1-9.78,1c-.5,0-.51-.82,0-.79a29.82,29.82,0,0,0,9.29-.86,57.24,57.24,0,0,0-5.5-6.38l-.07,0c-1.84.16-3.68.33-5.53.39a6.75,6.75,0,0,1-3.43-.4c-.45-.23-.05-.91.4-.68,1.27.64,3.05.3,4.42.22,1.17-.07,2.34-.17,3.51-.27-2.81-2.79-5.83-5.38-8.74-7.84C319.67,136.53,320.23,136,320.62,136.3Z" fill="#06577a"></path><path d="M345.07,151.66a.39.39,0,0,1,.76-.21,14,14,0,0,0,5.06,7.28q1.34-3.72,2.45-7.53a23.57,23.57,0,0,1-4.63-6.53c-.22-.46.46-.86.68-.4a23,23,0,0,0,4.21,6c.82-2.9,1.55-5.84,2.16-8.8.1-.5.86-.29.76.21q-1.26,6.08-3.11,12a18.51,18.51,0,0,0,4.31-1.41c.46-.22.86.46.4.68a19.36,19.36,0,0,1-5,1.59h0c-.83,2.6-1.77,5.16-2.76,7.7a19.08,19.08,0,0,0,6.86-1.51c.46-.2.86.48.4.68a20.13,20.13,0,0,1-7.57,1.63q-1.9,4.74-4.18,9.34c-.23.45-.91.06-.68-.4a123.17,123.17,0,0,0,5.41-12.53h0A14.84,14.84,0,0,1,345.07,151.66Z" fill="#06577a"></path><path d="M330.78,161.87l2.17,3.64a6.81,6.81,0,0,0,.69-1.14c.22-.46.9-.06.68.4a7.52,7.52,0,0,1-.91,1.44l0,0,2.35,3.95a1.61,1.61,0,0,0,.48-.95c.06-.5.85-.5.79,0a2.48,2.48,0,0,1-.87,1.62l2.94,4.94a.39.39,0,0,1-.68.4l-3.88-6.51a5.9,5.9,0,0,1-1.92-.29c-.48-.16-.27-.92.21-.76a5.25,5.25,0,0,0,1.22.23l-3.93-6.6A.39.39,0,0,1,330.78,161.87Z" fill="#06577a"></path><path d="M14.55,185.38l42.51-21,32.13,19.51L47.64,206.34C38.26,200.23,23.65,191.88,14.55,185.38Z" fill="url(#linear-gradient-4)"></path><path d="M91.31,129.94v49.41s-47.49,2.64-47.49,0V129.94" fill="#1363df"></path><ellipse cx="67.56" cy="178.93" rx="23.75" ry="10.85" fill="#1363df"></ellipse><ellipse cx="67.56" cy="129.94" rx="23.75" ry="10.85" fill="#3129a3"></ellipse><path d="M82.36,138.38l-.16.09c-.91.32-1.83.61-2.77.84l6.46-54.11s1.35-.74,3.31.61l-6.63,52.47Z" fill="#f78b72"></path><path d="M75,140.05,73,89.26s1.22-.95,3.36.08L78,139.63A26.61,26.61,0,0,1,75,140.05Z" fill="#f78b72"></path><path d="M67.56,140.79,61,87.84l-13.22,7,5.35,44.48A40.39,40.39,0,0,0,67.56,140.79Z" fill="#fcb749"></path></svg>