<svg id="Layer_1" data-name="Layer 1" xmlns="http://www.w3.org/2000/svg" xmlns:xlink="http://www.w3.org/1999/xlink" viewBox="0 0 400 300" width="406" height="306" class="illustration styles_illustrationTablet__1DWOa"><defs><linearGradient id="linear-gradient" x1="284.54" y1="197.11" x2="341.58" y2="153.09" gradientUnits="userSpaceOnUse"><stop offset="0" stop-color="#ffabc1"></stop><stop offset="0.99" stop-color="#e57ebc"></stop></linearGradient><linearGradient id="linear-gradient-2" x1="259.76" y1="214.16" x2="305.84" y2="178.59" xlink:href="#linear-gradient"></linearGradient><linearGradient id="linear-gradient-3" x1="92.72" y1="235.8" x2="116.6" y2="195.06" xlink:href="#linear-gradient"></linearGradient></defs><title>fitnes</title><path d="M11.52,194.36l148,85.44a24.31,24.31,0,0,0,24.31,0L388.44,161.66a9.84,9.84,0,0,0,0-17L236.51,56.47a12.76,12.76,0,0,0-12.78,0L11.52,179A8.88,8.88,0,0,0,11.52,194.36Z" fill="#ffabc1"></path><polygon points="299.37 154 257.42 179.78 305.53 209.53 354.49 181.39 299.37 154" fill="url(#linear-gradient)"></polygon><polygon points="283.78 179.53 241.83 205.31 270.33 221.96 312.3 196.3 283.78 179.53" fill="url(#linear-gradient-2)"></polygon><polygon points="80.24 184.03 38.3 209.82 121.07 258.16 163.88 233.23 80.24 184.03" fill="url(#linear-gradient-3)"></polygon><polygon points="139.15 61.52 139.15 95.67 185.38 68.68 185.38 36.48 139.15 61.52" fill="#ffdddc"></polygon><path d="M157.24,66.08l-10.18,6s-2.44,1.52-1.91,3.76,2.54,1.68,3.52,1.19,24.89-13.51,24.89-13.51,1.82.48,1.26,3.2-7.53,6.16-7.53,6.16" fill="none" stroke="#f7931e" stroke-miterlimit="10"></path><path d="M153.56,67.09v0a2.56,2.56,0,0,0,3.81,2.31l10.64-6a2.56,2.56,0,0,0,1.3-2.22h0A2.56,2.56,0,0,0,165.49,59l-10.64,6A2.56,2.56,0,0,0,153.56,67.09Z" fill="#f9635c"></path><path d="M153.56,78.74v0a2.56,2.56,0,0,0,3.81,2.31l10.64-6a2.56,2.56,0,0,0,1.3-2.22h0a2.56,2.56,0,0,0-3.81-2.23l-10.64,6A2.56,2.56,0,0,0,153.56,78.74Z" fill="#f9635c"></path><path d="M299.8,151.45l0-7-3.57,1S298.59,151.35,299.8,151.45Z" fill="#e75a59"></path><path d="M70.82,187.83v-7.6l3.7,3.7S74.73,187.81,70.82,187.83Z" fill="#e75a59"></path><path d="M73.7,182.7l139.2-79.87a9.75,9.75,0,0,1,9.78,0L297,146.34a5.73,5.73,0,0,1,0,9.91L159.22,235.93a12.86,12.86,0,0,1-13-.08L73.62,192.6A5.73,5.73,0,0,1,73.7,182.7Z" fill="#e75a59"></path><path d="M73.7,176.41,212.9,96.54a9.75,9.75,0,0,1,9.78,0L297,140a5.73,5.73,0,0,1,0,9.91L159.22,229.64a12.86,12.86,0,0,1-13-.08L73.62,186.31A5.73,5.73,0,0,1,73.7,176.41Z" fill="#ffdddc"></path><path d="M209.52,106.52c.77.26,71.08,41.27,71.08,41.27l-117.45,68.8-71-41Z" fill="#fff"></path><path d="M132.85,210.08a1.81,1.81,0,0,0,.55-2.63,13.31,13.31,0,0,0-3.42-2.58c-1.2-.75-2.45-1.4-3.67-2.12l-9.46-5.54-7.76-4.54a4,4,0,0,0-3.44-.37,4.06,4.06,0,0,0-2,1.53,1.66,1.66,0,0,0,.75,2.38l14.3,8.28,6.16,3.57,3.56,2.08a4.31,4.31,0,0,0,3.64.37A3.14,3.14,0,0,0,132.85,210.08Z" fill="#e75a59"></path><ellipse cx="97.51" cy="188.7" rx="2.48" ry="2.05" fill="#e75a59"></ellipse><circle cx="326.81" cy="141.1" r="30.6" fill="#e91e63"></circle><path d="M345.43,116.82a33.6,33.6,0,0,1,2.32,7.83c2.77,16.75-8.51,33.62-24.9,37.86a41.74,41.74,0,0,1-17.33.58,30.6,30.6,0,1,0,39.91-46.27Z" opacity="0.1"></path><circle cx="348.83" cy="169.6" r="17.36" fill="#e91e63"></circle><path d="M359.4,155.82a19.06,19.06,0,0,1,1.32,4.44,19.4,19.4,0,0,1-14.13,21.48,23.68,23.68,0,0,1-9.83.33,17.36,17.36,0,1,0,22.64-26.25Z" opacity="0.1"></path><ellipse cx="288.25" cy="173.79" rx="10.75" ry="8.83" transform="translate(15.9 371.57) rotate(-67.07)" fill="#792155"></ellipse><polyline points="293.76 164.55 298.17 167.75 287.19 186.14 282.87 183.01" fill="#792155"></polyline><ellipse cx="292.31" cy="176.67" rx="10.75" ry="8.83" transform="translate(15.73 377.07) rotate(-67.07)" fill="#995f85"></ellipse><ellipse cx="293.32" cy="177.09" rx="5.98" ry="4.92" transform="translate(15.95 378.26) rotate(-67.07)" fill="#792155"></ellipse><path d="M317.31,187.53c-1.66-.6-3.27-2-4.73-3q-4.23-2.77-8.43-5.6l-3.91-2.63a16.76,16.76,0,0,0-3-2.07c-2.21-.87-4.69,1.46-5.15,3.5a5.11,5.11,0,0,0,.7,4.27c.92,1.17,2.45,1.73,3.65,2.55l4,2.74,7.69,5.22,1.88,1.27" fill="#a87398"></path><ellipse cx="304.62" cy="184.47" rx="10.75" ry="8.83" transform="translate(16.06 393.17) rotate(-67.07)" fill="#792155"></ellipse><polyline points="310.13 175.23 314.54 178.43 303.57 196.82 299.24 193.69" fill="#792155"></polyline><ellipse cx="308.69" cy="187.35" rx="10.75" ry="8.83" transform="translate(15.89 398.67) rotate(-67.07)" fill="#995f85"></ellipse><ellipse cx="309.69" cy="187.77" rx="5.98" ry="4.92" transform="translate(16.11 399.86) rotate(-67.07)" fill="#792155"></ellipse><polygon points="220.14 101.43 122.74 163.98 122.74 176.14 164.65 200.06 264.82 140.51 264.82 128.46 220.14 101.43" fill="#e91e63"></polygon><polygon points="264.82 128.57 220.14 101.54 122.74 164.09 164.74 187.77 264.82 128.57" opacity="0.1"></polygon><polyline points="259.23 125.33 229.52 107.46 140.16 160.85 168.76 178.28" fill="#603813"></polyline><path d="M185.36,71.9a.72.72,0,0,0-.66-.45,1.61,1.61,0,0,1-.39,1.66,8.32,8.32,0,0,1-2.62,1.82c-.44.34-.9.67-1.35,1a1.39,1.39,0,0,1-1,.24A4.73,4.73,0,0,1,178,77.38a13.22,13.22,0,0,0-2.14,1.52c-.51.45-1.71,1.37-1.35,2s1.25.42,2.13,0l-.21.26c-.66.82-1,2.25.49,2.3a1.35,1.35,0,0,0,.16,1.52c.84.7,1.5,0,1.88-.4a1.37,1.37,0,0,0,1.22.35,1.19,1.19,0,0,0,.85-.64c2.82,1.38,3.85-5.63,4.1-8.27C185.5,74.69,185.89,73.06,185.36,71.9Z" fill="#f9635c"></path><path d="M179.86,81.51a1.09,1.09,0,0,0-.44-.75,3.13,3.13,0,0,0,1.89-1.09,2.8,2.8,0,0,0,.34-2.74.22.22,0,0,0-.41.16,2.36,2.36,0,0,1-.4,2.46,3.44,3.44,0,0,1-2.2.91l-.08,0a.88.88,0,0,0,0-.15c-.36-1.07-1.61-.26-2,.32-.16.23.18.51.35.28s.54-.69.92-.67c.73,0,.08,1.17,0,1.38a16.63,16.63,0,0,1-1,1.74c-.16.24.19.52.35.28a17.57,17.57,0,0,0,1.09-1.84,4.25,4.25,0,0,0,.38-.87c1.82.06.58,2.43.19,3.39-.11.26.3.45.41.18a8.81,8.81,0,0,0,.76-2.56h0c.65-.11,1.41,0,1.3.84a7.68,7.68,0,0,1-.43,1.43c-.09.27.32.45.41.18.22-.68.68-1.57.39-2.29S180.49,81.41,179.86,81.51Z" fill="#111224"></path><path d="M227.22,98.58l10,1.38s2.2-.21,2.61-3.11-1.41-2.95-1.41-2.95l-9.32-2.77" fill="#f9635c"></path><path d="M238.05,91.82c-.7,0-1.63,1.26-1.67,1.49s1.28.32,1.28.32c1.82,1.63,1.41,4.22,1,4.48s-2.16-1.44-2.73-.93a6.36,6.36,0,0,0-1,3.2c.11.34,2.45,0,2.58.15,1.48,1.07,2.55,3.41,3.12,5.09s.84,3.05,2.29,4.13a3,3,0,0,0,2.87.51c1-.5,1.42-1.95,1.55-3,.33-2.62-.55-5.34-1.43-7.77a36.29,36.29,0,0,0-2.76-6.37C242.89,92.71,238.76,91.77,238.05,91.82Z" fill="#abdb3a"></path><path d="M186.16,134.6v9.51a3.8,3.8,0,0,0,3.71,2.62,3.06,3.06,0,0,0,3.17-2.68l.76-8.83" fill="#f9635c"></path><path d="M195.13,143.49c-.18-.75-1.65-1.54-1.91-1.55s-.12,1.44-.12,1.44c-1.44,2.26-4.32,2.27-4.67,1.85s1.18-2.59.53-3.11a7,7,0,0,0-3.64-.53c-.35.18.38,2.65.29,2.82-.89,1.79-3.25,3.36-5,4.26s-3.16,1.44-4.07,3.21a3.24,3.24,0,0,0,0,3.2c.72,1,2.36,1.2,3.5,1.16,2.89-.1,5.68-1.53,8.16-2.91a39.79,39.79,0,0,0,6.41-4.1C195,148.88,195.31,144.24,195.13,143.49Z" fill="#abdb3a"></path><path d="M185.5,59.81c-1.17,6.14-3.18,11.65-7,16.4.23.63,1.66,3.53,8.81,3.53l6.42-8.47Z" fill="#e25096"></path><path d="M187.39,75.36s-9,11-4.87,21.11c3.72,9.25,29.72,8.6,45.93,6,0,0,6.75-4.26,2.95-11.35,0,0-20.73-3-23.86-3.24" fill="#5699d1"></path><path d="M189.28,76.86s-9.83,24.6-9.8,30.3,4.53,30.3,4.53,30.3,5.39,3.37,12.67,0c0,0-.93-27.41.21-31.31s11.38-23.21,5.46-30.79Z" fill="#6da8e2"></path><path d="M187.39,75.36c-.75-.76-5.4-19.92-2.35-24.14s16.92,2.79,19,5.83-1.45,16.33-1.71,18.31S193,81,187.39,75.36Z" fill="#f877af"></path><path d="M198,78.06l-.14,0a92.18,92.18,0,0,1-3.4,13.86c-1.7,5.14-4.4,10.06-5.25,15.45s-.55,10.77-.48,16.09q.1,7.72.51,15.44l.73,0q-.4-7.74-.52-15.49c-.07-5.65-.46-11.62.69-17.19,1.1-5.33,3.81-10.27,5.44-15.45a92.67,92.67,0,0,0,3-12.94A4.51,4.51,0,0,1,198,78.06Z" fill="#fff"></path><path d="M189.75,45.07c-.1.5-.44,8.8,3.61,10.19s8.8-7.15,6.83-11.22S190.89,39.4,189.75,45.07Z" fill="#f9635c"></path><path d="M197,46.5c.68.89.7,3.22.45,4.33a7.66,7.66,0,0,0,0,1.53,11.51,11.51,0,0,0-.07,1.33,8.76,8.76,0,0,0,1.07-1,.47.47,0,0,0,.49.05,2.47,2.47,0,0,0,.44-.28c.34-.23.74-.36,1.09-.57a3.47,3.47,0,0,0,1.36-1.95,9.29,9.29,0,0,0,.63-2.68,9.7,9.7,0,0,0-1-5.31c-2.19-4.18-7.79-4.27-11.23-1.53.17-.36.58-1.45-.62-1.19-1.43.3-2.57,3.19-2.57,3.19-.21-.51.5-1.89.5-1.89s-1.69.3-1.41,3.05,3.56,4.44,4.62,2.07,1.37-2.06,1.37-2.06c-1.08,1.95-.06,3.37,2.33,3.82A2.29,2.29,0,0,0,197,46.5Z" fill="#111224"></path><path d="M198.95,48.89a1.36,1.36,0,0,0-2.11-.38,4.94,4.94,0,0,0-1,1.75.79.79,0,0,0,0,.55,1.11,1.11,0,0,0,0,1.06,1.07,1.07,0,0,0,1.43.37C198.29,51.72,199.66,50.15,198.95,48.89Z" fill="#f9635c"></path><circle cx="197.92" cy="50.2" r="2.74" fill="#abdb3a"></circle><path d="M191.73,39.38s6.73,1.4,5.9,9.39l2.11-.62s1.5-6.84-5.86-9.65A2.26,2.26,0,0,0,191.73,39.38Z" fill="#abdb3a"></path><path d="M200.65,40.78s.59-5.71,5.15-5.61,4.27,3.78,7.35,3.78,5.57-6.16,9.24-4.37,6.26,13.65-2.58,14.18-10.34-7.43-12.62-6.28-3.19,5-6.16,5.15" fill="#111224"></path><path d="M211.89,74.6a.69.69,0,0,0-.45-.77c.48-.72-.53-1.75-1.19-1.08q-.36.37-.74.7a.77.77,0,0,0-1.07-.54.69.69,0,0,0-.76.14L206,74.5l0,0a4.8,4.8,0,0,1-2.6.7,12.26,12.26,0,0,0-2.44.13c-.62.1-2,.22-2,.86s.77.95,1.65,1.09l-.29.1c-.93.31-1.94,1.1-1.22,2.11a.84.84,0,0,0-.39,1.07c.3,1,1.11,1,1.88.76.16.39.34.75.78.88a2.41,2.41,0,0,0,1.45-.26c1.52,2.07,5.35-2.31,6.87-4.24C210.6,76.85,211.73,75.77,211.89,74.6Z" fill="#f9635c"></path><path d="M217,67.45c-.8-4.78-4.37-7.73-8.52-9.73-2.11-1-4.31-1.82-6.46-2.74-1.22-.52-2.43-1.06-3.63-1.61-.24-.11-2.09-.7-2.14-1l2.29,10.38c1.79.84,1.69,1.62,3.46,2.5,1.5.75,4.79,1.52,5.17,3.37a3.56,3.56,0,0,1,.05,1.12l0,0,0,0a6.6,6.6,0,0,1-3,4.12A40,40,0,0,0,209,79.75S218.21,74.52,217,67.45Z" fill="#f877af"></path><polygon points="71.79 99.21 71.79 133.36 118.03 106.36 118.03 74.17 71.79 99.21" fill="#ffdddc"></polygon><polygon points="96.52 35.78 96.52 74.91 149.49 43.98 149.49 7.1 96.52 35.78" fill="#fee565"></polygon><path d="M109.89,40.16h0a5.06,5.06,0,0,1,7.34,4.51V49.6a5.06,5.06,0,0,1-2.88,4.56h0a5.06,5.06,0,0,1-7.24-4.56V44.67A5.06,5.06,0,0,1,109.89,40.16Z" fill="#f9635c"></path><polygon points="116.01 49.16 132.07 40.26 132.07 35.15 116.01 44.23 116.01 49.16" fill="#f9635c"></polygon><path d="M132.64,29.83h0A5.06,5.06,0,0,1,140,34.34v4.93a5.06,5.06,0,0,1-2.88,4.56h0a5.06,5.06,0,0,1-7.24-4.56V34.34A5.06,5.06,0,0,1,132.64,29.83Z" fill="#f9635c"></path><polygon points="88.59 111.85 102.06 104.39 102.06 100.1 88.59 107.72 88.59 111.85" fill="#f9635c"></polygon><rect x="100.13" y="92.2" width="7.04" height="16.67" rx="3.52" ry="3.52" fill="#f9635c"></rect><rect x="83.98" y="101.32" width="7.04" height="16.67" rx="3.52" ry="3.52" fill="#f9635c"></rect><rect x="80.94" y="107.96" width="4.73" height="7.77" rx="2.36" ry="2.36" fill="#f9635c"></rect><rect x="105.68" y="96.22" width="4.73" height="7.77" rx="2.36" ry="2.36" fill="#f9635c"></rect><path d="M145,107.84l23.53-12s4-.62,5,2.17l-16.41,9.29-1.65,5.47" fill="#f2f2f2"></path><path d="M183.57,188.81l18-57.36,14.9-8.45s.73-2.43-3.65-2.67l-20.06,11.06-52.4-28.08s-3.4-1.46-5.47,2.31l15.2,8.75-13.78,40.89,7.26-4.66L155.09,117l37.2,19.21,3.28-1.82s-18,57.6-18,58S180.84,190.57,183.57,188.81Z" fill="#f2f2f2"></path></svg>