<svg xmlns="http://www.w3.org/2000/svg" viewBox="0 0 400 300" width="406" height="306" class="illustration styles_illustrationTablet__1DWOa"><g id="_191_health_flatline" data-name="#191_health_flatline"><path d="M343.16,238.48H56.84a.5.5,0,0,1-.5-.5.5.5,0,0,1,.5-.5H343.16a.5.5,0,0,1,.5.5A.5.5,0,0,1,343.16,238.48Z" fill="#d1d3d4"></path><path d="M200,63.54c1.11-1.66,2.1-3.22,3.16-4.73,7.16-10.07,16.14-18,27.56-22.93a56.6,56.6,0,0,1,27.5-4.47c14.19,1.16,26.45,6.59,36.43,16.82A55,55,0,0,1,309.8,79.4c1.13,7.61.69,15.23,0,22.85A89.61,89.61,0,0,1,305.18,124c-3.93,11.21-10.38,20.88-18.21,29.7-8,9-16.86,17-25.85,24.9q-23.42,20.64-46.85,41.27c-4.58,4-9,8.32-13.46,12.49l-.82.76L196.68,230c-15.14-14.3-30.82-28-46.55-41.61-10.28-8.89-20.6-17.72-30.2-27.36-7-7-13.44-14.46-18.53-23A81.12,81.12,0,0,1,91,108.66a117.54,117.54,0,0,1-1.38-23.24c1-23.71,15.61-43.68,37.36-50.85,23.48-7.75,44.15-2.32,61.87,14.73a67.93,67.93,0,0,1,10.54,13.33C199.54,62.89,199.71,63.14,200,63.54Z" fill="#ff76a6"></path><path d="M195.85,168.19h-.11a2,2,0,0,1-1.83-1.53L173.45,81.47l-13.31,49.42a2,2,0,0,1-1.9,1.48c-.37,0-37.61.64-59.29.57a2,2,0,1,1,0-4h0c19.15.07,50.5-.43,57.71-.55l15-55.55a2,2,0,0,1,2-1.48,2,2,0,0,1,1.92,1.54l20.72,86.32,10.62-29.53a2,2,0,0,1,1.88-1.32h9.18l7.86-15.21a2,2,0,0,1,1.72-1.08,2,2,0,0,1,1.78,1l9.32,15.63h63.84a2,2,0,0,1,0,4h-65a2,2,0,0,1-1.72-1l-8.07-13.51-6.76,13.09a2,2,0,0,1-1.78,1.08h-9l-12.4,34.5A2,2,0,0,1,195.85,168.19Z" fill="#231f20"></path><polygon points="100.99 254.3 74.99 254.3 71.1 201.64 104.88 201.64 100.99 254.3" fill="#fff"></polygon><path d="M101,254.8H75a.5.5,0,0,1-.5-.46L70.6,201.68a.5.5,0,0,1,.5-.54h33.78a.48.48,0,0,1,.36.16.49.49,0,0,1,.14.38l-3.9,52.66A.49.49,0,0,1,101,254.8Zm-25.53-1h25.06l3.82-51.66H71.64Z" fill="#231f20"></path><polygon points="76.06 217.26 78.35 250.49 97.63 250.49 99.91 217.26 76.06 217.26" fill="#ff76a6"></polygon><path d="M83.08,250a1.48,1.48,0,0,1-1.48-1.33l-6.85-60.95-14.71,2a1.5,1.5,0,1,1-.4-3l16.22-2.18a1.5,1.5,0,0,1,1.7,1.32l7,62.47A1.49,1.49,0,0,1,83.25,250Z" fill="#231f20"></path><path d="M134.79,186.65v-7a7.56,7.56,0,0,0-7.56-7.56H109.14a7.55,7.55,0,0,0-7.55,7.56v7a7.54,7.54,0,0,0,3.6,6.44,1,1,0,0,1,0,1.78,8.17,8.17,0,0,0-3.64,6.81v48.55a4.07,4.07,0,0,0,4.08,4.07h25a4.07,4.07,0,0,0,4.07-4.07V201.68a8.17,8.17,0,0,0-3.64-6.81,1,1,0,0,1,0-1.78A7.55,7.55,0,0,0,134.79,186.65Z" fill="#fff"></path><path d="M127.23,172.13a7.56,7.56,0,0,1,7.56,7.56v7a7.55,7.55,0,0,1-3.61,6.44,1,1,0,0,0,0,1.78,8.17,8.17,0,0,1,3.64,6.81v48.55a4.07,4.07,0,0,1-4.07,4.07h-25a4.07,4.07,0,0,1-4.08-4.07V201.68a8.17,8.17,0,0,1,3.64-6.81,1,1,0,0,0,0-1.78,7.54,7.54,0,0,1-3.6-6.44v-7a7.55,7.55,0,0,1,7.55-7.56h18.09m0-.92H109.14a8.49,8.49,0,0,0-8.47,8.48v7a8.42,8.42,0,0,0,4,7.22.12.12,0,0,1,.08.12.12.12,0,0,1-.06.12,9.09,9.09,0,0,0-4.06,7.57v48.55a5,5,0,0,0,5,5h25a5,5,0,0,0,5-5V201.68a9.12,9.12,0,0,0-4-7.57.12.12,0,0,1-.07-.12.14.14,0,0,1,.08-.12,8.42,8.42,0,0,0,4-7.22v-7a8.49,8.49,0,0,0-8.47-8.48Z" fill="#231f20"></path><path d="M129.28,190a3.89,3.89,0,0,0,1.88-3.35v-.1H105.21v.1a3.89,3.89,0,0,0,1.88,3.35,4.68,4.68,0,0,1,.15,7.89,4.55,4.55,0,0,0-2,3.79v48.55a.45.45,0,0,0,.46.45h25a.45.45,0,0,0,.45-.45V201.68a4.55,4.55,0,0,0-2-3.79,4.68,4.68,0,0,1,.15-7.89Z" fill="#ff76a6"></path><rect x="101.59" y="212.67" width="33.2" height="20.14" fill="#fff"></rect><path d="M134.79,212.67v20.14h-33.2V212.67h33.2m0-1h-33.2a1,1,0,0,0-1,1v20.14a1,1,0,0,0,1,1h33.2a1,1,0,0,0,1-1V212.67a1,1,0,0,0-1-1Z" fill="#231f20"></path><rect x="110.86" y="163.08" width="14.65" height="9.05" fill="#231f20"></rect><path d="M243,221.5a32.82,32.82,0,1,1-10.56-24.1A32.65,32.65,0,0,1,243,221.5Z" fill="#fff"></path><path d="M210.24,254.8A33.31,33.31,0,1,1,232.82,246,33.14,33.14,0,0,1,210.24,254.8Zm0-65.6a32.32,32.32,0,1,0,21.9,8.57A32.18,32.18,0,0,0,210.24,189.2Z" fill="#231f20"></path><path d="M188,246.1a.5.5,0,0,1-.34-.13,33.28,33.28,0,0,1,0-48.93.5.5,0,0,1,.68,0,33.28,33.28,0,0,1,0,48.93A.5.5,0,0,1,188,246.1Zm0-48a32.28,32.28,0,0,0,0,46.83,32.28,32.28,0,0,0,0-46.83Z" fill="#231f20"></path><path d="M232.48,246.1a.5.5,0,0,1-.34-.13,33.28,33.28,0,0,1,0-48.93.5.5,0,0,1,.68,0,33.28,33.28,0,0,1,0,48.93A.48.48,0,0,1,232.48,246.1Zm0-48a32.28,32.28,0,0,0,0,46.83,32.28,32.28,0,0,0,0-46.83Z" fill="#231f20"></path><path d="M210.24,254.8a.5.5,0,0,1-.5-.5V188.7a.5.5,0,0,1,1,0v65.6A.5.5,0,0,1,210.24,254.8Z" fill="#231f20"></path><path d="M210.24,227.07c-22.1,0-32.91-5.06-33-5.12a.5.5,0,0,1-.23-.66.5.5,0,0,1,.67-.24c.1,0,10.74,5,32.58,5s32.48-5,32.58-5a.5.5,0,0,1,.67.24.49.49,0,0,1-.23.66C243.15,222,232.34,227.07,210.24,227.07Z" fill="#231f20"></path><path d="M174.8,231.29a2.18,2.18,0,0,1-2.18-2.18V199a13.19,13.19,0,1,0-26.38,0v30.13a2.19,2.19,0,0,1-4.37,0V199A17.56,17.56,0,1,1,177,199v30.13A2.18,2.18,0,0,1,174.8,231.29Z" fill="#231f20"></path><path d="M159.43,203.26a32.55,32.55,0,0,0-32.52,32.53A32.17,32.17,0,0,0,134,256a.54.54,0,0,0,.42.21h50.08a.54.54,0,0,0,.42-.21A32.17,32.17,0,0,0,192,235.79,32.56,32.56,0,0,0,159.43,203.26Z" fill="#231f20"></path><text transform="translate(143.44 239.14)" font-size="13.11" fill="#fff" font-family="Avenir-Black, Avenir" font-weight="800">5 KG</text><path d="M330.43,234.28c-1.31-10.18-9.85-10.34-9.85-15.43s7.37-7.52,1.78-16c-4.39-6.66-18.34-6.25-22.4-.58-4.9,6.84.93,11.5.93,16.59s-8.54,5.25-9.85,15.43,2.46,20,19.69,20S331.74,244.46,330.43,234.28Z" fill="#fff"></path><path d="M310.73,254.8c-7.7,0-13.32-2-16.72-5.81-3.06-3.49-4.26-8.6-3.47-14.77s4-8.65,6.58-10.76c1.82-1.49,3.27-2.67,3.27-4.61a13.79,13.79,0,0,0-1.34-5c-1.35-3.36-2.88-7.18.5-11.91,2.05-2.86,6.69-4.62,11.8-4.54s9.37,2,11.42,5.13c3.81,5.78,1.83,9,.07,11.81-.9,1.46-1.76,2.84-1.76,4.48,0,1.94,1.44,3.12,3.27,4.61,2.58,2.11,5.8,4.74,6.58,10.76s-.41,11.28-3.47,14.77C324.06,252.85,318.44,254.8,310.73,254.8Zm.2-56.37c-4.64,0-8.75,1.6-10.56,4.12-3.07,4.29-1.71,7.68-.39,11a14.62,14.62,0,0,1,1.41,5.34c0,2.42-1.69,3.79-3.64,5.38-2.45,2-5.49,4.49-6.22,10.11-.75,5.89.36,10.72,3.24,14,3.19,3.63,8.56,5.47,16,5.47s12.78-1.84,16-5.47c2.88-3.27,4-8.1,3.23-14-.72-5.62-3.77-8.11-6.21-10.11-2-1.59-3.64-3-3.64-5.38a9.51,9.51,0,0,1,1.92-5c1.74-2.82,3.39-5.48-.06-10.73-1.87-2.84-5.84-4.58-10.61-4.68Z" fill="#231f20"></path><path d="M310.71,201.4h-.08a.51.51,0,0,1-.42-.57c.05-.34,1.27-8.21,3.6-10.89a.5.5,0,1,1,.76.66c-2.15,2.46-3.36,10.3-3.37,10.38A.49.49,0,0,1,310.71,201.4Z" fill="#231f20"></path><path d="M312,196.45s-.4-8.74-11-8.48C301,188,300.15,196.57,312,196.45Z" fill="#ff76a6"></path><path d="M320.89,210a.51.51,0,0,1-.5-.45c-.49-5.37-3.8-7.15-3.94-7.22a.5.5,0,1,1,.45-.89c.16.08,3.94,2.07,4.49,8a.49.49,0,0,1-.45.54Z" fill="#d1d3d4"></path><path d="M319.1,214.42a.51.51,0,0,1-.42-.77,13.51,13.51,0,0,0,.91-1.82.5.5,0,1,1,.93.37,15.34,15.34,0,0,1-1,2A.52.52,0,0,1,319.1,214.42Z" fill="#d1d3d4"></path><rect x="260.98" y="180.87" width="38.78" height="73.44" fill="#fff"></rect><path d="M299.76,254.8H261a.5.5,0,0,1-.5-.5V180.87a.5.5,0,0,1,.5-.5h38.78a.5.5,0,0,1,.5.5V254.3A.5.5,0,0,1,299.76,254.8Zm-38.28-1h37.78V181.37H261.48Z" fill="#231f20"></path><polygon points="292.57 166.63 268.18 166.63 260.98 180.87 299.76 180.87 292.57 166.63" fill="#fff"></polygon><path d="M299.76,181.37H261a.49.49,0,0,1-.42-.24.5.5,0,0,1,0-.49l7.19-14.23a.49.49,0,0,1,.44-.27h24.4a.48.48,0,0,1,.44.27l7.2,14.23a.53.53,0,0,1,0,.49A.52.52,0,0,1,299.76,181.37Zm-38-1H299l-6.69-13.23H268.48Z" fill="#231f20"></path><rect x="268.04" y="162.7" width="24.66" height="3.93" fill="#fff"></rect><path d="M292.7,167.14H268a.51.51,0,0,1-.5-.5V162.7a.5.5,0,0,1,.5-.5H292.7a.5.5,0,0,1,.5.5v3.94A.5.5,0,0,1,292.7,167.14Zm-24.16-1H292.2V163.2H268.54Z" fill="#231f20"></path><rect x="265.63" y="196.51" width="29.49" height="29.49" fill="#ff76a6"></rect><path d="M267.6,233.93c0,11.87-7.11,23.09-21.5,19.71-15.27,3.56-21.49-7.84-21.49-19.71s9.77-14.21,21.49-10.26C257.47,219.19,267.6,222.06,267.6,233.93Z" fill="#fff"></path><path d="M240.7,254.81a15,15,0,0,1-9.6-3.16c-4.44-3.53-7-10-7-17.72,0-4.73,1.49-8.2,4.44-10.31,3.87-2.79,10.1-3,17.54-.48,6.88-2.67,13.14-2.63,17.19.12,3.15,2.15,4.82,5.84,4.82,10.67,0,7.39-2.72,14-7.27,17.56-3.87,3.07-9,4-14.73,2.67A24.51,24.51,0,0,1,240.7,254.81Zm-4.17-32.42a12.5,12.5,0,0,0-7.4,2c-2.67,1.91-4,5.11-4,9.5,0,7.43,2.41,13.6,6.61,16.94,3.63,2.88,8.43,3.65,14.27,2.29a.45.45,0,0,1,.23,0c5.5,1.29,10.34.44,14-2.45,4.31-3.42,6.89-9.69,6.89-16.78,0-4.49-1.52-7.89-4.39-9.84-3.8-2.59-9.79-2.57-16.42,0a.53.53,0,0,1-.35,0A30.15,30.15,0,0,0,236.53,222.39Z" fill="#231f20"></path><path d="M246.1,224.17H246a.51.51,0,0,1-.42-.57c0-.34,1.29-8.37,3.67-11.1a.5.5,0,1,1,.75.66c-2.18,2.51-3.42,10.51-3.43,10.59A.51.51,0,0,1,246.1,224.17Z" fill="#231f20"></path><path d="M247.45,219.13s-.41-8.91-11.2-8.65C236.25,210.48,235.34,219.25,247.45,219.13Z" fill="#ff76a6"></path><path d="M263.16,239.4h0a.49.49,0,0,1-.47-.52c.27-5.24-.67-9.19-2.73-11.43a5.4,5.4,0,0,0-3.54-1.9.5.5,0,0,1-.48-.52.48.48,0,0,1,.51-.48,6.38,6.38,0,0,1,4.22,2.19c2.29,2.47,3.31,6.57,3,12.19A.51.51,0,0,1,263.16,239.4Z" fill="#d1d3d4"></path></g></svg>