<svg xmlns="http://www.w3.org/2000/svg" viewBox="0 0 750 500"><g id="freepik--background-complete--inject-39"><rect x="489.94" width="1" height="37.58" style="fill:#c7c7c7"></rect><polygon points="524.32 70.24 521.6 76.23 459.27 76.23 456.56 70.24 483.09 51.87 497.79 51.87 524.32 70.24" style="fill:#ebebeb"></polygon><polygon points="499.63 34.18 497.79 51.87 483.09 51.87 481.25 34.18 499.63 34.18" style="fill:#dbdbdb"></polygon><polygon points="524.32 70.24 521.59 76.23 459.27 76.23 456.55 70.24 524.32 70.24" style="fill:#dbdbdb"></polygon><rect x="259.06" width="1" height="37.58" style="fill:#c7c7c7"></rect><polygon points="293.44 70.24 290.72 76.23 228.4 76.23 225.68 70.24 252.21 51.87 266.91 51.87 293.44 70.24" style="fill:#ebebeb"></polygon><polygon points="268.75 34.18 266.91 51.87 252.21 51.87 250.37 34.18 268.75 34.18" style="fill:#dbdbdb"></polygon><polygon points="293.44 70.24 290.72 76.23 228.39 76.23 225.68 70.24 293.44 70.24" style="fill:#dbdbdb"></polygon><rect x="143.62" width="1" height="37.58" style="fill:#c7c7c7"></rect><polygon points="178 70.24 175.28 76.23 112.96 76.23 110.24 70.24 136.77 51.87 151.47 51.87 178 70.24" style="fill:#ebebeb"></polygon><polygon points="153.31 34.18 151.47 51.87 136.77 51.87 134.93 34.18 153.31 34.18" style="fill:#dbdbdb"></polygon><polygon points="178 70.24 175.28 76.23 112.95 76.23 110.24 70.24 178 70.24" style="fill:#dbdbdb"></polygon><rect x="605.38" width="1" height="37.58" style="fill:#c7c7c7"></rect><polygon points="639.76 70.24 637.03 76.23 574.71 76.23 571.99 70.24 598.53 51.87 613.23 51.87 639.76 70.24" style="fill:#ebebeb"></polygon><polygon points="615.07 34.18 613.23 51.87 598.53 51.87 596.68 34.18 615.07 34.18" style="fill:#dbdbdb"></polygon><polygon points="639.76 70.24 637.03 76.23 574.71 76.23 571.99 70.24 639.76 70.24" style="fill:#dbdbdb"></polygon><circle cx="78.47" cy="207.93" r="10.97" transform="translate(-141.93 236.53) rotate(-76.72)" style="fill:#ebebeb"></circle><path d="M75,206.77a3.35,3.35,0,1,0,3.34-3.35A3.35,3.35,0,0,0,75,206.77Z" style="fill:#fff"></path><path d="M72.54,216v1.38a11,11,0,0,0,3.17,1.33,10.91,10.91,0,0,0,8.4-1.34V216a5.79,5.79,0,0,0-11.57,0Z" style="fill:#fff"></path><rect x="211.08" y="83.9" width="1" height="254.05" transform="translate(-1.67 420.15) rotate(-89.37)" style="fill:#ebebeb"></rect><rect x="464.28" y="171.64" width="1" height="220.24" transform="translate(-46.95 464.88) rotate(-50.91)" style="fill:#ebebeb"></rect><rect x="323.3" y="116.13" width="1" height="87.46" transform="translate(-34.57 204.31) rotate(-33.35)" style="fill:#ebebeb"></rect><rect x="256.31" y="264.28" width="84.76" height="1" transform="translate(-100.47 263.96) rotate(-41.44)" style="fill:#ebebeb"></rect><rect x="412.99" y="209.01" width="258.54" height="1" style="fill:#ebebeb"></rect><circle cx="288.36" cy="107.57" r="25.73" transform="translate(116.74 363.05) rotate(-76.57)" style="fill:#ebebeb"></circle><path d="M280.6,103.85a8.1,8.1,0,1,0,8.09-8.1A8.09,8.09,0,0,0,280.6,103.85Z" style="fill:#fff"></path><path d="M274.71,126.18v3.34a26.16,26.16,0,0,0,7.67,3.21,26.47,26.47,0,0,0,20.3-3.22v-3.33a14,14,0,1,0-28,0Z" style="fill:#fff"></path><circle cx="554.17" cy="355.64" r="33.32" style="fill:#ebebeb"></circle><path d="M544.11,350.82a10.49,10.49,0,1,0,10.49-10.49A10.49,10.49,0,0,0,544.11,350.82Z" style="fill:#fff"></path><path d="M536.48,379.74v4.33a34.44,34.44,0,0,0,36.24,0v-4.31a18.12,18.12,0,0,0-36.24,0Z" style="fill:#fff"></path><circle cx="661.64" cy="209.51" r="20.86" style="fill:#ebebeb"></circle><path d="M654.2,203.14a7.44,7.44,0,1,0,7.44-7.44A7.44,7.44,0,0,0,654.2,203.14Z" style="fill:#fff"></path><path d="M648.79,223.65v3.07a23.91,23.91,0,0,0,7.05,2.95,24.32,24.32,0,0,0,18.65-3v-3.06a12.85,12.85,0,0,0-25.7,0Z" style="fill:#fff"></path><circle cx="253.87" cy="301.94" r="20.86" transform="translate(-71.52 524.95) rotate(-84.37)" style="fill:#ebebeb"></circle><path d="M246.44,295.56a7.44,7.44,0,1,0,7.43-7.43A7.44,7.44,0,0,0,246.44,295.56Z" style="fill:#fff"></path><path d="M241,316.08v3.06a24.44,24.44,0,0,0,25.7,0v-3.05a12.85,12.85,0,0,0-25.7,0Z" style="fill:#fff"></path><circle cx="375" cy="234.38" r="54.61" transform="translate(95.4 576.99) rotate(-82.79)" style="fill:#ebebeb"></circle><rect x="533.95" y="157.28" width="8.91" height="45.22" transform="translate(1053.6 -58.5) rotate(136.69)" style="fill:#dbdbdb"></rect><polygon points="569.56 222.77 579.37 213.52 579.37 213.52 554.46 187.09 554.46 187.09 544.65 196.34 544.65 196.34 569.56 222.77" style="fill:#c7c7c7"></polygon><g style="opacity:0.30000000000000004"><path d="M488,173.55a40.44,40.44,0,1,1,30.17-6.78A40.45,40.45,0,0,1,488,173.55Z" style="fill:#fff"></path></g><g style="opacity:0.1"><path d="M528,110.48a40.44,40.44,0,1,1-26.13-16.54A40.46,40.46,0,0,1,528,110.48Z" style="fill:#fff"></path></g><path d="M486.84,180.28a47.23,47.23,0,1,1,54.61-38.46A47.3,47.3,0,0,1,486.84,180.28Zm.93-5.34a41.82,41.82,0,1,0-34-48.35A41.87,41.87,0,0,0,487.77,174.94Z" style="fill:#c7c7c7"></path><path d="M541.88,121.05a48.6,48.6,0,1,0,1,21A48.71,48.71,0,0,0,541.88,121.05Zm-70.22-20.34a40.35,40.35,0,1,1-16.56,26.12A40.22,40.22,0,0,1,471.66,100.71Z" style="fill:#ebebeb"></path><path d="M466.61,151.49a31,31,0,0,1-4.67-12,33.48,33.48,0,0,1-.5-6.57,34.45,34.45,0,0,1,.83-6.61,32.36,32.36,0,0,1,5.71-12,35.76,35.76,0,0,1,9.76-8.82,63.73,63.73,0,0,0-8,10,38.9,38.9,0,0,0-2.87,5.55,33,33,0,0,0-1.92,5.87,39.9,39.9,0,0,0-.89,12.29A52.69,52.69,0,0,0,466.61,151.49Z" style="fill:#ebebeb"></path><path d="M526.07,126.18A31.08,31.08,0,0,1,527.3,139a33.4,33.4,0,0,1-1.31,6.45,34.89,34.89,0,0,1-2.62,6.14,32.26,32.26,0,0,1-8.78,10,35.79,35.79,0,0,1-11.79,5.82A64.25,64.25,0,0,0,513.21,160a39.09,39.09,0,0,0,4.27-4.56,32.57,32.57,0,0,0,3.45-5.12,39.83,39.83,0,0,0,4.22-11.58A52.65,52.65,0,0,0,526.07,126.18Z" style="fill:#ebebeb"></path><rect x="130.51" y="329.09" width="7.61" height="38.63" transform="translate(275.54 2.74) rotate(43.31)" style="fill:#dbdbdb"></rect><polygon points="107.71 385.03 99.33 377.13 99.33 377.13 120.61 354.56 120.61 354.56 128.99 362.45 128.99 362.45 107.71 385.03" style="fill:#c7c7c7"></polygon><g style="opacity:0.30000000000000004"><path d="M177.38,343a34.55,34.55,0,1,0-25.77-5.8A34.56,34.56,0,0,0,177.38,343Z" style="fill:#fff"></path></g><g style="opacity:0.1"><path d="M143.25,289.11A34.55,34.55,0,1,0,165.57,275,34.57,34.57,0,0,0,143.25,289.11Z" style="fill:#fff"></path></g><path d="M131.72,315.88a40.34,40.34,0,1,1,46.65,32.85A40.4,40.4,0,0,1,131.72,315.88Zm74.94-13a35.72,35.72,0,1,0-29.08,41.31A35.76,35.76,0,0,0,206.66,302.87Z" style="fill:#c7c7c7"></path><path d="M130.54,316.09a41.59,41.59,0,1,0,7-31,41.25,41.25,0,0,0-7,31Zm74.94-13a34.55,34.55,0,1,1-14.14-22.31A34.29,34.29,0,0,1,205.48,303.08Z" style="fill:#ebebeb"></path><path d="M195.65,324.15a26.49,26.49,0,0,0,4-10.22,28.38,28.38,0,0,0,.43-5.61,30,30,0,0,0-.71-5.65,27.61,27.61,0,0,0-4.88-10.29,30.49,30.49,0,0,0-8.33-7.54A53.87,53.87,0,0,1,193,293.4a32.63,32.63,0,0,1,2.45,4.73,28.05,28.05,0,0,1,1.64,5,33.94,33.94,0,0,1,.76,10.5A44.78,44.78,0,0,1,195.65,324.15Z" style="fill:#ebebeb"></path><path d="M144.86,302.53a26.39,26.39,0,0,0-1,10.92,27.61,27.61,0,0,0,1.11,5.51,30.56,30.56,0,0,0,2.23,5.24,27.59,27.59,0,0,0,7.51,8.57,30.57,30.57,0,0,0,10.07,5,54.33,54.33,0,0,1-8.89-6.36,33.44,33.44,0,0,1-3.65-3.89,28,28,0,0,1-2.95-4.38,34.1,34.1,0,0,1-3.6-9.89A44.76,44.76,0,0,1,144.86,302.53Z" style="fill:#ebebeb"></path></g><g id="freepik--Lamp--inject-39"><rect x="374.5" width="1" height="37.58" style="fill:#263238"></rect><polygon points="408.88 70.24 406.16 76.23 343.84 76.23 341.12 70.24 367.65 51.87 382.35 51.87 408.88 70.24" style="fill:#407BFF"></polygon><polygon points="384.19 34.18 382.35 51.87 367.65 51.87 365.81 34.18 384.19 34.18" style="fill:#407BFF"></polygon><polygon points="408.88 70.24 406.16 76.23 343.83 76.23 341.12 70.24 408.88 70.24" style="opacity:0.2"></polygon><polygon points="367.65 51.87 367.43 49.7 382.71 48.4 382.35 51.87 367.65 51.87" style="opacity:0.1"></polygon><polygon points="456.16 463.95 294.11 463.95 344.11 76.23 406.16 76.23 456.16 463.95" style="fill:#407BFF;opacity:0.2"></polygon></g><g id="freepik--Floor--inject-39"><path d="M58.06,464.05c203.05-.62,430.83-.62,633.88,0-203.05.61-430.83.61-633.88,0Z" style="fill:#263238"></path></g><g id="freepik--character-5--inject-39"><path d="M691,463.61c-2.16.73-65.76.66-68.11-.84-.91-.56,3.3-60.89,3.3-60.89l40.34-.05-3.76,40.37s23.68,10.63,26.1,12.56S693.16,462.9,691,463.61Z" style="fill:#d3766a"></path><path d="M691,463.62c-2.16.72-65.76.65-68.11-.85-.29-.17-.5-6.29.35-14.27,11.57,1.7,52.85,7.17,56,5.22,2.21-1.36.19-3.37-1.67-4.71,5.31,2.51,10.26,4.93,11.29,5.75C691.26,456.68,693.16,462.9,691,463.62Z" style="fill:#263238"></path><path d="M663.69,432.52l-39.59.26s5.9-95,5.54-96.78c-.47-2.33-30.81-111.87-30.81-111.87l37.78-.77s31.89,102,33.16,111.89C671.83,351.18,663.69,432.52,663.69,432.52Z" style="fill:#455a64"></path><path d="M627.48,423.77c2.33-.22,4.7-.24,7-.32s4.7-.13,7-.16q7.05-.07,14.09,0c1.28,0,2.57,0,3.85.06s2.75.24,4.12.26a.09.09,0,0,1,0,.17c-1.15,0-2.3.23-3.46.29s-2.39.09-3.58.11q-3.52.08-7.05.12c-4.69.06-9.39.09-14.08,0-2.65-.05-5.33,0-8-.24A.12.12,0,0,1,627.48,423.77Z" style="fill:#263238"></path><path d="M607.32,232.85c3.63,11.9,7,23.92,10.24,35.92s6.54,24,9.79,36q2.45,9,4.88,18c1.58,5.84,3.4,11.72,3.89,17.79s-.16,12.41-.56,18.57-.78,12.38-1.2,18.57c-.83,12.39-1.61,24.78-2.7,37.15-.14,1.54-.27,3.09-.4,4.64,0,.13-.21.13-.21,0,.57-12.39,1.17-24.77,1.9-37.15q.56-9.28,1.13-18.57c.39-6.18,1-12.39,1-18.58A66.2,66.2,0,0,0,632.3,327q-2.4-8.82-4.81-17.63-4.9-18-9.78-36c-3.64-13.45-7.26-26.93-10.5-40.49A.06.06,0,0,1,607.32,232.85Z" style="fill:#263238"></path><path d="M598.83,224.13s13,47,22.13,80.08l14.42-80.83Z" style="fill:#263238"></path><path d="M643.52,464.74c-2.16.72-65.76.65-68.12-.85-.9-.55,1.18-60.88,1.18-60.88l39.8,0-1.09,40.35S639,454,641.39,455.88,645.69,464,643.52,464.74Z" style="fill:#d3766a"></path><path d="M643.52,464.74c-2.16.72-65.77.65-68.12-.85-.28-.17-.34-6.13-.28-14.26,11.57,1.69,53.48,7.16,56.65,5.21,2.21-1.36.19-3.37-1.67-4.71,5.3,2.51,10.26,4.93,11.29,5.75C643.78,457.8,645.68,464,643.52,464.74Z" style="fill:#263238"></path><path d="M635.38,223.37s-.72,18.08-4.75,32.43c-.32,1.19-.67,2.36-1,3.48A67.6,67.6,0,0,0,618.73,265s-1.3,69.15-1.16,73.44c.5,16.05-2,94.31-2,94.31l-39.91.44s2.32-88.49,2.22-94.37c-.1-5.69,1.86-41.62,3.63-72.78,0,0-3.76-9.86-3.47-14.89.71-12.18,5.87-26.67,5.87-26.67Z" style="fill:#455a64"></path><path d="M627.16,247.81c.13-1,.26-2,.4-3,.24-1.84.57-3.66.86-5.5.64-4.15,1.31-8.32,2.15-12.44a.09.09,0,0,1,.18,0c-.13,1.65-.29,3.31-.49,5s-.33,3.31-.52,5c-.4,3.27-.79,6.56-1.28,9.83-.19,1.25-.92,3.52.89,3.87,1.44.28,2.46-1.15,2.85-2.33a27,27,0,0,0,.87-4.54c.26-1.65.49-3.32.69-5,.43-3.63.92-7.24,1.43-10.86,0-.1.18-.07.18,0,0,3.71-.16,7.39-.57,11.09-.2,1.76-.42,3.53-.68,5.28a18.86,18.86,0,0,1-1.11,4.93,4,4,0,0,1-2.94,2.46H630a.13.13,0,0,1,.06.11c0,.58,0,1.18,0,1.76a16.76,16.76,0,0,1-.25,1.73,11.17,11.17,0,0,1-.41,1.73,7.71,7.71,0,0,1-.3.8,8.12,8.12,0,0,1-.45.74.1.1,0,0,1-.19-.06h0v-.34h0a2.91,2.91,0,0,1,0-.51,7.76,7.76,0,0,1,.15-.84c.11-.56.25-1.12.38-1.67s.25-1.12.38-1.67.31-1.14.43-1.71a.13.13,0,0,1,0-.06,2.59,2.59,0,0,1-2.55-1.52A4.45,4.45,0,0,1,627.16,247.81Z" style="fill:#263238"></path><path d="M615.53,266.4a32.51,32.51,0,0,1,3.71-2.55,37.64,37.64,0,0,1,4.23-2.31c2.86-1.31,5.82-2.23,8.78-3.27.09,0,.15.11.07.15-2.87,1.21-5.6,2.79-8.36,4.21-1.36.7-2.74,1.37-4.12,2s-2.77,1.4-4.19,2C615.54,266.64,615.45,266.47,615.53,266.4Z" style="fill:#263238"></path><path d="M592.48,241.7a24.77,24.77,0,0,0,6-.93c.91-.25,1.8-.56,2.68-.87a6.93,6.93,0,0,0,2.4-1.27c1.34-1.21,1.94-3.08,2.5-4.74a43.6,43.6,0,0,0,1.46-5.72c0-.1.16-.07.17,0a22.11,22.11,0,0,1-.69,6.48c-.45,1.79-1.07,3.79-2.49,5.07a10.12,10.12,0,0,1-5.47,2.13,25.27,25.27,0,0,1-6.56,0C592.35,241.9,592.34,241.7,592.48,241.7Z" style="fill:#263238"></path><path d="M577.26,425.38c2.34-.21,4.7-.23,7-.31s4.7-.14,7.05-.16c4.69-.05,9.39-.08,14.08,0,1.29,0,2.57,0,3.85.06s2.75.24,4.12.26a.09.09,0,0,1,0,.17c-1.15,0-2.3.23-3.45.28s-2.4.09-3.59.12l-7,.12c-4.7.05-9.4.09-14.09,0-2.65-.06-5.33,0-8-.25A.12.12,0,0,1,577.26,425.38Z" style="fill:#263238"></path><path d="M582,420.09h0a.49.49,0,0,1-.47-.5l5.83-154.9c-.12-.68-2.84-9.27-3.16-13.68-.33-4.66,4.12-22.95,4.31-23.72a.49.49,0,0,1,.59-.36.48.48,0,0,1,.35.59c0,.19-4.6,18.91-4.28,23.42s3.14,13.54,3.16,13.62-5.83,155.05-5.83,155.05A.5.5,0,0,1,582,420.09Z" style="fill:#263238"></path><path d="M572.61,160.63c1.35-2.22,2.76-4.41,3.94-6.74a39.32,39.32,0,0,0,2.81-7.27c.15-.55.29-1.11.42-1.66a46.86,46.86,0,0,1,1.7-9.23c2.07-6.16,5.85-11.36,12.73-11.78a13,13,0,0,1,6.06,1c4.45.55,8.8,2.47,11.05,6.49,1.79,3.2,2,7,2.72,10.51a83.47,83.47,0,0,0,3.46,11.32c1,2.64,2,5.28,2.83,8,.18.34.35.69.52,1a37.4,37.4,0,0,1,3.1,7.89,23.24,23.24,0,0,1-1.63,16,20.51,20.51,0,0,1-5.4,6.6s-.06,0,0,0a21.12,21.12,0,0,0,7.16-13.21,24.46,24.46,0,0,0-.37-8.78,34.16,34.16,0,0,0-2.66-7.26A43.64,43.64,0,0,1,623,174.51c.18,6.53-1.74,13.12-6.81,17.51a25.52,25.52,0,0,1-17.4,6.3c-7.26-.33-27.26-1.78-28.18-19.64-.28-5.49,1.18-10.68,3-15.42-.59,1.15-1.17,2.3-1.65,3.5a26.51,26.51,0,0,0-2,8.31,20,20,0,0,0,1.74,9.49c0,.06-.06.12-.09.06-2.63-4.86-2.35-10.89-.71-16a48.55,48.55,0,0,1,3.56-7.8c.28-.52.54-1,.8-1.59.67-1.56,1.33-3.07,1.94-4.51.33-.86.66-1.73,1-2.6s.56-1.55.81-2.34a16,16,0,0,0,.45-2c0-.25.08-.5.11-.76a38.5,38.5,0,0,1-1.82,5.26c-2.07,4.74-5.34,8.81-7.54,13.47a20.51,20.51,0,0,0-2.14,8.62.06.06,0,1,1-.12,0C567.67,169.41,570.11,164.76,572.61,160.63Z" style="fill:#263238"></path><path d="M643.62,207.2c.48,3.35-2.59,7.69-7.26,9.89l-21.92-18c3.87-.86,7.89-1.9,10.1-2.3C634.35,195,643.32,205.05,643.62,207.2Z" style="fill:#a6a6a6"></path><path d="M637.66,225.13l-8.33-20.94s4.53-7.1,0-14.14c-2.27-3.57-15-20.51-22.15-24.35-6.67-3.59-12.84.35-15.16,4.57C585.41,182.4,585,195.93,581,229.61Z" style="fill:#c7c7c7"></path><path d="M607,165.59l-11.63.95c.24-.18.49-.35.74-.51l10.09-.82A8.21,8.21,0,0,1,607,165.59Zm3.33,2.29-17.67,1.43-.31.47,18.46-1.5Zm3,2.75L591,172.45c-.08.15-.15.31-.22.47l23.07-1.87Zm2.71,2.79-26.5,2.15-.18.46,27.06-2.2Zm2.52,2.8-30.12,2.44c0,.15-.1.3-.14.46L619,176.63ZM621,179l-33.39,2.71c-.05.16-.09.31-.13.47l33.87-2.75C621.23,179.3,621.11,179.16,621,179Zm2.3,2.82-36.44,3c0,.15-.07.3-.1.45l36.87-3Zm2.2,2.83-39.26,3.18c0,.15-.06.3-.08.45l39.66-3.22Zm2.12,2.82-41.92,3.41c0,.15,0,.3-.07.45l42.3-3.43C627.81,187.78,627.71,187.64,627.61,187.49Zm1.95,2.85L585.22,194l-.06.44,44.64-3.62C629.73,190.63,629.64,190.48,629.56,190.34Zm1.28,2.9-46,3.74-.06.45L631,193.67A3.45,3.45,0,0,0,630.84,193.24Zm.5,3L584.4,200l-.06.45,47-3.82C631.36,196.49,631.35,196.35,631.34,196.2ZM584,203l-.06.46,47.08-3.82c0-.15.06-.3.09-.46Zm-.36,3c0,.15,0,.3,0,.45l46.44-3.77a4.89,4.89,0,0,0,.19-.46Zm46.12-.75-46.47,3.78c0,.14,0,.29-.05.44L630,205.76Zm1.15,2.91-48,3.9c0,.15,0,.3-.05.45l48.2-3.91Zm1.16,2.92-49.47,4c0,.15,0,.3,0,.45l49.69-4Zm1.16,2.9-51,4.14c0,.15,0,.3,0,.45l51.2-4.16Zm1.15,2.91-52.47,4.26-.06.45,52.71-4.28Zm1.16,2.91-54,4.39c0,.14,0,.29-.05.44l54.21-4.4Zm1.16,2.91-55.5,4.51c0,.15,0,.29-.05.44l55.72-4.52Z" style="fill:#a6a6a6"></path><path d="M621.77,202.55a33.79,33.79,0,0,0-5.9,2.18c-.94.48-1.86,1-2.78,1.57-.45.28-.91.53-1.37.79a5.21,5.21,0,0,1-1.52.61c-.05,0,0,.1,0,.1a9.58,9.58,0,0,0,1.5-.25,9.18,9.18,0,0,0,1.39-.56c1-.47,1.9-1,2.86-1.49,1.93-1,3.87-1.94,5.86-2.73C621.92,202.73,621.87,202.52,621.77,202.55Z" style="fill:#263238"></path><path d="M627.16,204.24a35,35,0,0,0-5.12.39,21.64,21.64,0,0,0-2.51.56l-1.19.35c-.43.14-.84.35-1.28.48,0,0,0,.11,0,.1.41-.11.84-.12,1.26-.19l1.26-.23c.85-.14,1.69-.28,2.53-.44,1.68-.31,3.36-.6,5.06-.84C627.28,204.41,627.25,204.24,627.16,204.24Z" style="fill:#263238"></path><path d="M596.44,165.89c.45,1,12,9.19,15.58,6.77.79-.54-4.16-7.09-4.16-7.09l.2-9.7-13.15-5S596.25,165.47,596.44,165.89Z" style="fill:#d3766a"></path><path d="M595.48,157a18.49,18.49,0,0,0,12.39,8l.19-9.16-13.15-5S595.17,153.63,595.48,157Z" style="fill:#263238"></path><path d="M616.82,138.89c5.59,14.88-2.69,19.91-5.91,21.11-2.91,1.09-13,4.44-20.07-9.79s-2-21.53,4.59-24.38S611.23,124,616.82,138.89Z" style="fill:#d3766a"></path><path d="M611.34,136.15a9.75,9.75,0,0,1-1.08.19,1.78,1.78,0,0,1-1.14,0,.57.57,0,0,1-.26-.64,1.4,1.4,0,0,1,1.17-.81,2,2,0,0,1,1.47.2A.6.6,0,0,1,611.34,136.15Z" style="fill:#263238"></path><path d="M601.36,140.23a8.93,8.93,0,0,0,.91-.6c.35-.24.66-.39.82-.8a.57.57,0,0,0-.25-.64,1.42,1.42,0,0,0-1.41.2,2.1,2.1,0,0,0-.94,1.15A.61.61,0,0,0,601.36,140.23Z" style="fill:#263238"></path><path d="M604.94,143.14s-.05.08,0,.12c.46,1,.81,2.19,0,2.9,0,0,0,.07,0,.05C606,145.59,605.53,144,604.94,143.14Z" style="fill:#263238"></path><path d="M603.61,142.47c-1.65.56-.42,3.83,1.11,3.32S605,142,603.61,142.47Z" style="fill:#263238"></path><path d="M603,142.89c-.22.29-.38.72-.71.88s-.81,0-1.2-.27c0,0,0,0,0,.06.23.63.71,1.18,1.42,1s.87-.87.79-1.56C603.29,142.9,603.12,142.77,603,142.89Z" style="fill:#263238"></path><path d="M610.84,140.61s.1,0,.11.06c.34,1,.9,2.15,1.95,2.15a0,0,0,0,1,0,.06C611.73,143.13,611,141.64,610.84,140.61Z" style="fill:#263238"></path><path d="M611.36,139.22c1.59-.73,2.92,2.5,1.44,3.17S610,139.82,611.36,139.22Z" style="fill:#263238"></path><path d="M612.12,139.15c.33.07.71.27,1,.17s.48-.58.57-1c0,0,0,0,.06,0,.27.62.33,1.34-.21,1.71s-1.11,0-1.51-.59C612,139.33,612,139.12,612.12,139.15Z" style="fill:#263238"></path><path d="M608.35,151.52c.32.17.66.44,1,.37a2.91,2.91,0,0,0,1.05-.57,0,0,0,0,1,.06,0,1.46,1.46,0,0,1-1.17.93,1.16,1.16,0,0,1-1.08-.7C608.23,151.54,608.3,151.49,608.35,151.52Z" style="fill:#263238"></path><path d="M611.34,146.15s.73,1.47,1,2.19c0,.07-.14.16-.38.25,0,0,0,0,0,0a3.63,3.63,0,0,1-3.77-.17c-.07-.05,0-.16.08-.13a5.47,5.47,0,0,0,3.44-.16c0-.22-1.33-2.46-1.22-2.51a6.89,6.89,0,0,1,1.77-.18c-1.43-3.09-3.34-5.92-4.71-9a.1.1,0,0,1,.17-.11,55.65,55.65,0,0,1,5.49,9.5C613.34,146.22,611.67,146.18,611.34,146.15Z" style="fill:#263238"></path><path d="M591.64,151.73c2.35-1.09,2.67-5.5,2.67-5.5s4.58-2.55,2.4-10a11.64,11.64,0,0,1,1,6.57s7.59-5.38,7.19-14c0,0,.58,4.19,0,6.13a10.78,10.78,0,0,0,3-6.51s3.73,3,5.42,3.43c0,0-8.76-18.31-22.6-3.56a11.68,11.68,0,0,0-5.82,11.4A16.65,16.65,0,0,0,591.64,151.73Z" style="fill:#263238"></path><path d="M594.08,150.14s-4.87-3.6-6.61-1.71,3,7.88,5.85,8a2.68,2.68,0,0,0,2.95-2.52Z" style="fill:#d3766a"></path><path d="M588.88,150.12s0,.06,0,.07c2,.12,3.46,1.43,4.68,2.91a1.47,1.47,0,0,0-2.23.32c0,.05,0,.1.08.08a1.65,1.65,0,0,1,1.91,0,8.1,8.1,0,0,1,1.29,1.12c.14.13.39-.05.27-.21l0,0C594.15,152.08,591.36,149.53,588.88,150.12Z" style="fill:#263238"></path><path d="M625.47,197.52s-8.73.89-13.17,2.78a31.16,31.16,0,0,0-11.64,9.2c-3.33,4.27-8.45,16.89-5.08,19,3.06,1.9,7.64-11.26,7.64-11.26s-6.88,12.65-2.78,14.27,8.55-14,8.55-14-6.78,13.16-2.28,14.16c3.4.76,8.22-13.13,8.22-13.13s-5.75,11.35-2.29,12.28c3.83,1,9.08-11.52,9.08-11.52,9.2.89,13.95-2.65,17-5.43C639.5,213.23,625.47,197.52,625.47,197.52Z" style="fill:#d3766a"></path><path d="M605.32,212.71c-.86,1.46-1.74,2.93-2.47,4.45s-1.41,3.09-2,4.68a28.35,28.35,0,0,0-1.69,6.4,62.84,62.84,0,0,1,4.1-10.89c.73-1.53,1.39-3.09,2.11-4.61A0,0,0,1,0,605.32,212.71Z" style="fill:#263238"></path><path d="M610.89,215.25c-1,1.9-2.1,3.76-3,5.71s-1.65,3.88-2.44,5.88c-.06.15,0,.13.11,0,.87-2,1.83-3.72,2.73-5.68s1.72-4,2.69-5.87A0,0,0,0,0,610.89,215.25Z" style="fill:#263238"></path><path d="M616.06,216.56a48.75,48.75,0,0,0-4,9.1c-.05.16.08.12.14,0,1.27-3,2.24-5.46,3.94-9C616.19,216.57,616.1,216.5,616.06,216.56Z" style="fill:#263238"></path><path d="M631.35,196c.56.8,10.41,9.95,11.11,14s-11.84-2.57-11.84-2.57Z" style="fill:#c7c7c7"></path><path d="M600.51,173.57c15.67,8.88,41.48,31.35,42.34,37.66.61,4.56.73,9.08-1,11.48-3.57,4.9-11.42,4.59-14.23,3-12.28-7.16-25.8-23.34-34.74-40.36C585,170.37,595.41,170.68,600.51,173.57Z" style="fill:#c7c7c7"></path><path d="M594.47,172l-4.42,4.09a4.55,4.55,0,0,1,.08-.67l3.61-3.35A5.65,5.65,0,0,1,594.47,172Zm3.29.42-7.36,6.82c0,.16.08.32.13.48l7.73-7.14Zm3,1.3-9.32,8.62c0,.14.12.28.19.43l9.53-8.82Zm2.68,1.6-10.66,9.86.06.12.15.28,10.83-10Zm2.59,1.66L594.27,187.9l.22.41,12-11.06Zm2.56,1.72-12.82,11.87c.07.13.15.26.23.39l13-12Zm2.5,1.77L597.36,193.2l.24.38,13.87-12.83Zm2.46,1.79L599,195.76c.08.13.16.26.25.38l14.69-13.59Zm2.42,1.84-15.32,14.18.26.37,15.41-14.27Zm2.39,1.87-16,14.79.26.36,16.08-14.87Zm2.37,1.89-16.56,15.32.26.36,16.65-15.4C621,188.06,620.86,188,620.75,187.87Zm2.32,1.92L606,205.58l.27.34,17.12-15.84Zm2.3,2L607.9,207.91l.29.34L625.71,192C625.6,191.94,625.49,191.84,625.37,191.75Zm2.27,2-17.79,16.47.29.33L628,194Zm2.23,2-18,16.68.29.32L630.19,196C630.09,195.93,630,195.84,629.87,195.74Zm2.2,2-18.16,16.81.31.31,18.16-16.81C632.28,198,632.17,197.89,632.07,197.78Zm2.14,2.09L616,216.7l.33.3,18.17-16.81ZM636.3,202l-18.06,16.71.34.29,18-16.68Zm2,2.2-17.8,16.47.35.28,17.74-16.42Zm1.91,2.31-17.32,16,.37.28,17.22-16ZM642,209l-16.53,15.3.38.24,16.37-15.14C642.11,209.29,642,209.15,642,209Zm1,3.14L628.1,225.92l.45.19L643,212.71Zm.28,3.82L631.66,226.7c.2,0,.41,0,.62,0l11-10.16C643.26,216.38,643.26,216.18,643.25,216Zm-6.62,10.2a7.49,7.49,0,0,0,1-.34h0l4.92-4.56a4.81,4.81,0,0,0,.26-.84Z" style="fill:#a6a6a6"></path><path d="M635.59,201.32c-7.69-6.88-16.82-14.41-24.76-21a113.87,113.87,0,0,1,24.76,21Z" style="fill:#263238"></path><path d="M595.47,190a122.69,122.69,0,0,0,18.81,24.11c1.8,1.81,3.66,3.56,5.56,5.25,3.71,3.25,7.86,6.74,13,6.67a16.81,16.81,0,0,0,7.29-1.72,13.61,13.61,0,0,1-7.28,2.58c-5.45.33-9.81-3.52-13.63-6.88-1.92-1.71-3.78-3.5-5.54-5.36A112.07,112.07,0,0,1,595.47,190Z" style="fill:#263238"></path><path d="M598.47,195.1a7.71,7.71,0,0,1-3.29-3.35,19.32,19.32,0,0,1,3.29,3.35Z" style="fill:#263238"></path><path d="M606.71,177.45c-3.46-2-10.92-7-14.68-4.23-3.23,3.31.87,11.41,2.44,15.06-2.39-3.78-7-11.88-3.09-15.81,4.42-3.31,11.85,2.15,15.33,5Z" style="opacity:0.1"></path></g><g id="freepik--character-4--inject-39"><path d="M435.22,464.29c2.18.7,64.11-.1,66.44-1.63.9-.57,1.31-9.6,1.49-20.53v-.34c0-2.25.07-4.57.08-6.92,0-.32,0-.64,0-1l-3-32.12-41.42.41L462.9,434l0,1.26.25,6.58,0,.68s-23.57,10.91-26,12.86S433.05,463.6,435.22,464.29Z" style="fill:#f7a9a0"></path><path d="M435.22,464.29c2.18.7,64.11-.1,66.44-1.63.9-.57,1.31-9.6,1.49-20.53v-.34c0-2.25.07-4.57.08-6.92,0-.32,0-.64,0-1L462.9,434l0,1.26.25,6.58,0,.68s-23.57,10.91-26,12.86S433.05,463.6,435.22,464.29Z" style="fill:#ebebeb"></path><path d="M435.22,464.28c1.12.36,17.94.33,34.39,0,3.3-.06,6.59-.14,9.73-.22,11.72-.33,21.42-.81,22.32-1.4s1.29-9.34,1.47-20.06c0-.15,0-.3,0-.46s0-.23,0-.35h0l-39.92.08,0,.68s-23.57,10.91-25.95,12.86S433.05,463.59,435.22,464.28Z" style="fill:#37474f"></path><path d="M435.89,461.88c10.44-.39,52.57-1,62.91-.58.09,0,.09.06,0,.06-10.33.62-52.46.87-62.9.69C435.68,462,435.67,461.89,435.89,461.88Z" style="fill:#263238"></path><path d="M458.75,442c4.1-.82,9.13-.26,12.3,2.63.13.11,0,.28-.17.24a58.57,58.57,0,0,0-12.11-2.36A.26.26,0,0,1,458.75,442Z" style="fill:#263238"></path><path d="M455.81,443.86c4.09-.82,9.13-.25,12.3,2.63.13.11,0,.29-.17.25a57.28,57.28,0,0,0-12.11-2.36A.26.26,0,0,1,455.81,443.86Z" style="fill:#263238"></path><path d="M452.86,445.69c4.1-.82,9.13-.26,12.31,2.63.12.11,0,.28-.17.24a58.7,58.7,0,0,0-12.11-2.36A.26.26,0,0,1,452.86,445.69Z" style="fill:#263238"></path><path d="M469.61,464.27c3.3-.06,6.59-.14,9.73-.22,11.72-.33,21.42-.81,22.32-1.4s1.29-9.34,1.47-20.06c0-.15,0-.3,0-.46s0-.23,0-.35h0C497.64,445.62,478.37,458.45,469.61,464.27Z" style="fill:#263238"></path><path d="M460.48,442h44.6s-9-104.17-8.63-106c.44-2.33,3.07-12.87,6.58-26.65,1.1-4.31,2.28-8.93,3.51-13.72,3.33-13,7-27.13,10.19-39.45,4.79-18.46,8.53-32.81,8.53-32.81h-37.8s-4.4,14-9.95,32.14c-9.05,29.53-21.14,70.17-22.33,80C453.25,351.52,460.48,442,460.48,442Z" style="fill:#263238"></path><path d="M462.45,434.39c6.81-.14,4.86-.2,11.67-.26,3.33,0,25.24-.22,28.35.29a.07.07,0,0,1,0,.14c-3.11.52-25,.33-28.35.29-6.81-.06-4.86-.12-11.67-.26A.1.1,0,0,1,462.45,434.39Z" style="fill:#37474f"></path><path d="M488.05,329.65c1.47-6.45,3.65-12.77,5.55-19.1q5.81-19.29,11.67-38.55,2.93-9.64,5.88-19.27,1.5-4.86,3-9.71c1-3.17,2.12-6.31,3-9.5.36-1.3.56-.58.1,1.07-.94,3.32-1.87,6.65-2.84,10q-2.88,9.85-5.8,19.7-5.81,19.61-11.7,39.17L491,323.06a79.6,79.6,0,0,0-2.41,9.5,43.65,43.65,0,0,0-.39,10.15c.43,6.83,1.22,13.64,1.85,20.45L492,383.63q1.89,20.36,3.74,40.73c.15,1.72.3,3.44.43,5.16.05.58-.36.65-.42.1-1.47-13.43-3.06-27-4.32-40.46s-2.51-26.76-3.76-40.14c-.31-3.35-.67-6.72-.67-10.1A41.93,41.93,0,0,1,488.05,329.65Z" style="fill:#37474f"></path><path d="M491.76,223.38c2.62,20.3,7.62,58.37,11.27,86,8.53-33.46,22.23-86,22.23-86Z" style="fill:#37474f"></path><path d="M482.47,464.88c2.17.71,64.1.14,66.44-1.38.9-.57,1.35-9.6,1.57-20.52v-.34c0-2.25.09-4.57.1-6.92,0-.33,0-.65,0-1,.14-15.77-1-32.13-1-32.13l-40.48.26,1.13,31.83.05,1.26.22,6.59,0,.68s-23.6,10.82-26,12.77S480.3,464.18,482.47,464.88Z" style="fill:#f7a9a0"></path><path d="M482.47,464.88c2.17.71,64.1.14,66.44-1.38.9-.57,1.35-9.6,1.57-20.52v-.34c0-2.25.09-4.57.1-6.92,0-.33,0-.65,0-1l-40.35,0,.05,1.26.22,6.59,0,.68s-23.6,10.82-26,12.77S480.3,464.18,482.47,464.88Z" style="fill:#ebebeb"></path><path d="M482.47,464.88c2.17.71,64.1.14,66.44-1.38.9-.57,1.35-9.6,1.57-20.52v-.34l-40-.08,0,.68s-23.6,10.82-26,12.77S480.3,464.18,482.47,464.88Z" style="fill:#37474f"></path><path d="M483.15,462.48c10.44-.36,52.57-.8,62.91-.36.09,0,.09.07,0,.07-10.33.58-52.47.68-62.91.46C482.93,462.64,482.93,462.48,483.15,462.48Z" style="fill:#263238"></path><path d="M506.08,442.72c4.1-.81,9.13-.22,12.29,2.67.13.12,0,.29-.17.25a57.26,57.26,0,0,0-12.1-2.4A.26.26,0,0,1,506.08,442.72Z" style="fill:#263238"></path><path d="M503.13,444.53c4.1-.8,9.13-.22,12.29,2.68.13.11,0,.28-.17.24a57.77,57.77,0,0,0-12.1-2.4A.26.26,0,0,1,503.13,444.53Z" style="fill:#263238"></path><path d="M500.18,446.35c4.1-.81,9.13-.22,12.3,2.67.12.12,0,.29-.18.25a57.14,57.14,0,0,0-12.1-2.4A.26.26,0,0,1,500.18,446.35Z" style="fill:#263238"></path><path d="M488.69,223.38s.87,18.09,5,32.41c.33,1.19.69,2.35,1.08,3.47a66.76,66.76,0,0,1,10.89,5.6s.44,14.55.87,30.78c.49,18.14,1,38.37.89,42.67-.38,16.05,2,104.35,2,104.35l44.6.18s-8.07-98.6-8-104.49c.09-9.45-2.16-51.24-3.89-81.72A240.51,240.51,0,0,0,538,223.38Z" style="fill:#263238"></path><path d="M511,434.72c6.81-.11,4.86-.17,11.67-.21,3.33,0,25.24-.12,28.35.41.07,0,.07.13,0,.14-3.11.5-25,.22-28.35.17-6.82-.09-4.86-.14-11.67-.31A.1.1,0,0,1,511,434.72Z" style="fill:#37474f"></path><path d="M536.45,229.84c.82,24.88,1.69,49.76,2.8,74.63s7,114.27,8.48,128.14c0,.1-.14.13-.15,0-3.25-24.68-5.06-61.21-6.65-86s-2.68-49.7-3.53-74.57c-.48-14.06-.84-28.13-1.26-42.2C536.13,229.63,536.44,229.65,536.45,229.84Z" style="fill:#37474f"></path><path d="M492.92,258.18a81.86,81.86,0,0,1,12.75,6.68c.16.1,0,.35-.13.26-4.3-2.09-8.7-4.1-12.88-6.43A.29.29,0,0,1,492.92,258.18Z" style="fill:#37474f"></path><path d="M492.67,242.84c.3,1.58.68,3.15,1,4.73s.55,3,.94,4.44a7.57,7.57,0,0,0,2.08,3.73c.58.54,1.21,1,1.83,1.51.34.27.7.52,1,.79l-.12-.63c-.1-.61-.2-1.21-.31-1.81-.22-1.33-.43-2.67-.64-4-.4-2.63-.77-5.29-1.32-7.89a.09.09,0,0,1,.17,0c.65,2.58,1.37,5.13,1.94,7.73.28,1.28,1.28,7.58,1.33,8s.08.92.1,1.38a6.13,6.13,0,0,1,0,1.42c0,.11-.17.09-.22,0h0a5.4,5.4,0,0,1-.4-1.37c-.12-.45-.22-.91-.3-1.36,0-.17-.05-.34-.08-.51-.62-.37-1.19-.87-1.77-1.29s-1.27-.9-1.86-1.39a7.15,7.15,0,0,1-2.26-3.54,25.63,25.63,0,0,1-.74-4.53c-.2-1.79-.35-3.59-.6-5.37C492.5,242.77,492.65,242.73,492.67,242.84Z" style="fill:#37474f"></path><path d="M494.19,166.9c0-.05.09,0,.08,0a5.31,5.31,0,0,0,2.36,5.36,9.06,9.06,0,0,0,6,1.35,18.62,18.62,0,0,0,6.24-1.82c1.77-.88,3.8-2.43,4-4.55,0-.1.17-.09.15,0a7.06,7.06,0,0,1-2.1,4.3,12,12,0,0,1-5.08,2.48c-3.54.95-8.15,1-10.63-2.15A5.55,5.55,0,0,1,494.19,166.9Z" style="fill:#263238"></path><path d="M479,244.29l63.6,2c.26-.4-9.41-69.63-32.79-81.23-5.16-2.56-13.19,0-14.31,1.48C486.12,178.7,479,244.29,479,244.29Z" style="fill:#455a64"></path><polygon points="502.29 179.31 499.76 174.25 495.45 178.63 496.5 182.44 500.46 182.89 502.29 179.31" style="fill:#263238"></polygon><polygon points="500.46 182.89 502.97 227.19 497.89 241.25 491.97 226.58 496.5 182.44 500.46 182.89" style="fill:#263238"></polygon><path d="M495.48,169.06c-1.53,4.8-7.37,21.64-10.37,33.65-2,8.06-2.57,14.76-3,16.54,0,0,18.46-7.17,22.69-7.43,6.53-.41,17.81,12.59,15.35,14.46-3.88,2.92-22.58,13.2-37.77,17-8.26,2.06-24.63-7.62-23.89-16.13,1-11.95,20.57-44.46,28.19-53.8C490.62,168.49,497.35,163.22,495.48,169.06Z" style="fill:#f7a9a0"></path><path d="M457.48,229.71c.9,8.51,12,15,18.22,15.06,10.71,0,42.18-11.23,42.18-11.23L504,210.3s-21.35,8.7-21.89,8.94h0c.15-.65,4.32-21.15,6.32-28,.1-.38.23-.76.35-1.17.58-1.89,1.38-4.39,2.27-7.1v0c.49-1.5,1-3.06,1.52-4.61h0c2.24-6.69,4.44-13.07,4.44-13.07-3.64.82-7.14,3-12.72,9.56S456,215.67,457.48,229.71Z" style="fill:#455a64"></path><path d="M509.27,228.85c-1-1.65-2-3.29-3-4.93s-2-3.21-3-4.81a55.42,55.42,0,0,1-2.95-5.05s0-.06.05,0a44,44,0,0,1,3.25,4.53q1.57,2.41,3.1,4.86c1,1.59,2,3.21,2.93,4.83a43.33,43.33,0,0,1,2.73,5.18c0,.07-.07.15-.12.08A51.94,51.94,0,0,1,509.27,228.85Z" style="fill:#263238"></path><path d="M472.71,244.35a13.87,13.87,0,0,0,5.42.17c17.18-2.82,39.25-11,39.75-11,.1,0,.09.18,0,.2-.77.15-24.59,9-37.28,11-4.24.67-6.4.36-7.92-.36C472.64,244.39,472.68,244.35,472.71,244.35Z" style="fill:#263238"></path><path d="M475.65,223.18l6.45-3.93h0c.15-.65,4.32-21.15,6.32-28,.1-.38.23-.76.35-1.17.58-1.89,1.38-4.39,2.27-7.1Z" style="opacity:0.1"></path><path d="M470.32,226.44a55,55,0,0,1,5.62-4.11c1-.62,2-1.21,3-1.74s2.25-1,3.33-1.57a.07.07,0,0,1,.07.13c-1,.53-2,1.24-2.93,1.85s-2,1.25-3,1.86c-2,1.19-4,2.44-6,3.66C470.33,226.55,470.28,226.47,470.32,226.44Z" style="fill:#263238"></path><path d="M476.57,221.69c1.67-.07,11.6-3.37,13.15-2.07,9.45,7.9,12.18,6,14.15,7,15.26,7.6,35.55,16.39,42.58,16,10.67-.55,14.38-9.75,12.1-18.1-4.5-16.5-29-47.74-39.7-55.78-5.68-4.26-4.84,2.62-2.16,10,1.58,4.32,4.27,10.74,7,17,2.42,5.6,8.78,19.91,8.9,20.25h0l0,0s0,.05-.12,0c-.47-.06-13.44-5.25-26.32-7.76-4.54-.88-13.94-2-17.19-.27-1.93,1-1.89,2.19-1.89,2.19a4.91,4.91,0,0,0-3.2,1.43,4.78,4.78,0,0,0-1.33,2.3,5.06,5.06,0,0,0-2.57,1.41,4.64,4.64,0,0,0-1,2.55C476.65,218.77,476.57,221.69,476.57,221.69Z" style="fill:#f7a9a0"></path><path d="M490.81,209.74a24.33,24.33,0,0,1,4,.21c.09,0,.1.15,0,.14-1.3-.06-2.62,0-3.92,0s-2.62.09-3.92.19a0,0,0,0,1,0,0A21.53,21.53,0,0,1,490.81,209.74Z" style="fill:#263238"></path><path d="M482.59,214a16,16,0,0,1,7-1.05.08.08,0,1,1,0,.15,27.14,27.14,0,0,0-7,1A0,0,0,0,1,482.59,214Z" style="fill:#263238"></path><path d="M479,217.93a15.77,15.77,0,0,1,6.59-1.65c.09,0,.13.12,0,.14A38.18,38.18,0,0,0,479,218C479,218.05,478.92,218,479,217.93Z" style="fill:#263238"></path><path d="M506.79,208.51a31.39,31.39,0,0,1,3.34.54c1.17.22,2.34.46,3.49.77a64.91,64.91,0,0,1,6.79,2.23c.09,0,.05.17,0,.14-2.25-.64-4.53-1.23-6.8-1.8-1.12-.28-2.23-.58-3.35-.88s-2.33-.5-3.45-.86A.07.07,0,0,1,506.79,208.51Z" style="fill:#263238"></path><path d="M515.75,210.38a12.34,12.34,0,0,0-3.43-.59L500.39,233s37.33,11,44.88,11.29a15,15,0,0,0,15.32-15.53C560,215.5,536.5,185,524.91,173.34c-5.32-5.34-11.37-9.08-12.79-8.07-1.68,1.2,1.91,8.09,3.9,13.28,3.68,9.57,16.46,37.61,16.46,37.61S518.59,211.15,515.75,210.38Z" style="fill:#455a64"></path><path d="M512.43,209.76c2.07,0,11.16,2.56,15.63,4.18a74.49,74.49,0,0,1,12.87,6c2.31,1.36,4.52,2.87,6.7,4.43.07,0,0,.17-.08.12a132.29,132.29,0,0,0-25.6-12c-2.55-.83-6.92-2-9.4-2.52C511.86,209.82,512.37,209.76,512.43,209.76Z" style="fill:#263238"></path><path d="M520,189.64c.61.87,1.22,1.73,1.76,2.64a.54.54,0,0,0,.07.13c-.84-2.11-1.64-4.22-2.41-6.35-.05-.13.17-.22.23-.09,3.62,7.76,7,15.64,10.32,23.54.93,2.21,1.76,4.45,2.61,6.69,0,.07-.09.12-.13.05-1-1.9-2-3.79-2.88-5.74s-1.76-3.9-2.62-5.86c-1.51-3.43-3-6.88-4.36-10.35-.41-.6-.82-1.2-1.21-1.81-.57-.89-1-1.83-1.54-2.76A.09.09,0,0,1,520,189.64Z" style="fill:#263238"></path><path d="M509,227.57l2.6-5.13q1.28-2.52,2.52-5.05c.87-1.74,1.7-3.52,2.73-5.17a0,0,0,0,1,.06,0,43.6,43.6,0,0,1-2.13,5.15c-.81,1.74-1.65,3.47-2.49,5.2s-1.68,3.37-2.55,5a44.74,44.74,0,0,1-3,5.05c0,.06-.17,0-.14-.06A52.8,52.8,0,0,1,509,227.57Z" style="fill:#263238"></path><path d="M499.86,233.06c1-2.23,2.56-4.47,3.7-6.61,0-.08.17,0,.12.08-1,2-2,4.16-2.94,6.19,5.14,1.77,10.58,3.3,15.81,4.81s10.76,3,16.21,4.22c3,.69,6.1,1.44,9.16,2.05.19,0,.15.2,0,.17a136.34,136.34,0,0,1-16.25-3.29c-5.46-1.38-10.86-3-16.23-4.62C506.37,235.13,499.78,233.25,499.86,233.06Z" style="fill:#263238"></path><path d="M498.46,173.39c1,.42,8.88-1,11.78-5,.19-.28.11-3.48.2-7.37.06-2.36.18-5,.47-7.38l-15.42,1.85a38.62,38.62,0,0,1,.35,9.35,5.52,5.52,0,0,1-.22,1,1.23,1.23,0,0,0,0,.16C495.05,167.77,496.41,172.55,498.46,173.39Z" style="fill:#f7a9a0"></path><path d="M495.62,165.79a1.23,1.23,0,0,0,0,.16c9.88,1.83,13.71-8.7,14.72-12.25l-14.81,1.78a38,38,0,0,1,.35,9.34A4.75,4.75,0,0,1,495.62,165.79Z" style="fill:#263238"></path><path d="M515.51,132.47c1.64,5.35-1.15,20.81-4.95,24.26-5.5,5-14.53,5.51-18.79-1.12-4.13-6.41-.13-26.5,4.11-29.64C502.13,121.34,513.08,124.57,515.51,132.47Z" style="fill:#f7a9a0"></path><path d="M502.36,142.05s.07.06.07.1c-.22,1-.29,2.26.59,2.77,0,0,0,.07,0,.06C501.88,144.62,502,143,502.36,142.05Z" style="fill:#263238"></path><path d="M503.48,141.12c1.7.17,1.24,3.55-.33,3.4S502.06,141,503.48,141.12Z" style="fill:#263238"></path><path d="M496.27,141.4c0-.05-.09,0-.1.08-.1,1.05-.41,2.24-1.4,2.46,0,0,0,.06,0,.06C496,144,496.33,142.41,496.27,141.4Z" style="fill:#263238"></path><path d="M495.48,140.17c-1.67-.35-2.26,3-.71,3.34S496.88,140.47,495.48,140.17Z" style="fill:#263238"></path><path d="M505,139.76a13.35,13.35,0,0,1-1.25-.64,2.35,2.35,0,0,1-1.15-.9.73.73,0,0,1,.23-.85,1.8,1.8,0,0,1,1.82.06,2.65,2.65,0,0,1,1.35,1.33A.77.77,0,0,1,505,139.76Z" style="fill:#263238"></path><path d="M494.4,138.29a10.77,10.77,0,0,0,1.39-.17,2.26,2.26,0,0,0,1.39-.44.72.72,0,0,0,.08-.88,1.79,1.79,0,0,0-1.72-.57,2.62,2.62,0,0,0-1.73.78A.77.77,0,0,0,494.4,138.29Z" style="fill:#263238"></path><path d="M502,151.91c-.28.21-.58.52-1,.5A2.79,2.79,0,0,1,500,152s-.06,0-.05,0a1.43,1.43,0,0,0,1.26.75,1.15,1.15,0,0,0,.95-.82C502.13,151.91,502.05,151.88,502,151.91Z" style="fill:#263238"></path><path d="M501.34,148.62a3.67,3.67,0,0,1-2.6,1.27,4.41,4.41,0,0,1-1.3-.12l-.24-.06-.22-.07a.25.25,0,0,1-.18-.26h0s0-.07,0-.1h0v-.09c.09-.81.33-2,.33-2-.31.11-1.91.58-1.83.16a54.31,54.31,0,0,1,2.85-10.62.1.1,0,0,1,.19.06c-.52,3.35-1.63,6.59-2.21,9.95a6.36,6.36,0,0,1,1.75-.28c.11.05-.51,2.34-.52,2.71a0,0,0,0,0,0,0,5,5,0,0,0,3.85-.65C501.34,148.47,501.41,148.55,501.34,148.62Z" style="fill:#263238"></path><path d="M515.68,144.07c-3.94.38-6.13-4.27-5.31-8.08,0,0-10.45,1.67-11.18-6.74a9.57,9.57,0,0,1-7.17,4.13l-.64,3c-1.08-.28-2.31-3.31.26-5.78a10,10,0,0,1,3.1-6.8,5.73,5.73,0,0,1,6.14-1,8.7,8.7,0,0,1,6.29-1.73,7.39,7.39,0,0,1,5.56,3.87s5.23.86,6.21,4.53a7.67,7.67,0,0,1-.86,6.19s1.34,1.41.77,4.58C518.48,142.22,516.86,144,515.68,144.07Z" style="fill:#263238"></path><path d="M499.4,128.5a9.45,9.45,0,0,0,0,2.06,7.87,7.87,0,0,0,.43,2,5.36,5.36,0,0,0,2.51,3,8.56,8.56,0,0,0,3.89.86c.68,0,1.37,0,2.05-.1s1.36-.2,2.05-.27c-.66.18-1.34.33-2,.5s-1.39.16-2.08.25a8.48,8.48,0,0,1-4.13-.82,5.52,5.52,0,0,1-2.63-3.27A8.35,8.35,0,0,1,499.4,128.5Z" style="fill:#263238"></path><path d="M494.13,133.51a10.66,10.66,0,0,0,3.13-1.8,6.49,6.49,0,0,0,1.2-1.31,8.26,8.26,0,0,0,.84-1.62,4.6,4.6,0,0,1-.52,1.81,5,5,0,0,1-1.2,1.49,5.93,5.93,0,0,1-1.63,1A5.51,5.51,0,0,1,494.13,133.51Z" style="fill:#263238"></path><path d="M512.23,145.07s3.59-4.93,5.83-3.64-.51,8.48-3.19,9.42a2.71,2.71,0,0,1-3.6-1.52Z" style="fill:#f7a9a0"></path><path d="M517.22,143.47a0,0,0,0,1,0,.07c-1.88.72-2.89,2.44-3.61,4.22a1.49,1.49,0,0,1,2.24-.37s0,.11-.05.1A1.64,1.64,0,0,0,514,148a7.59,7.59,0,0,0-.91,1.46c-.09.17-.39.07-.32-.12l0,0C512.75,147,514.66,143.66,517.22,143.47Z" style="fill:#263238"></path><path d="M495.91,164.31l3.54,8.92L510.55,162l3.12,3.63s-10.9,17.83-11,17L499.08,175l-5.32,5.31.49-13.39Z" style="fill:#455a64"></path><path d="M493.63,173.67c.15-2.21.25-4.44.5-6.64,0-.08.13-.11.15,0,.44,2.14-.2,10.58-.2,12.6l0,0c.23-.23,4.93-4.67,5-4.6.79,1.22,3.45,6.82,3.63,7.32,1.73-2.83,9-14,11.07-16.67.06-.08.18,0,.13.07-1.52,3-11,17.73-11.1,17.69a88.21,88.21,0,0,1-3.8-8.12c-.79,1-5.54,6-5.56,5.66A67.81,67.81,0,0,1,493.63,173.67Z" style="fill:#263238"></path><path d="M506.84,208.53a166.64,166.64,0,0,1,17.53,4.65l.25.08c3,1,4.86,1.72,5.3,1.76A.47.47,0,0,0,530,215h0a3.81,3.81,0,0,1,.87-.55c.81-.35,8.68-1.81,8.34-4.25s-3.56-2.08-4-2c.51-.14,4.76-1.4,3.23-3.47-1.08-1.47-5.33-1-5.76-.95.42-.16,4.3-1.69,2.81-3.8-1.06-1.52-5.81-1-6.36-.9.44-.2,3.93-1,2.17-2.79-1.22-1.25-10.1.62-14,2.84C511.55,202.37,506.84,208.53,506.84,208.53Z" style="fill:#f7a9a0"></path><path d="M524.37,213.18l.25.08a28.65,28.65,0,0,1,10.41-5c.25,0,.26-.19,0-.16A19.69,19.69,0,0,0,524.37,213.18Z" style="fill:#263238"></path><path d="M532.46,203.89c-5.58,1.45-8.05,2.85-12.73,6.22-.06,0-.14-.05-.08-.1,4.32-3.66,7-5.5,12.76-6.26C532.66,203.71,532.72,203.82,532.46,203.89Z" style="fill:#263238"></path><path d="M528.94,199.13c-5.33,1.76-8.11,3.18-12.27,7-.1.09-.23,0-.14-.13a20.28,20.28,0,0,1,12.35-7C529.22,198.92,529.27,199,528.94,199.13Z" style="fill:#263238"></path></g><g id="freepik--character-3--inject-39"><path d="M369.34,125.07c-1.08.1-5.78-.57-9,3.63-3.09,4-4.47,16.27-5.18,18.94s-4.24,3-5.16,6.08c-.79,2.66,1.14,3.7,1.29,5.68.11,1.53-1.49,3.77-.16,6.07,1.21,2.09,3.45,1.72,4.78,2.4s2.08,3.82,4.55,4.72,4.73-1.3,6.05-1.25,2.78,4.15,7.1,3.91,5.67-3.85,7.47-4.52,6.24.69,8.34-1.48,2.54-5.13,3.49-6.2,2.86-.84,4.07-3.34-1.09-4.17-1.36-6.37c-.19-1.54,1.2-2.91.31-5.27-1.22-3.25-5.17-2.67-6.58-6-1.11-2.62-3.23-13.93-9.95-16.89C374.72,123.13,369.34,125.07,369.34,125.07Z" style="fill:#263238"></path><path d="M355.27,147a3.88,3.88,0,0,1-1.19,1.42l-1.44,1.17a11.46,11.46,0,0,0-2.55,2.56,3.7,3.7,0,0,0-.51,3.26,5.64,5.64,0,0,0,.86,1.52,6.47,6.47,0,0,1,1,1.67,3.16,3.16,0,0,1-.23,2c-.22.59-.45,1.16-.64,1.73a4.4,4.4,0,0,0,0,3.38,2.55,2.55,0,0,0,1.15,1.19,4.63,4.63,0,0,0,1.71.42c.61.06,1.22.06,1.84.09a3.17,3.17,0,0,1,1.79.45,3.4,3.4,0,0,0-1.79-.27c-.61,0-1.23.09-1.86.08a5.18,5.18,0,0,1-1.88-.36,3,3,0,0,1-1.44-1.35,4.72,4.72,0,0,1-.15-3.82c.18-.61.42-1.19.61-1.76a2.55,2.55,0,0,0,.2-1.59c-.35-1-1.43-1.91-1.82-3.2a4.15,4.15,0,0,1,.67-3.77,12.15,12.15,0,0,1,2.79-2.53l1.53-1A4.18,4.18,0,0,0,355.27,147Z" style="fill:#263238"></path><path d="M385.47,131.69a52.87,52.87,0,0,1,2.67,6.08c.44,1,.84,2,1.34,3a8.15,8.15,0,0,0,.85,1.33,1.18,1.18,0,0,0,.25.25,1.45,1.45,0,0,0,.29.2c.23.13.47.24.72.36a30.81,30.81,0,0,1,3,1.49,5.68,5.68,0,0,1,2.37,2.5,3.45,3.45,0,0,1,.29,1.74,4.26,4.26,0,0,1-.55,1.63,7.12,7.12,0,0,0-1.11,3.07,6.71,6.71,0,0,1,.8-3.22,4.22,4.22,0,0,0,.42-1.52,3,3,0,0,0-.35-1.47,5.5,5.5,0,0,0-2.2-2.18,31.07,31.07,0,0,0-3-1.4c-.26-.13-.51-.25-.76-.4a2.34,2.34,0,0,1-.71-.62,7.14,7.14,0,0,1-.91-1.47,26.65,26.65,0,0,1-1.28-3.1l-1.05-3.15A31.25,31.25,0,0,0,385.47,131.69Z" style="fill:#263238"></path><path d="M393.94,162.33a5.78,5.78,0,0,0-.77,2.2c-.19.77-.38,1.55-.6,2.32a11.74,11.74,0,0,1-.9,2.25A5.16,5.16,0,0,1,390,171a6.6,6.6,0,0,1-4.86.43c-.78-.16-1.55-.37-2.32-.52a4.92,4.92,0,0,0-2.32-.05,4.67,4.67,0,0,1,2.37-.29c.8.08,1.58.23,2.36.33a6.7,6.7,0,0,0,4.39-.5,4.67,4.67,0,0,0,1.43-1.64,14.45,14.45,0,0,0,1-2.11c.29-.73.53-1.48.79-2.23.14-.38.28-.75.44-1.12A2.31,2.31,0,0,1,393.94,162.33Z" style="fill:#263238"></path><path d="M381,171.42c8,11.14,30,60,31.79,63.35,2.36,4.43-21.43,11.48-22.72,8.28-.84-2.09-17.18-55.79-17.17-68.4C372.94,163.39,378,167.15,381,171.42Z" style="fill:#ad6359"></path><path d="M398.76,251.77c-1.06-1-1.6-.48-1.26,2.11s3.91,12.56.32,13.51-8.4-13.19-8.64-17.55a69.85,69.85,0,0,1,.89-11.5C391.56,240.91,395.77,246.78,398.76,251.77Z" style="fill:#ad6359"></path><path d="M409.75,229.24c4.2,7.44,9.56,16.58,9.16,26a4.66,4.66,0,0,1-1,2.87c-.11,4.22-2.13,5.44-2.13,5.44-1.3,3.91-3.55,4.87-3.55,4.87s-.17,5-3.18,5.35c-3.38.45-2.48-6.6-4.35-10.78-4.29-9.59-13.07-22-14.59-24.65Z" style="fill:#ad6359"></path><path d="M407.22,249.78a66.32,66.32,0,0,1,3.28,8.61,66.89,66.89,0,0,1,1.61,10,.08.08,0,0,0,.16,0,35.73,35.73,0,0,0-4.92-18.61C407.27,249.6,407.16,249.64,407.22,249.78Z" style="fill:#263238"></path><path d="M412.63,246.35c1,2.84,2.78,7.83,3,17.21a0,0,0,0,0,.05,0,32,32,0,0,0-2.93-17.26C412.68,246.13,412.56,246.16,412.63,246.35Z" style="fill:#263238"></path><path d="M415.57,244.56a50.29,50.29,0,0,1,2.27,13.53s.06,0,.06,0c.23-6.14-.39-8.39-2.17-13.6C415.67,244.31,415.51,244.37,415.57,244.56Z" style="fill:#263238"></path><path d="M444.33,464.86c-2.17.68-65.65-.69-68-2.24-.89-.57,4.55-60.7,4.55-60.7l40.26.77-4.58,40.22S440,454,442.38,456,446.5,464.19,444.33,464.86Z" style="fill:#ad6359"></path><path d="M444.33,464.86c-2.17.68-65.65-.7-68-2.24-.28-.18-.36-6.28.65-14.23,11.51,1.93,52.59,8.23,55.79,6.35,2.23-1.31.26-3.36-1.57-4.74,5.25,2.62,10.14,5.13,11.15,6C444.74,457.94,446.5,464.19,444.33,464.86Z" style="fill:#407BFF"></path><path d="M409.77,464.56c-16.22-.46-32.26-1.18-33.41-1.94-.28-.17-.36-6.28.65-14.23,2.74.46,7.15,1.16,12.34,1.95Z" style="opacity:0.1"></path><path d="M417.72,433.27l-39.52-.56s7.83-94.66,7.5-96.48C385.29,333.9,357.25,224,357.25,224H395s29.74,102.48,30.81,112.35C427.51,352.25,417.72,433.27,417.72,433.27Z" style="fill:#407BFF"></path><path d="M417.72,433.27l-39.52-.56s7.83-94.66,7.5-96.48C385.29,333.9,357.25,224,357.25,224H395s29.74,102.48,30.81,112.35C427.51,352.25,417.72,433.27,417.72,433.27Z" style="opacity:0.4"></path><path d="M381.75,423.79c2.34-.17,4.7-.14,7-.17s4.69,0,7,0c4.69,0,9.37.12,14.06.25,1.28,0,2.56.08,3.84.14s2.74.29,4.11.34a.09.09,0,0,1,0,.17c-1.15,0-2.3.18-3.45.22s-2.39,0-3.58,0c-2.35,0-4.69,0-7,0-4.68,0-9.37-.1-14.05-.29-2.65-.11-5.32-.15-7.95-.41A.12.12,0,0,1,381.75,423.79Z" style="fill:#263238"></path><path d="M365.54,232.83c3.38,11.95,6.46,24,9.49,36s6,24.11,9,36.17q2.26,9,4.5,18.09c1.46,5.87,3.16,11.77,3.52,17.83s-.41,12.39-.93,18.53-1,12.34-1.58,18.51c-1.08,12.34-2.12,24.7-3.46,37-.17,1.54-.34,3.08-.49,4.63,0,.13-.22.12-.21,0,.82-12.35,1.67-24.7,2.65-37q.75-9.25,1.51-18.51c.51-6.16,1.23-12.34,1.42-18.52a65.74,65.74,0,0,0-2.45-18.23q-2.21-8.85-4.43-17.7-4.53-18.07-9-36.17c-3.35-13.5-6.69-27-9.65-40.62A.06.06,0,0,1,365.54,232.83Z" style="fill:#263238"></path><path d="M357.24,224s12,47.17,20.45,80.38L393.74,224Z" style="opacity:0.1"></path><path d="M396.93,465c-2.18.68-65.66-.7-68-2.24-.9-.58,2.42-60.74,2.42-60.74l39.73.77-1.93,40.26s23.42,11.09,25.8,13.06S399.1,464.34,396.93,465Z" style="fill:#ad6359"></path><path d="M396.93,465c-2.17.67-65.66-.7-68-2.25-.28-.17-.22-6.12,0-14.23,11.51,1.93,53.24,8.24,56.44,6.36,2.23-1.31.26-3.36-1.57-4.74,5.24,2.61,10.14,5.13,11.15,6C397.33,458.09,399.1,464.34,396.93,465Z" style="fill:#407BFF"></path><path d="M393.75,223.94s-1.1,18-5.41,32.27c-.35,1.18-.72,2.34-1.12,3.45a67.56,67.56,0,0,0-10.94,5.45s-2.72,69-2.67,73.27c.18,16-3.92,94.09-3.92,94.09l-39.85-.37S334,343.82,334,338c0-5.68,2.71-41.5,5.11-72.56,0,0-3.54-9.92-3.15-14.93.95-12.15,6.4-26.51,6.4-26.51Z" style="fill:#407BFF"></path><path d="M393.75,223.94s-1.1,18-5.41,32.27c-.35,1.18-.72,2.34-1.12,3.45a67.56,67.56,0,0,0-10.94,5.45s-2.72,69-2.67,73.27c.18,16-3.92,94.09-3.92,94.09l-39.85-.37S334,343.82,334,338c0-5.68,2.71-41.5,5.11-72.56,0,0-3.54-9.92-3.15-14.93.95-12.15,6.4-26.51,6.4-26.51Z" style="opacity:0.4"></path><path d="M385,248.16l.45-3c.29-1.83.66-3.65,1-5.47.73-4.13,1.48-8.28,2.4-12.38,0-.1.19-.07.18,0-.16,1.66-.35,3.31-.59,5s-.39,3.31-.63,4.95c-.46,3.27-.91,6.54-1.47,9.79-.21,1.25-1,3.5.81,3.88,1.43.31,2.47-1.09,2.89-2.27a26.5,26.5,0,0,0,1-4.5c.3-1.65.56-3.31.79-5,.51-3.62,1.07-7.21,1.66-10.81,0-.1.18-.07.17,0a110.48,110.48,0,0,1-.79,11.06c-.24,1.75-.5,3.51-.8,5.25a18.6,18.6,0,0,1-1.2,4.9,4,4,0,0,1-3,2.4h-.08a.12.12,0,0,1,.05.1c0,.59,0,1.18-.07,1.76s-.17,1.16-.28,1.73a12.65,12.65,0,0,1-.45,1.71,6.86,6.86,0,0,1-.32.79c-.13.27-.31.48-.46.73a.11.11,0,0,1-.2-.06h0c0-.1,0-.19,0-.29v-.05h0a4.36,4.36,0,0,1,0-.51c0-.28.11-.56.17-.84.12-.55.27-1.11.42-1.66s.27-1.1.41-1.66.33-1.12.47-1.69c0,0,0,0,0-.06a2.58,2.58,0,0,1-2.51-1.57A4.56,4.56,0,0,1,385,248.16Z" style="fill:#263238"></path><path d="M373.05,266.48A33.23,33.23,0,0,1,376.8,264a36.06,36.06,0,0,1,4.28-2.21c2.88-1.26,5.85-2.11,8.83-3.09.09,0,.14.11.06.15-2.88,1.15-5.65,2.67-8.43,4-1.37.67-2.76,1.31-4.15,1.92s-2.79,1.34-4.23,1.87C373.05,266.72,373,266.55,373.05,266.48Z" style="fill:#263238"></path><path d="M350.55,241.36a24.86,24.86,0,0,0,6-.81c.91-.23,1.8-.52,2.69-.82a6.8,6.8,0,0,0,2.42-1.21c1.37-1.18,2-3,2.6-4.68a44.64,44.64,0,0,0,1.57-5.68c0-.1.16-.07.16,0a21.92,21.92,0,0,1-.81,6.45c-.49,1.78-1.15,3.77-2.59,5a10.16,10.16,0,0,1-5.51,2,25.13,25.13,0,0,1-6.54-.09A.11.11,0,1,1,350.55,241.36Z" style="fill:#263238"></path><path d="M331.6,424.37c2.33-.17,4.7-.14,7-.17s4.68,0,7,0c4.69,0,9.37.11,14.06.25,1.28,0,2.56.07,3.84.13s2.74.3,4.1.35a.09.09,0,0,1,0,.17c-1.15,0-2.3.18-3.45.21s-2.39,0-3.59,0c-2.34,0-4.69,0-7,0-4.68,0-9.37-.11-14.06-.3-2.64-.11-5.31-.14-8-.41A.12.12,0,0,1,331.6,424.37Z" style="fill:#263238"></path><path d="M336.46,419.18h0a.48.48,0,0,1-.46-.51l9-154.48c-.11-.67-2.65-9.3-2.87-13.71-.24-4.66,4.58-22.82,4.78-23.59a.49.49,0,0,1,.94.25c-.05.19-5,18.78-4.75,23.29s2.86,13.58,2.87,13.65-9,154.64-9,154.64A.49.49,0,0,1,336.46,419.18Z" style="fill:#263238"></path><path d="M395.54,224.41l-5-21.87s5.22-6.32,1.72-13.66c-1.76-3.71-11.92-19.9-18.33-24.45-6-4.27-13.43,0-16.16,3.77C349.92,179.13,344.62,201,341.15,225Z" style="fill:#407BFF"></path><path d="M381.34,199.83a56.77,56.77,0,0,0-8.09,1.5c-1.32.36-2.61.79-3.9,1.24-.64.23-1.28.43-1.93.63a8.74,8.74,0,0,1-2.09.44c-.06,0-.05.09,0,.09a11.56,11.56,0,0,0,3.92-.47c1.34-.36,2.66-.78,4-1.15,2.69-.75,5.38-1.5,8.12-2.05A.12.12,0,0,0,381.34,199.83Z" style="fill:#263238"></path><path d="M388.15,202.12a61.59,61.59,0,0,0-6.79-.19c-1.14,0-2.26.14-3.38.27-.54.06-1.08.13-1.61.21s-1.17.26-1.76.33c-.06,0-.06.11,0,.1.56-.06,1.13,0,1.69,0l1.69-.08,3.39-.15c2.26-.12,4.51-.22,6.77-.26A.1.1,0,0,0,388.15,202.12Z" style="fill:#263238"></path><path d="M374.7,165.13c.71,0,3.49,2.84,3.79,3.62s7.57,40.53,6.82,45-14.9,43-14.9,43l-5.13-2.28s14.72-39,15.19-40.44S375.14,168,375,166.84,374.7,165.13,374.7,165.13Z" style="fill:#407BFF"></path><path d="M374.7,165.13c.71,0,3.49,2.84,3.79,3.62s7.57,40.53,6.82,45-14.9,43-14.9,43l-5.13-2.28s14.72-39,15.19-40.44S375.14,168,375,166.84,374.7,165.13,374.7,165.13Z" style="opacity:0.2"></path><path d="M361.06,165.16c-.58-.41-3.76,1.45-4.45,1.93s-20.14,29.4-22.07,33.54-18.41,43-18.41,43l5.52,1s16.28-39.59,16.7-41,20.75-36.36,21.53-37.18S361.06,165.16,361.06,165.16Z" style="fill:#407BFF"></path><path d="M361.06,165.16c-.58-.41-3.76,1.45-4.45,1.93s-20.14,29.4-22.07,33.54-18.41,43-18.41,43l5.52,1s16.28-39.59,16.7-41,20.75-36.36,21.53-37.18S361.06,165.16,361.06,165.16Z" style="opacity:0.2"></path><rect x="321.7" y="238.99" width="35.07" height="55.65" transform="translate(15.17 551.87) rotate(-79.52)" style="fill:#407BFF"></rect><rect x="321.7" y="238.99" width="35.07" height="55.65" transform="translate(15.17 551.87) rotate(-79.52)" style="opacity:0.1"></rect><rect x="332.67" y="229.87" width="16.51" height="55.65" transform="translate(25.52 546.06) rotate(-79.52)" style="opacity:0.1"></rect><rect x="312.73" y="244.37" width="58.28" height="16.37" transform="translate(51.64 -57.97) rotate(10.48)" style="fill:#407BFF"></rect><rect x="312.73" y="244.37" width="58.28" height="16.37" transform="translate(51.64 -57.97) rotate(10.48)" style="opacity:0.1"></rect><polygon points="352.43 240.14 351.35 245.99 348.71 245.5 349.32 242.17 339.25 240.31 338.63 243.63 335.99 243.15 337.07 237.3 352.43 240.14" style="fill:#263238"></polygon><rect x="319.56" y="253.19" width="3.8" height="7.82" transform="translate(52.12 -54.18) rotate(10.48)" style="fill:#263238"></rect><rect x="357.41" y="260.19" width="3.8" height="7.82" transform="translate(54.03 -60.94) rotate(10.48)" style="fill:#263238"></rect><path d="M361.12,165.3c5.48,1,.45,32.12-10.19,31.45S354.47,164.13,361.12,165.3Z" style="fill:#ad6359"></path><path d="M356.44,167.44c-18.36,14.42-35.44,40.12-35.57,54.05-.13,13.76,4.66,12.42,6,12.33,8.31-.54,26.93-39.61,32.88-55.21S361,163.87,356.44,167.44Z" style="fill:#ad6359"></path><path d="M351.9,196.72a138.48,138.48,0,0,1,6.77-15.2,138.48,138.48,0,0,1-6.77,15.2Z" style="fill:#263238"></path><path d="M358.67,183.82a4.27,4.27,0,0,1-2.18,2.59,9.07,9.07,0,0,1,2.18-2.59Z" style="fill:#263238"></path><path d="M324.46,233.76c5.39,3.09,14.29,1.53,38.16-4.46,3.3-.83,3.72-25.72.15-25-4.5.89-21.78,5.31-23,5.79C329.46,214.14,320.81,231.66,324.46,233.76Z" style="fill:#ad6359"></path><path d="M353.55,208.13s8.23-5.24,13.4-6.65a34.45,34.45,0,0,1,16.5,0c5.85,1.42,19,8.91,17.53,13.07-1.36,3.78-14.43-4.55-14.43-4.55s14.73,6.29,12.27,10.54-17.09-6.29-17.09-6.29,15,6.8,11.76,10.78c-2.45,3-16.23-5.79-16.23-5.79s12.84,5.94,10.46,9.13c-2.63,3.54-15.86-3.78-15.86-3.78-7.41,7.1-13.85,7.46-18.46,7.16C352.28,231.68,353.55,208.13,353.55,208.13Z" style="fill:#ad6359"></path><path d="M381.6,207.49c1.75.68,3.54,1.35,5.23,2.18s3.35,1.73,5,2.71a31.69,31.69,0,0,1,5.88,4.42,69.27,69.27,0,0,0-11.09-6.67c-1.68-.83-3.33-1.74-5-2.57C381.52,207.54,381.56,207.48,381.6,207.49Z" style="fill:#263238"></path><path d="M378.49,213.55c2.2,1,4.43,1.83,6.59,2.89s4.11,2.24,6.18,3.44c.16.09.06.15-.1.06-2.12-1.11-4.17-2-6.31-3.07s-4.22-2.27-6.39-3.27A0,0,0,1,1,378.49,213.55Z" style="fill:#263238"></path><path d="M374.88,218.26a53.94,53.94,0,0,1,9.75,5.19c.16.1,0,.16-.15.07-3.21-1.79-5.71-3.22-9.64-5.14C374.78,218.35,374.81,218.23,374.88,218.26Z" style="fill:#263238"></path><path d="M328.32,220.63a29.34,29.34,0,0,1,9.12-9.46c6.22-2.94,14.48-4.39,21.12-6.24a29.36,29.36,0,0,1,26.91-2.9c4.45,1.48,16.74,6.81,16,12.45-.78,2.5-5,.7-6.63,0l.19-.36c1.7,1.3,5.5,4.12,4,6.52a2.43,2.43,0,0,1-1.81,1c-2.06.14-4-.81-5.78-1.76a15.18,15.18,0,0,0,3.77,1.46c1.84.56,4.73-.16,3.71-2.61s-3.66-3.85-5.75-5.33l1.79.74c1.35.53,5.38,2.15,6,.21.53-5.09-11.52-10.33-15.67-11.65-6.56-2.27-13.73-2.8-20.25-.22a32.42,32.42,0,0,0-6.28,3.09l-8.55,2.09a68.36,68.36,0,0,0-12.57,3.83,29.23,29.23,0,0,0-9.28,9.14Z" style="fill:#263238"></path><path d="M363.7,164.56c.24,1,7.55,9,12,7.29,1.64-.65-.77-7.29-.77-7.29l2-9.24-11.61-7.27S363.6,164.12,363.7,164.56Z" style="fill:#ad6359"></path><path d="M364.69,154.05A18,18,0,0,0,375,164l1.9-8.72-11.61-7.27Z" style="fill:#263238"></path><path d="M388.48,140.75c2.54,15.26-6.31,18.51-9.61,19.06-3,.49-13.23,1.79-17.33-13.13s2.18-20.93,9-22.42S385.94,125.48,388.48,140.75Z" style="fill:#ad6359"></path><path d="M384.25,137.42c-.37,0-.71,0-1.07,0a1.79,1.79,0,0,1-1.09-.24.56.56,0,0,1-.12-.66,1.37,1.37,0,0,1,1.27-.56,2,2,0,0,1,1.37.48A.59.59,0,0,1,384.25,137.42Z" style="fill:#263238"></path><path d="M373.94,139.44a8.59,8.59,0,0,0,1-.41,1.63,1.63,0,0,0,.93-.6.54.54,0,0,0-.12-.66,1.34,1.34,0,0,0-1.38-.07,2,2,0,0,0-1.11.92A.59.59,0,0,0,373.94,139.44Z" style="fill:#263238"></path><path d="M376.82,142.89s-.07.07-.06.11c.25,1,.36,2.24-.5,2.78a0,0,0,1,0,0,.05C377.38,145.44,377.22,143.82,376.82,142.89Z" style="fill:#263238"></path><path d="M375.68,142c-1.69.22-1.13,3.58.43,3.38S377.09,141.82,375.68,142Z" style="fill:#263238"></path><path d="M375.05,142.29c-.26.24-.49.62-.84.72s-.77-.2-1.09-.49c0,0-.06,0-.06,0,.1.64.46,1.26,1.16,1.24s1-.66,1.06-1.33C375.29,142.35,375.15,142.19,375.05,142.29Z" style="fill:#263238"></path><path d="M382.93,141.58s.09,0,.09.08c.14,1.05.46,2.22,1.46,2.42,0,0,0,.06,0,.06C383.31,144.16,382.89,142.59,382.93,141.58Z" style="fill:#263238"></path><path d="M383.69,140.35c1.65-.4,2.31,2.94.78,3.3S382.3,140.67,383.69,140.35Z" style="fill:#263238"></path><path d="M384.43,140.43c.3.12.62.39.94.35s.57-.46.73-.86c0,0,0,0,.06,0,.15.63.07,1.34-.52,1.58s-1.06-.24-1.34-.84C384.25,140.57,384.31,140.38,384.43,140.43Z" style="fill:#263238"></path><path d="M378.5,151.53c.27.23.55.55.93.55a2.71,2.71,0,0,0,1.11-.34s.07,0,0,0a1.44,1.44,0,0,1-1.29.67,1.12,1.12,0,0,1-.89-.87A.06.06,0,0,1,378.5,151.53Z" style="fill:#263238"></path><path d="M382.37,147s.42,1.53.52,2.27c0,.07-.17.13-.42.17h0a3.55,3.55,0,0,1-3.57-.86.08.08,0,0,1,.1-.12,5.38,5.38,0,0,0,3.32.5c0-.21-.81-2.6-.7-2.63a6.3,6.3,0,0,1,1.73.16c-.79-3.22-2.08-6.28-2.81-9.5a.1.1,0,0,1,.19-.07,53.53,53.53,0,0,1,3.45,10.1C384.27,147.41,382.68,147.06,382.37,147Z" style="fill:#263238"></path><path d="M382.23,149.07a4.23,4.23,0,0,1-1.34,1.62,1.86,1.86,0,0,1-1.09.31c-.85,0-1-.76-1-1.42a4.37,4.37,0,0,1,.14-1A5.43,5.43,0,0,0,382.23,149.07Z" style="fill:#263238"></path><path d="M380.89,150.69a1.86,1.86,0,0,1-1.09.31c-.85,0-1-.76-1-1.42A1.94,1.94,0,0,1,380.89,150.69Z" style="fill:#ff9abb"></path><path d="M377.05,126.61a6.92,6.92,0,0,1,.23,4c-1.29,3.63-5.54,3.15-6.82,4.67s-.46,4-1.53,5.45c-1.49,1.95-3.83,1.49-4,2.72s-.55,5.13-2,5.77-11.09-24,8.88-25.27c0,0,2.61-1.4,7.06.3,4.92,1.88,7.75,9.39,7.75,9.39l-.85-.63c-1-.75-1.5-1.5-2.26-2-1.2-.75-1.77-.36-3-1.09A13.18,13.18,0,0,1,377.05,126.61Z" style="fill:#263238"></path><path d="M376.64,125.54a13.73,13.73,0,0,1,.9,3,5.71,5.71,0,0,1-.12,3,4.18,4.18,0,0,1-2.1,2c-.91.44-1.94.65-2.91,1.16a3.15,3.15,0,0,0-1.23,1.15,4.23,4.23,0,0,0-.42,1.59,5.64,5.64,0,0,1-.82,2.88,3.46,3.46,0,0,1-2.55,1.4,7.33,7.33,0,0,0-3.07.48c1-.47,2-.21,3.09-.24a3.74,3.74,0,0,0,2.83-1.41,5.58,5.58,0,0,0,1-3.05,3.78,3.78,0,0,1,.39-1.42,2.62,2.62,0,0,1,1.06-.94c.87-.48,1.91-.71,2.87-1.2a5.51,5.51,0,0,0,1.34-.92,3.23,3.23,0,0,0,.92-1.37,5.86,5.86,0,0,0,0-3.19A13.84,13.84,0,0,0,376.64,125.54Z" style="fill:#263238"></path><path d="M377.11,126.41a11.07,11.07,0,0,0,1.25,2.65,5.12,5.12,0,0,0,2.22,2,8.6,8.6,0,0,0,1.43.4,2.29,2.29,0,0,1,1.15.61,7.69,7.69,0,0,0,1,1.09,3.4,3.4,0,0,0,1.34.61,3.73,3.73,0,0,1-1.18-.8,6.85,6.85,0,0,1-.85-1.15,2.48,2.48,0,0,0-1.33-.81,8.24,8.24,0,0,1-1.35-.4,5.53,5.53,0,0,1-2.1-1.78A22.3,22.3,0,0,1,377.11,126.41Z" style="fill:#263238"></path><path d="M379.39,143.27l-.53-.45c.63-.82,2.2-2.07,3.67-.95l-.39.57C380.82,141.44,379.45,143.19,379.39,143.27Z" style="fill:#407BFF"></path><path d="M358,150.78l-.7-.08c0-.33.39-3.24,1.78-4s9.54-3.3,9.93-3.41l.19.68a92.24,92.24,0,0,0-9.76,3.34C358.51,147.8,358.08,150,358,150.78Z" style="fill:#407BFF"></path><path d="M374.05,147.92a5.52,5.52,0,0,1-2.93-.45c-1.82-1.07-3.37-5.64-3.44-5.83l-.15-.45.47-.05c.35,0,8.76-.93,10.9.71,1.15.88.88,3.41.26,4.22C378.4,147.08,376.1,147.81,374.05,147.92Zm-5.5-6.08c.55,1.47,1.77,4.29,2.95,5,1.58.94,6.17,0,7.06-1.2.42-.57.62-2.6-.12-3.17C377,141.31,371.2,141.6,368.55,141.84Z" style="fill:#407BFF"></path><path d="M385.48,145.14a3.17,3.17,0,0,1-2.21-.58,4.22,4.22,0,0,1-1.16-3.74c.54-2.16,5.55-3.61,6.12-3.77l.44-.12,0,.45c0,.18.42,4.58-.14,6.06a2.88,2.88,0,0,1-2.1,1.54A5,5,0,0,1,385.48,145.14ZM388,137.9c-1.65.52-4.82,1.76-5.16,3.1a3.5,3.5,0,0,0,.92,3,3.07,3.07,0,0,0,2.52.26,2.21,2.21,0,0,0,1.58-1.08C388.23,142.19,388.11,139.37,388,137.9Z" style="fill:#407BFF"></path><path d="M364.65,147.22s-4-4.35-6-2.87,1.41,8.09,4.09,8.71a2.63,2.63,0,0,0,3.3-1.85Z" style="fill:#ad6359"></path><path d="M359.68,146.22s0,.06,0,.07c1.88.49,3,2,3.93,3.66a1.45,1.45,0,0,0-2.2-.11.06.06,0,0,0,.06.09,1.6,1.6,0,0,1,1.83.33,7.25,7.25,0,0,1,1,1.31c.11.15.38,0,.3-.15l0,0C364.35,149.09,362.16,146.13,359.68,146.22Z" style="fill:#263238"></path><path d="M375.07,163.93l-2.45,6.93-8.84-8.25-2.28,2.87s8.88,13.34,8.9,12.72l2.56-6,4.23,3.91-.77-10.24Z" style="fill:#ebebeb"></path><path d="M377.09,171c-.18-1.69-.32-3.39-.58-5.07a.06.06,0,0,0-.12,0c-.26,1.65.47,8.1.53,9.65v0c-.18-.17-3.92-3.43-4-3.38-.57,1-2.45,5.33-2.57,5.72-1.4-2.12-6.77-9.81-8.41-11.8a.05.05,0,1,0-.09.06c1.25,2.25,8.36,12.62,8.46,12.58a68.59,68.59,0,0,0,2.67-6.34,44.23,44.23,0,0,0,4.42,4.17A51.7,51.7,0,0,0,377.09,171Z" style="fill:#263238"></path></g><g id="freepik--character-2--inject-39"><path d="M327.85,464.89c-2.27.71-66.68-.67-69.11-2.27-.91-.6-1.26-10-1.36-21.36q0-3.69,0-7.56c0-3.05,0-6.14.06-9.13.17-13.46.57-28.26.57-28.26l41.94.78-.49,28.26-.18,9.12-.36,7.56s24.43,11.56,26.9,13.61S330.11,464.2,327.85,464.89Z" style="fill:#ffc4c0"></path><path d="M327.85,464.89c-2.27.71-66.68-.67-69.11-2.27-.91-.6-1.26-10-1.36-21.36q0-3.69,0-7.56c0-3.05,0-6.14.06-9.13l42,.78-.18,9.12-.36,7.56s24.43,11.56,26.9,13.61S330.11,464.2,327.85,464.89Z" style="fill:#fff"></path><path d="M328,465c-1.47.46-28.91.05-48.88-.73-4.62-.19-8.85-.39-12.26-.6-4.69-.31-7.84-.62-8.35-1-1.12-.75-1.41-14.54-1.39-29.08l42.14.78-.36,7.6S323.5,453.62,326,455.68,330.32,464.28,328,465Z" style="fill:#a6a6a6"></path><path d="M327.17,462.38c-10.85-.49-54.67-1.48-65.43-1.15-.09,0-.09.06,0,.07,10.75.73,54.57,1.36,65.44,1.26C327.4,462.56,327.4,462.39,327.17,462.38Z" style="fill:#263238"></path><path d="M300.53,439.62c-4.26-.89-9.5-.35-12.83,2.63-.13.11,0,.3.18.25a60.65,60.65,0,0,1,12.62-2.34A.27.27,0,0,0,300.53,439.62Z" style="fill:#263238"></path><path d="M303.57,441.54c-4.25-.89-9.49-.34-12.82,2.63-.13.12,0,.3.17.26a60.14,60.14,0,0,1,12.62-2.35A.27.27,0,0,0,303.57,441.54Z" style="fill:#263238"></path><path d="M306.62,443.47c-4.26-.89-9.5-.35-12.83,2.63-.13.11,0,.29.18.25A60.65,60.65,0,0,1,306.59,444,.27.27,0,0,0,306.62,443.47Z" style="fill:#263238"></path><path d="M309.66,445.39c-4.25-.89-9.49-.34-12.82,2.63-.13.12,0,.3.17.26a60.14,60.14,0,0,1,12.62-2.35A.27.27,0,0,0,309.66,445.39Z" style="fill:#263238"></path><path d="M308.63,429.91c-1.63-2.35-4.78-1.38-6.59.08a22.81,22.81,0,0,0-6.79,9.65.12.12,0,0,0,.09.16c0,.32.29.67.66.54,3.56-1.23,7.51-2.1,10.59-4.39C308.38,434.62,310.17,432.13,308.63,429.91ZM301,437.37c-1.73.65-3.49,1.21-5.2,1.92a67,67,0,0,1,4.09-5.54,23.94,23.94,0,0,1,2.32-2.4c1.29-1.13,6.38-3.49,5.53,1.19C307.28,435.11,303.08,436.6,301,437.37Z" style="fill:#263238"></path><path d="M284.41,438.29c3.49,1.58,7.54,1.59,11.28,2,.39.05.59-.36.52-.68a.11.11,0,0,0,.07-.17,22.77,22.77,0,0,0-8.7-8c-2.08-1-5.37-1.32-6.46,1.32S282.37,437.37,284.41,438.29Zm-1.86-3.09c-1.83-4.38,3.64-3.17,5.14-2.34a24.39,24.39,0,0,1,2.78,1.85c1.85,1.38,3.48,3,5.18,4.54-1.82-.33-3.66-.5-5.49-.76C288,438.18,283.56,437.62,282.55,435.2Z" style="fill:#263238"></path><path d="M295.08,464.76c-5.43-.14-10.91-.31-15.93-.51-4.62-.17-8.84-.38-12.25-.6-4.69-.3-7.84-.61-8.35-.95-1-.66-1.33-11.31-1.38-23.71C266.73,445.38,285.52,458.22,295.08,464.76Z" style="opacity:0.1"></path><path d="M300.1,437.57l-44.9.05s2.62-106.74,2.11-109.26c-1.24-6-28.45-101-28.45-101l46.46.93a96.81,96.81,0,0,0,1.31,10.24c5.7,22.3,20.89,66.7,23.42,84.17C303.73,348.12,300.1,437.57,300.1,437.57Z" style="fill:#37474f"></path><path d="M297.56,429.57c-7.46-.19-30-1-39.92-.24-.07,0-.07.13,0,.15,3.41.55,32.46.4,39.92.29A.1.1,0,1,0,297.56,429.57Z" style="fill:#263238"></path><path d="M261.06,326c-1.43-5.82-12.09-42.1-15.35-53.56s-6.32-23-9.13-34.53c-.36-1.47-.72-2.93-1.11-4.39,0-.13-.21-.07-.18.05,1.07,5.83,2.49,11.6,3.86,17.36s2.83,11.51,4.37,17.24q4.64,17.25,10.11,34.26c1.82,5.65,4.83,17.25,6.44,23s-1,98.54-.85,100.06a.34.34,0,0,0,.68,0C260.11,414.39,262.47,331.74,261.06,326Z" style="fill:#263238"></path><path d="M266.65,228s-9.24,100.81-9.34,100.32c-1.19-5.8-26.78-95.12-28.38-100.7-.05-.18-.08-.27-.08-.27Z" style="opacity:0.1"></path><path d="M278.32,464.5c-2.27.71-66.68-.67-69.11-2.27-.92-.6-1.26-10-1.36-21.36q0-3.69,0-7.56c0-3.05,0-6.14.06-9.13.17-13.46.58-25.3.58-25.3l41.94.78-.49,25.3-.18,9.12-.36,7.56s24.43,11.56,26.89,13.61S280.58,463.81,278.32,464.5Z" style="fill:#ffc4c0"></path><path d="M278.32,464.5c-2.27.71-66.68-.67-69.11-2.27-.92-.6-1.26-10-1.36-21.36q0-3.69,0-7.56c0-3.05,0-6.14.06-9.13l42,.78-.18,9.12-.36,7.56s24.43,11.56,26.89,13.61S280.58,463.81,278.32,464.5Z" style="fill:#fff"></path><path d="M278.51,464.6c-1.48.46-28.92,0-48.89-.73-4.62-.19-8.84-.39-12.25-.6-4.7-.31-7.85-.62-8.35-1-1.12-.75-1.41-14.54-1.4-29.08l42.15.78-.36,7.6s24.56,11.62,27,13.68S280.78,463.89,278.51,464.6Z" style="fill:#a6a6a6"></path><path d="M277.64,462c-10.85-.5-54.67-1.48-65.44-1.15-.09,0-.09.06,0,.07,10.75.73,54.57,1.36,65.43,1.26C277.86,462.17,277.87,462,277.64,462Z" style="fill:#263238"></path><path d="M251,439.23c-4.26-.89-9.5-.35-12.83,2.63-.13.11,0,.29.18.25A60.53,60.53,0,0,1,251,439.77.27.27,0,0,0,251,439.23Z" style="fill:#263238"></path><path d="M254,441.15c-4.26-.89-9.5-.34-12.83,2.63-.12.12,0,.3.18.26A60,60,0,0,1,254,441.69.27.27,0,0,0,254,441.15Z" style="fill:#263238"></path><path d="M257.08,443.08c-4.25-.89-9.49-.35-12.82,2.63-.13.11,0,.29.17.25a60.75,60.75,0,0,1,12.63-2.34A.27.27,0,0,0,257.08,443.08Z" style="fill:#263238"></path><path d="M260.13,445c-4.26-.89-9.5-.34-12.83,2.63-.13.12,0,.3.18.26a60,60,0,0,1,12.62-2.35A.27.27,0,0,0,260.13,445Z" style="fill:#263238"></path><path d="M259.1,429.52c-1.63-2.35-4.78-1.38-6.6.08a22.81,22.81,0,0,0-6.79,9.65.11.11,0,0,0,.1.15c0,.33.29.68.66.55,3.56-1.23,7.51-2.1,10.58-4.39C258.85,434.23,260.64,431.74,259.1,429.52ZM251.48,437c-1.73.65-3.49,1.21-5.2,1.92a67,67,0,0,1,4.09-5.54,21.92,21.92,0,0,1,2.32-2.4c1.29-1.13,6.38-3.49,5.52,1.19C257.74,434.72,253.55,436.21,251.48,437Z" style="fill:#263238"></path><path d="M234.88,437.9c3.49,1.58,7.54,1.59,11.28,2,.38.05.59-.36.52-.68a.11.11,0,0,0,.06-.17,22.74,22.74,0,0,0-8.69-8c-2.09-1-5.37-1.32-6.46,1.32S232.84,437,234.88,437.9ZM233,434.81c-1.84-4.38,3.63-3.17,5.14-2.34a24.39,24.39,0,0,1,2.78,1.85c1.85,1.38,3.48,3,5.18,4.54-1.83-.33-3.66-.5-5.49-.76C238.44,437.79,234,437.23,233,434.81Z" style="fill:#263238"></path><path d="M250.13,438.5l-45.45-.86s13-162.56,11.42-171.43c-2.66-14.53-.4-31.11,6.59-39l45.25.84s.66,19.15-4.15,26.65c0,0-4.29,2.6-6.38,3.75Z" style="fill:#37474f"></path><path d="M248.85,430.26c-7-.32-4-.33-11.07-.56-3.45-.12-26.1-.86-29.34-.4a.07.07,0,0,0,0,.14c3.21.62,25.87,1,29.32,1,7.05.1,4,0,11.09,0A.1.1,0,0,0,248.85,430.26Z" style="fill:#263238"></path><path d="M223.46,265.77c-.27-3.34-.75-6.65-1.05-10A61.68,61.68,0,0,1,224,235.9c0-.12-.17-.17-.19-.05-1.21,5.77-2.28,11.53-2.1,17.45s1.11,11.67,1.09,17.55-.59,11.9-1.08,17.83-1,11.93-1.49,17.9c-2,24-3.85,45-5.76,69q-.79,10-1.55,20.08c-.52,6.82-1.31,21.66-1.69,28.48,0,.59.85.56.91,0,1.24-12,2.24-32.14,3.24-44.19s1.9-20.91,2.85-32.84,1.89-23.86,2.82-35.79q.69-9,1.36-17.9c.46-5.94,1-11.89,1.21-17.84A89.17,89.17,0,0,0,223.46,265.77Z" style="fill:#263238"></path><path d="M248.17,242.37c0-.09-.1-.22-.18-.15a27.17,27.17,0,0,1-9.31,9.2c-4.48,2.74-10.64,4.16-14.06,4.59-.23,0-.15.21.06.23,3.62.22,8.64-.71,14.14-3.67C246.76,248.28,248.06,243.24,248.17,242.37Z" style="fill:#263238"></path><path d="M265.16,254.16a77.47,77.47,0,0,0-12,5.61c-.15.09-.05.32.11.25,4.06-1.74,8.2-3.41,12.15-5.37A.27.27,0,0,0,265.16,254.16Z" style="fill:#263238"></path><path d="M266.57,228.43c0-.13-.25-.16-.25,0a116.79,116.79,0,0,1-.74,12.49c-.2,1.93-1.93,12.58-5.55,11.82-.61-.13-.92-.68-1-1.52a12.22,12.22,0,0,1,.5-3.26c.41-2.23.75-4.47,1-6.72a56.38,56.38,0,0,0-.08-12.59.12.12,0,0,0-.24,0A106.6,106.6,0,0,1,259,246c-.47,2.77-2,6.94,1.14,7.35s5.3-6.57,5.7-8.48A59.08,59.08,0,0,0,266.57,228.43Z" style="fill:#263238"></path><path d="M260.12,253a19.8,19.8,0,0,0-.82,2.39,5.33,5.33,0,0,0-.33,2c0,.13.18.14.25.05a7,7,0,0,0,.84-1.91c.27-.74.57-1.48.82-2.22A.41.41,0,0,0,260.12,253Z" style="fill:#263238"></path><path d="M212.8,242.68c.16.17,65-2.56,65-2.56a56.41,56.41,0,0,0-1.13-18.88c-4.25-19.44-14.17-48.1-21.33-56.93-2.8-3.45-12.75-8-21.11,2-7.76,9.32-17.69,39-21.47,58.54A46.18,46.18,0,0,0,212.8,242.68Z" style="fill:#263238"></path><path d="M247,160.28a6.18,6.18,0,0,0,.41,1.83,5.8,5.8,0,0,0,.41-1.73A5.57,5.57,0,0,0,247,160.28Zm12.5,26.89a7.52,7.52,0,0,0,0,5.18,6.94,6.94,0,0,0,.45-2.59A6.74,6.74,0,0,0,259.49,187.17Zm15.1,29.56a6.74,6.74,0,0,0-.45,2.59,6.94,6.94,0,0,0,.45,2.59,7.52,7.52,0,0,0,0-5.18ZM237,214.21a7.55,7.55,0,0,0,0,5.19,7.18,7.18,0,0,0,.45-2.59A7,7,0,0,0,237,214.21ZM226.13,182.7a6.71,6.71,0,0,0-.45,2.59,7,7,0,0,0,.45,2.59,7,7,0,0,0,.46-2.59A6.92,6.92,0,0,0,226.13,182.7Zm17.18-2.31a7,7,0,0,0-2.59.46,7.18,7.18,0,0,0,2.59.45,7,7,0,0,0,2.6-.45A7,7,0,0,0,243.31,180.39Zm-4.41,53.66a7,7,0,0,0-2.59.46,7,7,0,0,0,2.59.45,6.79,6.79,0,0,0,2.6-.45A7,7,0,0,0,238.9,234.05Zm-14.23-31.41a7,7,0,0,0-2.6.45,7.55,7.55,0,0,0,5.19,0A6.78,6.78,0,0,0,224.67,202.64Zm33.89,5.15a7,7,0,0,0-2.59.46,7,7,0,0,0,2.59.45,6.79,6.79,0,0,0,2.6-.45A7,7,0,0,0,258.56,207.79Zm8.53,25.81a7.11,7.11,0,0,0-2.59.45,6.92,6.92,0,0,0,2.59.46,7,7,0,0,0,2.59-.46A7,7,0,0,0,267.09,233.6Zm-24.21-34.46a6.87,6.87,0,0,0-2.16-1.51,6.87,6.87,0,0,0,1.51,2.16,7.11,7.11,0,0,0,2.16,1.51A7.11,7.11,0,0,0,242.88,199.14Zm-20.73,39.54a7.29,7.29,0,0,0-2.16-1.51,7.56,7.56,0,0,0,3.67,3.67A7.29,7.29,0,0,0,222.15,238.68Zm36.18-69.92a4.71,4.71,0,0,0-.67-.35,6.71,6.71,0,0,0,1.51,2.16l.29.27C259.08,170.11,258.71,169.41,258.33,168.76Zm-39.81,52A6.94,6.94,0,0,0,217,222.9a7.59,7.59,0,0,0,3.66-3.67A7.11,7.11,0,0,0,218.52,220.74Zm15.88-51.85a6.94,6.94,0,0,0-1.51,2.15,7.63,7.63,0,0,0,3.66-3.66A6.94,6.94,0,0,0,234.4,168.89Zm20.54,54.49a6.94,6.94,0,0,0-1.51,2.15,7.63,7.63,0,0,0,3.66-3.66A6.94,6.94,0,0,0,254.94,223.38ZM226.13,182.7a6.71,6.71,0,0,0-.45,2.59,7,7,0,0,0,.45,2.59,7,7,0,0,0,.46-2.59A6.92,6.92,0,0,0,226.13,182.7Z" style="fill:#37474f"></path><path d="M233.37,168.93c-13,15.73-26.9,41.48-25,47.42,5.23,16.12,10.42,30.07,15.65,38.78,2.41,4,24.72-8.5,22.47-12.4-4.6-8-13.49-27.17-14.87-29.89-.8-1.57,5.67-24.44,10.18-38.72C246.73,158.6,239.68,161.31,233.37,168.93Z" style="fill:#ffc4c0"></path><path d="M216.46,249.55l27.44-13.4s-10.8-24.08-10.81-26.67,7.9-28.83,10.57-38.23-1.25-15.29-13-1.07-22.75,34.46-23.91,40.08S216.46,249.55,216.46,249.55Z" style="fill:#263238"></path><path d="M216.46,249.55l27.44-13.4s-10.8-24.08-10.81-26.67,7.9-28.83,10.57-38.23-1.25-15.29-13-1.07-22.75,34.46-23.91,40.08S216.46,249.55,216.46,249.55Z" style="fill:#263238"></path><path d="M226.13,182.7a6.71,6.71,0,0,0-.45,2.59,7,7,0,0,0,.45,2.59,7,7,0,0,0,.46-2.59A6.92,6.92,0,0,0,226.13,182.7Zm14.59-1.85.13.05a.49.49,0,0,0,0-.11A1.15,1.15,0,0,0,240.72,180.85Zm-1.82,53.2a7,7,0,0,0-2.59.46,7,7,0,0,0,2.59.45,6.79,6.79,0,0,0,2.6-.45A7,7,0,0,0,238.9,234.05Zm-14.23-31.41a7,7,0,0,0-2.6.45,7.55,7.55,0,0,0,5.19,0A6.78,6.78,0,0,0,224.67,202.64Zm-17,8.69a10.9,10.9,0,0,0-1-.83,7,7,0,0,0,0,1.07c.11.14.24.27.36.4a6.9,6.9,0,0,0,2.16,1.52A7,7,0,0,0,207.71,211.33Zm14.44,27.35a7.29,7.29,0,0,0-2.16-1.51,7.56,7.56,0,0,0,3.67,3.67A7.29,7.29,0,0,0,222.15,238.68Zm-3.63-17.94A6.94,6.94,0,0,0,217,222.9a7.59,7.59,0,0,0,3.66-3.67A7.11,7.11,0,0,0,218.52,220.74Zm15.88-51.85a6.94,6.94,0,0,0-1.51,2.15,7.63,7.63,0,0,0,3.66-3.66A6.94,6.94,0,0,0,234.4,168.89Zm-8.27,13.81a6.71,6.71,0,0,0-.45,2.59,7,7,0,0,0,.45,2.59,7,7,0,0,0,.46-2.59A6.92,6.92,0,0,0,226.13,182.7Z" style="fill:#37474f"></path><path d="M233,207.64c.43-1.71,5.55-19.59,6.28-21.56s1.52-3.79,2.28-5.68c.06-.14.3-.05.25.09-.91,2.53-1.77,5.09-2.62,7.65.65-1.17,1.3-2.33,2-3.47.06-.09.21,0,.15.08-.76,1.42-1.57,2.81-2.39,4.19-.21.61-5.21,19-5.27,19.82a7.46,7.46,0,0,0,.41,2.73c.5,1.61,1.06,3.2,1.63,4.79,1.14,3.19,2.39,6.33,3.69,9.46,1.49,3.55,3.18,7.06,4.87,10.53,0,0-1,.27-1.05.29s-.08,0-.06-.06.65-.34.66-.34c-1.71-3-3.35-5.94-4.79-9.09s-2.71-6.29-3.87-9.52c-.59-1.66-1.25-3.3-1.69-5A10.88,10.88,0,0,1,233,207.64Z" style="fill:#37474f"></path><path d="M216,241.82a29.15,29.15,0,0,1,3-1.41c.9-.42,1.79-.85,2.69-1.25,2-.89,3.91-1.78,5.88-2.66s3.92-1.75,5.89-2.61,3.9-1.77,5.9-2.51a.07.07,0,0,1,.06.13c-1.82,1.12-3.77,2.05-5.68,3s-3.8,1.82-5.72,2.68-3.94,1.7-5.93,2.51c-1,.39-1.93.74-2.9,1.1a24.9,24.9,0,0,1-3.14,1.11A.06.06,0,0,1,216,241.82Z" style="fill:#37474f"></path><path d="M251,171.86c-2.77.56-9.37-3.77-12.31-7.82-.2-.28-.14-3.49-.26-7.39-.08-2.36-.22-5-.53-7.39L253.35,151a38.8,38.8,0,0,0-.28,9.37,5.73,5.73,0,0,0,.23,1,1.23,1.23,0,0,1,0,.16C253.88,163.32,255.33,171,251,171.86Z" style="fill:#ffc4c0"></path><path d="M253.3,161.34l0,.16a10.87,10.87,0,0,1-1.54.28c-8.72.91-12.25-9.52-13.05-12.41l14.6,1.63a38.5,38.5,0,0,0-.29,9.36A6.71,6.71,0,0,0,253.3,161.34Z" style="fill:#263238"></path><path d="M235,129c-1.61,5.37,1.31,20.85,5.15,24.28,5.56,5,14.61,5.41,18.83-1.27,4.09-6.46-.07-26.57-4.35-29.68C248.36,117.76,237.4,121.08,235,129Z" style="fill:#ffc4c0"></path><path d="M247.91,138.51s-.07.06-.06.1c.21,1,.29,2.27-.6,2.78,0,0,0,.07,0,.06C248.4,141.08,248.28,139.45,247.91,138.51Z" style="fill:#263238"></path><path d="M246.79,137.58c-1.71.17-1.25,3.56.33,3.4S248.21,137.44,246.79,137.58Z" style="fill:#263238"></path><path d="M254.21,137.57s.09,0,.09.08c.11,1,.42,2.25,1.41,2.47a0,0,0,0,1,0,.06C254.53,140.17,254.14,138.59,254.21,137.57Z" style="fill:#263238"></path><path d="M255,136.34c1.67-.36,2.27,3,.72,3.35S253.6,136.64,255,136.34Z" style="fill:#263238"></path><path d="M245.24,136.21c.44-.18.82-.42,1.25-.64a2.29,2.29,0,0,0,1.15-.9.73.73,0,0,0-.23-.85,1.78,1.78,0,0,0-1.82.06,2.62,2.62,0,0,0-1.35,1.33A.77.77,0,0,0,245.24,136.21Z" style="fill:#263238"></path><path d="M256.06,135.94a11.14,11.14,0,0,1-1.4-.17,2.3,2.3,0,0,1-1.39-.44.72.72,0,0,1-.07-.88,1.79,1.79,0,0,1,1.72-.57,2.62,2.62,0,0,1,1.73.78A.77.77,0,0,1,256.06,135.94Z" style="fill:#263238"></path><path d="M248.28,148.41c.28.21.58.51,1,.49a2.75,2.75,0,0,0,1.09-.42s.07,0,0,.05a1.4,1.4,0,0,1-1.25.75,1.12,1.12,0,0,1-1-.81A.06.06,0,0,1,248.28,148.41Z" style="fill:#263238"></path><path d="M249,145.11a3.63,3.63,0,0,0,2.6,1.27,4.78,4.78,0,0,0,1.3-.12.94.94,0,0,0,.24-.06l.23-.07a.24.24,0,0,0,.17-.26h0a.43.43,0,0,0,0-.11h0l0-.1c-.08-.81-.33-2-.33-2,.32.11,1.92.58,1.83.16a53.65,53.65,0,0,0-2.86-10.64.09.09,0,0,0-.18.05c.52,3.37,1.64,6.61,2.22,10a6.49,6.49,0,0,0-1.76-.28c-.11.05.52,2.35.53,2.72v0A5,5,0,0,1,249,145C249,145,248.88,145,249,145.11Z" style="fill:#263238"></path><path d="M237.59,141.8c2.84-.37,2.07-7.33,2.07-7.33s4.3-1.1,6-7.23c0,0,5.85,3.12,10.49,1.93,7.27-1.87,6.39-11.42,3.49-13.18-4.1-2.48-10.78,2-10.78,2s-10.74-2.17-13.36,5.17a5.43,5.43,0,0,0-4.64,5.76C230.91,134.17,235.47,142.08,237.59,141.8Z" style="fill:#263238"></path><path d="M238.69,135.36A9.71,9.71,0,0,0,244,132a7.29,7.29,0,0,0,1.21-6.57c0-.11.15-.17.19,0a8.35,8.35,0,0,1-.67,7.07,6.76,6.76,0,0,1-6,3.16A.11.11,0,0,1,238.69,135.36Z" style="fill:#263238"></path><path d="M230.27,126c1.32-2,3.51-2.39,5.71-2.47.12,0,.12.2,0,.19a6.12,6.12,0,0,0-5.24,3.35c-1,1.8-.57,4,0,5.84a15.39,15.39,0,0,0,6.77,8.68,0,0,0,0,1-.05.08,15.31,15.31,0,0,1-7.57-9.49C229.38,130.15,229.05,127.74,230.27,126Z" style="fill:#263238"></path><path d="M248.6,118.4a7.27,7.27,0,0,1,3.82-3.39,8.61,8.61,0,0,1,6.16.19,4.86,4.86,0,0,1,2.85,4,8.68,8.68,0,0,1-1.54,5.58s-.1,0-.08,0a8.57,8.57,0,0,0,1.16-5,4.5,4.5,0,0,0-2.92-3.77c-3.12-1.13-7.52-.59-9.28,2.63C248.71,118.61,248.54,118.51,248.6,118.4Z" style="fill:#263238"></path><path d="M239.72,142.06s-3.63-4.92-5.88-3.61.58,8.5,3.28,9.42a2.71,2.71,0,0,0,3.6-1.55Z" style="fill:#ffc4c0"></path><path d="M234.7,140.49a0,0,0,0,0,0,.07c1.89.71,2.92,2.42,3.66,4.2a1.49,1.49,0,0,0-2.25-.35s0,.11.05.1A1.65,1.65,0,0,1,238,145a8.25,8.25,0,0,1,.92,1.47c.09.16.39.06.32-.13v0C239.21,144,237.27,140.66,234.7,140.49Z" style="fill:#263238"></path><path d="M253.72,162.84l-1.45,7.62-13.8-9.56-2.66,4.1s13.48,16.54,13.44,15.71l3.64-8.52,5.08,4.89-1.85-11.43Z" style="fill:#ebebeb"></path><path d="M257.19,170.35c-.46-2.21-.37-2.4-.93-4.59,0-.08-.15-.1-.16,0-.14,2.22,1.18,8.62,1.45,10.67l0,0c-.26-.21-4.6-4.3-4.64-4.22-.63,1.34-3.58,7.62-3.7,8.16-2.13-2.63-10.23-12.14-12.66-14.56-.07-.07-.18,0-.12.09,2,2.82,12.7,15.65,12.83,15.59a71.21,71.21,0,0,0,3.75-9c.94.87,5.41,5.53,5.38,5.2A69.48,69.48,0,0,0,257.19,170.35Z" style="fill:#263238"></path></g><g id="freepik--character-1--inject-39"><path d="M115.39,128.21s8.86-4.8,18,3.46c10.9,9.81,7.38,43.37,8.06,46.37s2,3.72,2.41,6.41-1.8,4.43-2.06,5.39,2.39,5.87,2.39,5.87-14.77,3.86-24,2-19.66-8.22-19.66-8.22,2.12-3,2.12-4.38-1.64-3.29-1.5-5.84,4-5.66,4.41-7-1.54-26.79.71-35.66S115.39,128.21,115.39,128.21Z" style="fill:#263238"></path><path d="M100.08,188.78a13.74,13.74,0,0,0,2.06-3.14,2,2,0,0,0,.18-1c-.46-2-2.25-3.87-1.9-6.07.47-1.68,2.11-3.06,3.22-4.37a5.61,5.61,0,0,0,1.53-2.55c0-.37,0-.67,0-1-.33-10.56-1.08-21.24.68-31.71a18.82,18.82,0,0,1,2.45-7,18.32,18.32,0,0,0-2.84,6.92c-2.17,10.45-1.5,21.23-1,31.81,0,.3,0,.63,0,.89a5.23,5.23,0,0,1-1.33,2.19c-1.16,1.44-2.79,2.84-3.22,4.71-.33,2.35,1.52,4.12,2.15,6.21a1.63,1.63,0,0,1-.12.86,14.74,14.74,0,0,1-1.86,3.21Z" style="fill:#263238"></path><path d="M145,194.39c-.6-1.3-1.46-2.93-1.95-4.25v0a2.41,2.41,0,0,1,.38-.56,7.32,7.32,0,0,0,2-5.16c-.14-2.27-1.69-4.19-2.43-6.19a10.46,10.46,0,0,1-.4-4.24c.36-12.37.61-33.34-8.87-42.41a13.09,13.09,0,0,0-3.69-2.42,13.6,13.6,0,0,1,3.54,2.57c8.92,9.35,8.48,29.89,8.32,42.24a10.43,10.43,0,0,0,.5,4.48c.84,2.11,2.35,3.75,2.57,6a6.32,6.32,0,0,1-1.11,4.05c-.29.48-.64.91-.93,1.38a.54.54,0,0,0-.09.26,42.11,42.11,0,0,0,2.2,4.28Z" style="fill:#263238"></path><path d="M113.13,175.6c-12.68,20.57-32.08,68-35.53,74.81-2.35,4.59,21.66,17.52,22.78,14.16,1.44-4.3,19.84-59.7,21.61-84.59C122.82,168.44,117.18,169,113.13,175.6Z" style="fill:#eb9481"></path><path d="M93.44,271.32c1.08-1.24,1.74-.68,1.58,2.23s-3.27,14.3.8,15.05,8.21-15.38,8.1-20.25-2-12.7-2-12.7C100.5,258.62,96.33,265.51,93.44,271.32Z" style="fill:#eb9481"></path><path d="M79,247.54c-4.89,8.79-8.91,18.93-7.66,29.36a5.16,5.16,0,0,0,1.41,3.1c.48,4.69,2.83,5.87,2.83,5.87,1.78,4.23,4.36,5.11,4.36,5.11s.84,3.72,3.48,3.31,3.29-6.75,5-11.56c4-11,12.06-24,13.52-27.08Z" style="fill:#eb9481"></path><path d="M83.86,269.84A74.57,74.57,0,0,0,81,279.68,76.59,76.59,0,0,0,80,290.89a.09.09,0,0,1-.18,0,39.83,39.83,0,0,1,3.87-21.12C83.79,269.63,83.92,269.67,83.86,269.84Z" style="fill:#263238"></path><path d="M77.56,266.49c-.9,3.23-2.43,8.93-1.87,19.38,0,0-.06.05-.07,0a35.8,35.8,0,0,1,1.78-19.44C77.47,266.25,77.61,266.27,77.56,266.49Z" style="fill:#263238"></path><path d="M74.13,264.75c-1.3,5.56-1.42,9.24-1.37,15.23a0,0,0,0,1-.06,0c-.78-6.81-.29-9.37,1.25-15.31C74,264.47,74.18,264.53,74.13,264.75Z" style="fill:#263238"></path><path d="M77.58,245.7l26.33,13.76s15.76-56.06,18-75.4-5.33-15.09-10.72-6.12C103.83,190.2,77.58,245.7,77.58,245.7Z" style="fill:#455a64"></path><path d="M104,251.45c-3.58-1.62-18-8.77-21-10.52-.2-.12-.18-.29.06-.19a216.36,216.36,0,0,1,21,10.56C104.15,251.35,104.1,251.49,104,251.45Z" style="fill:#263238"></path><path d="M121.92,184.06c-2.25,19.34-18,75.4-18,75.4l-5.1-2.67,1.08-57.2c4.71-9.48,9-17.75,11.31-21.65C116.59,169,124.16,164.72,121.92,184.06Z" style="opacity:0.1"></path><path d="M59.05,464.2c2.22.72,65.48-.1,67.87-1.66.92-.58,1.34-9.81,1.52-21,0-.11-.07-41.23-.07-41.23l-41.25.43L87.65,442s-24.08,11.14-26.52,13.14S56.83,463.5,59.05,464.2Z" style="fill:#eb9481"></path><path d="M78.06,446.32c.16-.05.25-.1.26-.15Z" style="fill:#407BFF"></path><path d="M128.32,447.4c-.23,8.39-.65,14.67-1.4,15.14-2.38,1.56-65.65,2.38-67.87,1.66s-.35-7.08,2.08-9.07c1.17-1,7.28-4,13.35-6.92C65.47,453.34,58.69,460.41,128.32,447.4Z" style="fill:#263238"></path><path d="M128.32,447.4c-.23,8.39-.65,14.67-1.4,15.14-.94.62-11.48,1.13-24,1.46l15.24-14.76C121.36,448.68,124.74,448.06,128.32,447.4Z" style="fill:#37474f"></path><path d="M141.35,218.86s-10.69,107.7-12.24,115.86c-.35,1.86.61,11.16.47,24.15-.33,28.34-1.08,73.54-1.08,73.54h-41s-1.31-82.65.67-98.94,14.59-114.61,14.59-114.61Z" style="fill:#eb9481"></path><path d="M129.58,358.87c-.08,6.69-.19,14.65-.29,22.89l-26.55-162.9h38.61s-10.69,107.7-12.24,115.86C128.75,336.57,129.72,345.88,129.58,358.87Z" style="fill:#263238"></path><path d="M109.26,465.07c2.24.66,65.46-1.66,67.81-3.28.9-.6,1.1-9.83,1-21,0-.11-4.34-41.16-4.34-41.16l-40.11,1.42,3.68,41.13s-23.8,11.71-26.2,13.77S107,464.42,109.26,465.07Z" style="fill:#eb9481"></path><path d="M177.07,461.79c-2.35,1.62-65.57,3.94-67.81,3.28s-.51-7.08,1.86-9.12c1.38-1.18,9.83-5.56,16.77-9.07-9.13,5.41-26.61,17.25,50.22-2.16C178.12,454.05,177.87,461.26,177.07,461.79Z" style="fill:#263238"></path><path d="M137.27,434l39.89-3s-9.75-89.08-10-95.09c-.33-8.94-3.74-46.69-7.33-76.54,0,0,3.94-21.53-5.95-40.57H102.7s3.43,23.23,9.31,38a68.54,68.54,0,0,1,11.38,5.2s4.22,67.43,4.41,75.74C128.18,354.14,137.27,434,137.27,434Z" style="fill:#eb9481"></path><path d="M102.7,218.83s-16.17,110-16.81,120.27-.28,13-.28,13,22.61,7.05,34.43,7.16c26.31.24,51.31-9.65,51.31-9.65s-10.68-89.95-10.76-90.17a62.27,62.27,0,0,0-5.67-40.68Z" style="fill:#37474f"></path><path d="M105,218.83,97.28,287l-4.09,35.58-1,8.89c-.31,3-.69,5.93-.88,8.9-.19,4.47-.18,8.94-.08,13.42h0c-.11-4.47-.15-8.94,0-13.41.18-3,.54-5.94.85-8.91l1-8.9,4-35.58,8-68.12Z" style="fill:#455a64"></path><path d="M168.43,350.69h0c-1.16-6.94-2-13.94-3-20.93-1-7.85-2-15.71-3-23.56q-2.94-23.58-5.56-47.18v0A50.2,50.2,0,0,0,158,248.41a76.93,76.93,0,0,0-1-10.6,100.32,100.32,0,0,0-2.34-10.41c-.83-2.91-1.74-5.79-2.82-8.63h0c1.09,2.83,2,5.71,2.84,8.62a103.14,103.14,0,0,1,2.38,10.41,78.57,78.57,0,0,1,1,10.61,50.53,50.53,0,0,1-1,10.62l5.58,47.15q1.41,11.81,2.9,23.57C166.44,336.74,167.29,343.74,168.43,350.69Z" style="fill:#455a64"></path><path d="M121,218.81l-2.78,70.34-1.56,37-.4,9.23c-.12,3.08-.31,6.16-.29,9.24,0,4.82.1,9.64.24,14.46h0c-.15-4.82-.26-9.63-.27-14.45,0-3.08.15-6.16.26-9.25l.36-9.23,1.46-37,3-70.34Z" style="fill:#455a64"></path><path d="M161.77,352.82h0l-4.52-44.56q-2.52-24.61-4.89-49.25h0a71.6,71.6,0,0,0-.09-10.56c-.24-3.52-.67-7-1.16-10.51s-1.09-7-1.74-10.44c-.55-2.91-1.15-5.83-1.81-8.72h0c.67,2.89,1.26,5.81,1.83,8.72.66,3.47,1.27,6.94,1.77,10.43s.95,7,1.21,10.51a73.13,73.13,0,0,1,.11,10.57q2.5,24.62,4.92,49.24Z" style="fill:#455a64"></path><path d="M109.15,218.82l-5.41,69.9L100.9,325l-.67,9.07c-.11,1.51-.21,3-.3,4.54l-.1,4.54-.3,12.8h0l.27-12.79.09-4.54c.09-1.52.18-3,.29-4.55l.65-9.07,2.72-36.26,5.62-69.89Z" style="fill:#455a64"></path><path d="M115,218.81l-4.25,69.93L108.47,325l-.58,9.07c-.16,3-.45,6-.48,9.07-.12,4.84-.11,9.68,0,14.53h0c-.1-4.84-.12-9.68,0-14.52,0-3,.3-6.06.46-9.08l.55-9.06,2.21-36.28L115,218.81Z" style="fill:#455a64"></path><path d="M125.73,326.42c0,6.11-.15,12.22-.06,18.33q.08,7.22.24,14.4h0c-.11-4.8-.21-9.6-.27-14.41-.12-6.11,0-12.22,0-18.33l.2-36.64.6-71h0l-.39,71Z" style="fill:#455a64"></path><path d="M154.34,354.84h0l-3.83-45.26q-2.12-24.84-4.11-49.7h0a50.53,50.53,0,0,0-.19-5.35c-.14-1.78-.29-3.57-.45-5.35-.34-3.56-.7-7.13-1.08-10.69q-1.07-9.84-2.26-19.71h0c.8,6.56,1.59,13.14,2.31,19.71.39,3.55.77,7.12,1.11,10.68.18,1.78.33,3.57.47,5.35a50.64,50.64,0,0,1,.21,5.37q2.12,24.84,4.14,49.68Z" style="fill:#455a64"></path><path d="M145.12,356.85h0l-3.53-68.62-.87-18-.44-9-.55-9-2.05-33.56h0l2.15,33.56.58,9,.46,9,.93,17.94Z" style="fill:#455a64"></path><polygon points="135.41 358.36 135.4 358.36 133.62 288.78 132.03 218.79 133.84 288.78 135.41 358.36" style="fill:#455a64"></polygon><path d="M101.5,228.5s38.91,5.31,55.48,3.35c0,0-11.34-47.86-23.41-60.76-5.5-5.87-10.87-5-15.42-1.2-1.13,1-15.21,18.82-16.4,25-1.06,5.51,3.41,11.62,3.41,11.62Z" style="fill:#ebebeb"></path><polygon points="122.39 181.73 120.15 177.63 116.93 181.25 117.24 184.17 120.64 184.54 122.39 181.73" style="fill:#263238"></polygon><polygon points="120.64 184.54 119.79 217.08 112.47 231.47 107.68 217.09 117.24 184.17 120.64 184.54" style="fill:#263238"></polygon><path d="M118.6,169.32s-6,16.22-6.4,20.39,1.51,19.8,1.51,19.8,9.17-16.51,11.4-21.85c3.45-8.29,4.22-19.84,4.22-19.84s3.44,1.57,7.95,7.76c6.05,8.28,17,39.41,20.53,56.75l-41.25,5.92-4.09-6.78-2.82,6.78-9.78-5.45,5.29-26.25s-5.45-5.37-3.3-12.9C104.19,185.46,118.6,169.32,118.6,169.32Z" style="fill:#455a64"></path><path d="M113.7,209.47l-6-18.74,4.13-5-3.59-.7s9.39-14.57,10.37-15.73c-.23.62-6,16.28-6.39,20.37S113.6,208.63,113.7,209.47Z" style="fill:#263238"></path><path d="M126.79,187l1.77,6.28L113.72,209.5c.27-.5,9.2-16.59,11.39-21.84,3.45-8.29,4.22-19.84,4.22-19.84l1.61,18Z" style="fill:#263238"></path><path d="M113.71,209.51a158,158,0,0,1-1.24,22,158,158,0,0,1,1.24-22Z" style="fill:#263238"></path><path d="M117.38,214.27a1.28,1.28,0,0,1-2.55,0,1.28,1.28,0,0,1,2.55,0Zm0,0a.9.9,0,1,0-1.8,0,.9.9,0,1,0,1.8,0Z" style="fill:#263238"></path><path d="M117,221.06a1.27,1.27,0,0,1-2.54,0,1.27,1.27,0,0,1,2.54,0Zm0,0a.9.9,0,1,0-1.79,0,.9.9,0,1,0,1.79,0Z" style="fill:#263238"></path><path d="M116.69,227.85a1.28,1.28,0,0,1-2.55,0,1.28,1.28,0,0,1,2.55,0Zm0,0a.9.9,0,1,0-1.8,0,.9.9,0,1,0,1.8,0Z" style="fill:#263238"></path><polygon points="130.57 215.72 145.1 213.09 145.56 214.97 130.91 217.62 130.57 215.72" style="fill:#263238"></polygon><path d="M131.2,178.18c3.74,5.13,23.71,25.61,24.28,27.63.32,1.13-4,5.21-4,6,.3,3.32,10.45,29.1,13.31,26.86,3.78-2.95,17.08-26.72,14.82-35.88s-41.07-31.85-47-33.76S127.51,173.11,131.2,178.18Z" style="fill:#455a64"></path><path d="M146.57,195.38a36.19,36.19,0,0,1-7.27-7.71,36.69,36.69,0,0,1,7.27,7.71Z" style="fill:#263238"></path><path d="M139.68,189.82a19.3,19.3,0,0,0,3.69,2.17,6.37,6.37,0,0,1-3.69-2.17Z" style="fill:#263238"></path><path d="M153.32,245.59c-2.7-1.82,1-4,1-4s-6.07,1.79-8.13-1.17,2.59-5.29,2.91-5.47c-.32.09-5.94,1.6-7.7-1.59s3.17-5,3.5-5.08c-.34,0-4.72-.19-5.5-2.92-1.35-4.69,11.23-5.23,13.94-8.1,0,0-1.22-6.18-1.31-6.36a7.1,7.1,0,0,0,3.58,3c2.72.77,5.17,1.21,6.27,2.52a3.59,3.59,0,0,1,.41,4.25s3.44-.4,4.9,2.07c.75,1.27-.61,3.59-.61,3.59a4.27,4.27,0,0,1,3.93,2.08c.94,1.81-.58,3.86-.58,3.86s2.75,1,3.11,3.2C173.76,239.92,159.11,249.51,153.32,245.59Z" style="fill:#eb9481"></path><path d="M169.74,232.72s.11,0,.07.06a30.29,30.29,0,0,1-15.68,9c-.19,0-.33-.25-.13-.34A61.93,61.93,0,0,0,169.74,232.72Z" style="fill:#263238"></path><path d="M166.67,226.4c.05-.05.12,0,.07.1A28.43,28.43,0,0,1,149,235.23c-.23,0-.46-.2-.19-.24C153.4,234.3,162.22,229.89,166.67,226.4Z" style="fill:#263238"></path><path d="M144.4,228.19c6.6-.75,12.29-3.54,17.73-7.25.07,0,.13.06.08.12-2.16,2.54-5.88,4.54-8.89,5.85a17.49,17.49,0,0,1-8.89,1.51C144.31,228.41,144.26,228.21,144.4,228.19Z" style="fill:#263238"></path><path d="M170.11,232.34c1-1.23,1.64-2.77,1-4.3a3.14,3.14,0,0,0-1.55-1.58,5.55,5.55,0,0,0-2.57-.24,4.11,4.11,0,0,0,.07-4.66,3.07,3.07,0,0,0-2-1.07,9.81,9.81,0,0,0-2.69.11,3.66,3.66,0,0,0,.78-3.19,4,4,0,0,0-2.43-2.66,18.72,18.72,0,0,0-4.26-1,10.28,10.28,0,0,1-2.17-.6,4.21,4.21,0,0,1-1.81-1.62c-.08-.12-.07,0,0,.11a5.24,5.24,0,0,0,1.07,1.28,6.49,6.49,0,0,0,1.47.95,28.11,28.11,0,0,0,4,1.19,5.72,5.72,0,0,1,3.05,2,3.4,3.4,0,0,1,.11,3.56.09.09,0,0,0,.09.13,10,10,0,0,1,2.4.27,3.36,3.36,0,0,1,1.68,1.05,4.35,4.35,0,0,1,.21,4.32,7.51,7.51,0,0,1,2.52.66,3.08,3.08,0,0,1,1.18,1.32,3.72,3.72,0,0,1-.39,3.91.09.09,0,0,0,0,0h0v0s0,0,0,0h0s.88.37.92.37,0,0,0-.05A7.64,7.64,0,0,0,170.11,232.34Z" style="fill:#263238"></path><path d="M128.87,170.8c-.26,1-4.35,6.45-9.07,6.13-1.53-.1-2.3-7.33-2.3-7.33l-.12-.63-1.77-8.73L126,153.9l1.5-.84s.32,2.42.69,5.44l.06.43c0,.17,0,.33.07.49.06.45.12.91.17,1.37s.08.69.11,1.06.07.73.11,1.1A56.79,56.79,0,0,1,128.87,170.8Z" style="fill:#eb9481"></path><path d="M128.15,158.5A17.82,17.82,0,0,1,117.38,169l-1.77-8.73L126,153.9l1.5-.84S127.78,155.48,128.15,158.5Z" style="fill:#263238"></path><path d="M104.73,145.16c-2,15.5,7.06,18.45,10.41,18.88,3,.38,13.42,1.32,17-13.9s-3-21-9.89-22.3S106.73,129.65,104.73,145.16Z" style="fill:#eb9481"></path><path d="M109.23,142.53a9.88,9.88,0,0,0,1.08-.11,1.69,1.69,0,0,0,1.07-.32.54.54,0,0,0,.07-.67,1.38,1.38,0,0,0-1.32-.47,2,2,0,0,0-1.34.58A.59.59,0,0,0,109.23,142.53Z" style="fill:#263238"></path><path d="M120,143.73a9.49,9.49,0,0,1-1-.33,1.74,1.74,0,0,1-1-.54.54.54,0,0,1,.07-.67,1.39,1.39,0,0,1,1.39-.18,2,2,0,0,1,1.18.85A.59.59,0,0,1,120,143.73Z" style="fill:#263238"></path><path d="M117.11,147.29s.07.06.07.1c-.18,1.05-.19,2.29.72,2.76,0,0,0,.07,0,.06C116.73,149.89,116.78,148.26,117.11,147.29Z" style="fill:#263238"></path><path d="M118.19,146.31c1.72.09,1.41,3.51-.18,3.43S116.76,146.23,118.19,146.31Z" style="fill:#263238"></path><path d="M118.85,146.55c.28.22.54.59.9.66s.76-.25,1.06-.57c0,0,.06,0,.06,0-.05.66-.36,1.31-1.08,1.34s-1.05-.59-1.16-1.26C118.61,146.63,118.73,146.46,118.85,146.55Z" style="fill:#263238"></path><path d="M110.93,146.4s-.09,0-.09.09c0,1.06-.29,2.27-1.28,2.55,0,0,0,.06,0,.06C110.75,149,111.05,147.42,110.93,146.4Z" style="fill:#263238"></path><path d="M110.08,145.22c-1.7-.27-2.12,3.14-.55,3.39S111.5,145.44,110.08,145.22Z" style="fill:#263238"></path><path d="M109.34,145.36c-.29.14-.6.44-.93.42s-.6-.42-.8-.81c0,0,0,0-.06,0-.09.64,0,1.35.65,1.55s1-.32,1.28-.95C109.52,145.49,109.45,145.3,109.34,145.36Z" style="fill:#263238"></path><path d="M115.63,156.05c-.26.24-.53.57-.92.59a3,3,0,0,1-1.13-.32,0,0,0,0,0,0,.05,1.45,1.45,0,0,0,1.33.64,1.12,1.12,0,0,0,.87-.9C115.75,156,115.67,156,115.63,156.05Z" style="fill:#263238"></path><path d="M111.6,151.77s-.38,1.56-.46,2.31c0,.07.17.12.42.16h0a3.57,3.57,0,0,0,3.58-1c.06-.07,0-.15-.1-.11a5.36,5.36,0,0,1-3.33.59c0-.21.74-2.65.62-2.67a6.91,6.91,0,0,0-1.73.21c.7-3.27,1.91-6.4,2.56-9.67a.1.1,0,0,0-.19-.07,54.29,54.29,0,0,0-3.2,10.3C109.69,152.27,111.29,151.87,111.6,151.77Z" style="fill:#263238"></path><path d="M131.58,152.69a6.52,6.52,0,0,1-3.22-5.59,17.08,17.08,0,0,1-6.49-6.11c.08.33.66,2.74,1,4-9.88-2.66-12.38-10.56-12.38-10.56a17.17,17.17,0,0,0-4.86,6s.41-6.16,3.89-10A9.93,9.93,0,0,1,119,127a14.2,14.2,0,0,1,13.5,5.34C138.43,140,131.58,152.69,131.58,152.69Z" style="fill:#263238"></path><path d="M115.38,142.7a19,19,0,0,0,5,2.29s0,0,0,0a15.73,15.73,0,0,1-7-5,14.78,14.78,0,0,1-1.92-3.19,10.18,10.18,0,0,1-1-3.92c0-.1-.16-.1-.16,0a12.07,12.07,0,0,0,.49,4,11,11,0,0,0,2,3.49,12.82,12.82,0,0,0,2.67,2.37" style="fill:#263238"></path><path d="M131.44,155.86A3.25,3.25,0,0,1,130,156a2.1,2.1,0,0,1-.88-.33,2.49,2.49,0,0,1-.57-.48,3.06,3.06,0,0,1-.56-.9l1-4.14s3.61-4.74,5.77-3.43S134.08,155,131.44,155.86Z" style="fill:#eb9481"></path><path d="M133.91,148.71s0,0,0,.07c-1.85.66-2.88,2.31-3.63,4a1.46,1.46,0,0,1,2.2-.31s0,.11-.05.1a1.61,1.61,0,0,0-1.81.49,7.27,7.27,0,0,0-.92,1.41c-.09.16-.38.06-.31-.12v0C129.46,152,131.4,148.84,133.91,148.71Z" style="fill:#263238"></path><path d="M131.25,155.19a.72.72,0,1,1-1.4-.34.72.72,0,0,1,1.4.34Z" style="fill:#fff"></path><path d="M132.79,154.16a.51.51,0,1,1-1-.24.51.51,0,0,1,1,.24Z" style="fill:#fff"></path><path d="M117.37,169.16l3.14,7,8.41-9.33,2.61,2.77s-8,14.59-8.07,13.95l-3.18-6-4,4.43-.12-10.67Z" style="fill:#ebebeb"></path><path d="M115.9,176.68c0-1.76,0-3.54.15-5.3,0-.06.1-.09.12,0,.43,1.68.24,8.42.32,10v0c.17-.19,3.74-3.9,3.78-3.85.68.94,3,5.29,3.17,5.69,1.26-2.32,6.12-10.75,7.64-13a.06.06,0,0,1,.11.06c-1.1,2.44-7.52,13.79-7.63,13.76a68,68,0,0,1-3.32-6.31c-.6.8-4.19,5-4.21,4.7A53.05,53.05,0,0,1,115.9,176.68Z" style="fill:#263238"></path></g></svg>
