<svg width="115" height="68" viewBox="0 0 115 68" fill="none" xmlns="http://www.w3.org/2000/svg">
<rect width="115" height="68" rx="26.5" fill="white"/>
<g clip-path="url(#clip0_14_1255)">
<path d="M74.8838 12.8302C63.0682 12.8302 53.4884 22.0205 53.4884 33.3585C53.4884 44.6965 63.0682 53.8868 74.8838 53.8868C86.6993 53.8868 96.2791 44.6965 96.2791 33.3585C96.2791 22.0205 86.6993 12.8302 74.8838 12.8302ZM74.8838 48.7547C69.8679 48.7547 65.3922 46.5441 62.4504 43.0851C63.7916 39.1924 66.474 36.0811 69.8398 34.5004C67.2456 32.9043 65.5233 30.1189 65.5233 26.9434C65.5233 22.2937 69.206 18.4691 73.9263 18.0085C74.2446 17.9905 74.5601 17.9623 74.8838 17.9623C75.2074 17.9623 75.5229 17.9905 75.8412 18.0085C80.5615 18.4691 84.2442 22.2937 84.2442 26.9434C84.2442 30.1189 82.5219 32.9043 79.9277 34.5004C83.2948 36.0823 85.9759 39.1937 87.3171 43.0851C84.3753 46.5441 79.8996 48.7547 74.8838 48.7547Z" fill="#65B1F7"/>
</g>
<path fill-rule="evenodd" clip-rule="evenodd" d="M35.7169 37.5797L41.8547 31.6906C42.3762 31.1902 42.3762 30.3819 41.8547 29.8816C41.3331 29.3812 40.4907 29.3812 39.9692 29.8816L34.7674 34.8597L29.5791 29.8816C29.0576 29.3812 28.2151 29.3812 27.6936 29.8816C27.1721 30.3819 27.1721 31.1902 27.6936 31.6906L33.8314 37.5797C34.3395 38.0801 35.1954 38.0801 35.7169 37.5797Z" fill="#444B53"/>
<defs>
<clipPath id="clip0_14_1255">
<rect width="42.7907" height="41.0566" fill="white" transform="translate(53.4884 12.8302)"/>
</clipPath>
</defs>
</svg>
