<?xml version="1.0" standalone="no"?>
<!DOCTYPE svg PUBLIC "-//W3C//DTD SVG 20010904//EN"
 "http://www.w3.org/TR/2001/REC-SVG-20010904/DTD/svg10.dtd">
<svg version="1.0" xmlns="http://www.w3.org/2000/svg"
 width="64.000000pt" height="64.000000pt" viewBox="0 0 64.000000 64.000000"
 preserveAspectRatio="xMidYMid meet">

<g transform="translate(0.000000,64.000000) scale(0.100000,-0.100000)"
fill="#000000" stroke="none">
<path d="M136 501 c-41 -42 -57 -65 -54 -80 3 -19 14 -11 83 59 70 71 77 80
54 80 -17 0 -43 -18 -83 -59z"/>
<path d="M221 416 c-110 -110 -142 -148 -139 -165 2 -18 31 6 168 144 139 139
161 165 140 165 -19 0 -60 -35 -169 -144z"/>
<path d="M307 332 c-125 -125 -227 -233 -227 -240 0 -6 6 -12 13 -12 16 0 467
451 467 468 0 6 -6 12 -13 12 -7 0 -115 -102 -240 -228z"/>
<path d="M390 245 c-139 -139 -161 -165 -140 -165 36 0 313 277 308 309 -2 18
-31 -6 -168 -144z"/>
<path d="M475 160 c-70 -71 -77 -80 -54 -80 34 0 142 109 137 139 -3 19 -14
11 -83 -59z"/>
</g>
</svg>
