<svg xmlns="http://www.w3.org/2000/svg" viewBox="0 0 400 300" width="406" height="306" class="illustration styles_illustrationTablet__1DWOa"><g id="_325_yoga_position_outline" data-name="#325_yoga_position_outline"><path d="M294.74,150a94.22,94.22,0,0,1-15.41,51.8q-1.92,2.94-4.05,5.71l-.39.5a94.73,94.73,0,0,1-149.78,0l-.39-.5q-2.13-2.77-4-5.71A94.74,94.74,0,1,1,294.74,150Z" fill="#fff"></path><path d="M200,245.74a95.74,95.74,0,0,1-75.68-37.12l-.4-.5c-1.43-1.88-2.81-3.82-4.09-5.77a95.74,95.74,0,1,1,160.34,0c-1.28,2-2.66,3.89-4.1,5.77l-.39.5A95.74,95.74,0,0,1,200,245.74Zm0-189.48a93.74,93.74,0,0,0-78.49,145c1.25,1.92,2.59,3.82,4,5.65l.4.5a93.73,93.73,0,0,0,148.19,0l.39-.5c1.41-1.83,2.75-3.73,4-5.65A93.74,93.74,0,0,0,200,56.26Z" fill="#093f68"></path><path d="M279.33,201.8q-1.92,2.94-4.05,5.71l-.39.5a94.73,94.73,0,0,1-149.78,0l-.39-.5q-2.13-2.77-4-5.71Z" fill="#093f68"></path><path d="M200,245.74a95.74,95.74,0,0,1-75.68-37.12l-.4-.5c-1.43-1.88-2.81-3.82-4.09-5.77a1,1,0,0,1,0-1,1,1,0,0,1,.88-.52H279.33a1,1,0,0,1,.88.52,1,1,0,0,1,0,1c-1.28,2-2.66,3.89-4.1,5.77l-.39.5A95.74,95.74,0,0,1,200,245.74ZM122.54,202.8c.95,1.39,1.95,2.76,3,4.1l.4.5a93.73,93.73,0,0,0,148.19,0l.39-.5c1-1.34,2-2.71,3-4.1Z" fill="#093f68"></path><path d="M246.87,162.13c-3.05,1.84-6.3,2.52-11.08,1.31-4.26.93-27.49,1.6-27.49,1.6l-30-2.23a7.12,7.12,0,0,1-6.54-8.72c1.17-5.12,5.74-5.29,7.34-5.26l31.08,5.55,26.81.12s6.06-4.88,7.38-3.85.07,2.34-2.87,4.74c.33-.11,7.67-2.7,9-.49S249,160.85,246.87,162.13Z" fill="#ffc9b0"></path><path d="M208.3,166h-.08l-30-2.24a8.26,8.26,0,0,1-6-3.2,7.74,7.74,0,0,1-1.42-6.74c.9-4,3.87-6.12,8.33-6h.16l31,5.54,26.38.11c4.27-3.39,7.07-4.61,8.34-3.63a2.14,2.14,0,0,1,.91,1.67,2.89,2.89,0,0,1-.73,1.8c2.73-.55,5.25-.52,6.22,1a3.78,3.78,0,0,1,.38,2.93,10.47,10.47,0,0,1-4.43,5.68c-3.51,2.12-7.1,2.58-11.61,1.49-4.82.9-26.51,1.55-27.44,1.57Zm-29.4-16.21c-3.39,0-5.45,1.5-6.12,4.48a5.8,5.8,0,0,0,1,5.06,6.33,6.33,0,0,0,4.54,2.44l30,2.23c1.22,0,23.23-.7,27.26-1.58a1.19,1.19,0,0,1,.46,0c4.11,1,7.2.68,10.31-1.2h0a8.68,8.68,0,0,0,3.52-4.44,1.85,1.85,0,0,0-.13-1.4c-.46-.72-3.51-.59-7.83.89a1,1,0,0,1-1.22-.45,1,1,0,0,1,.22-1.26c.74-.6,3-2.44,3-3h0l-.06-.06h0c-.82,0-3.66,1.72-6.21,3.76a1,1,0,0,1-.62.23h0l-26.82-.12-.17,0-31-5.53Zm64.9,1.61Z" fill="#093f68"></path><path d="M243.74,149.18l10.8-8.18s2.68-15.49,4.91-15,5.66,17.87,4,19.06-10.88,11.91-10.88,11.91Z" fill="#ffc9b0"></path><path d="M252.59,157.93a1,1,0,0,1-.66-.24l-8.84-7.75a1,1,0,0,1-.34-.79,1,1,0,0,1,.39-.76l10.48-7.95c.64-3.65,2.6-13.67,4.81-15.19a1.55,1.55,0,0,1,1.22-.27c.53.11,2.15.43,4,9.1.85,3.87,2,10.54.37,11.74-1.14.83-7,7.49-10.71,11.77a1,1,0,0,1-.69.34Zm-7.26-8.69,7.17,6.28c2.2-2.55,8.62-9.91,10.28-11.23.87-2-1.79-15-3.44-17.17-1.08,1.43-2.8,8.14-3.82,14a1,1,0,0,1-.38.62Zm17.42-4.9Z" fill="#093f68"></path><path d="M205.34,180.22l-28.64,20.7-13.77-27a17.88,17.88,0,0,1,7.79-24l7.63-.69c5.09-2.59,10.57.84,13.17,5.93Z" fill="#ff3c7f"></path><path d="M176.7,201.92a1,1,0,0,1-.24,0,1,1,0,0,1-.65-.51L162,174.4A18.86,18.86,0,0,1,170.27,149a.92.92,0,0,1,.36-.1l7.44-.68c5.75-2.79,11.66,1.21,14.34,6.45l13.8,25.06a1,1,0,0,1-.29,1.29l-28.63,20.7A1,1,0,0,1,176.7,201.92Zm-5.69-51a16.89,16.89,0,0,0-7.19,22.62l13.24,25.93,27-19.5-13.39-24.31c-2.28-4.46-7.19-7.89-11.83-5.52a1,1,0,0,1-.37.11Z" fill="#093f68"></path><path d="M200.31,175.94s3.27-6.72-1.06-12.19c-3.55-4.48-10.52-4-10.52-4" fill="#ff3c7f"></path><path d="M200.31,176.94a1,1,0,0,1-.44-.1,1,1,0,0,1-.46-1.34c.13-.26,2.92-6.23-.95-11.13-3.16-4-9.59-3.58-9.66-3.58a1,1,0,1,1-.14-2c.31,0,7.55-.51,11.37,4.33,4.67,5.9,1.32,13,1.18,13.25A1,1,0,0,1,200.31,176.94Z" fill="#093f68"></path><circle cx="141.43" cy="124.31" r="13.4" fill="#725858"></circle><path d="M141.43,138.71a14.4,14.4,0,1,1,7-27,14.39,14.39,0,0,1-7,27Zm0-26.8a12.4,12.4,0,1,0,11.91,9,12.4,12.4,0,0,0-11.91-9Z" fill="#093f68"></path><path d="M179,108.14c-1.24-5.6-10.91-5.5-15.16-5-6.83.82-13.62,3.58-17.81,9.26a22,22,0,0,0-4.63,12.44c-.09,5.16,2.54,9.72,5.17,14,8.28,13.44,19.67,14.13,19.67,14.13A32.43,32.43,0,0,0,177,137.34c2.1-7,2.18-14.77,2.2-22.06a57.45,57.45,0,0,0-.11-6.69C179.08,108.44,179.06,108.29,179,108.14Z" fill="#725858"></path><path d="M166.27,154h-.06c-.48,0-12-.88-20.46-14.61-2.85-4.63-5.41-9.23-5.32-14.54a23.09,23.09,0,0,1,4.82-13c5-6.75,12.81-9,18.5-9.66,1.5-.18,14.64-1.54,16.25,5.78h0a4.51,4.51,0,0,1,.09.55,38.72,38.72,0,0,1,.14,5.16c0,.55,0,1.1,0,1.65,0,6.65,0,14.94-2.24,22.34a33.16,33.16,0,0,1-11.11,16.15A1,1,0,0,1,166.27,154Zm1.48-50a30.71,30.71,0,0,0-3.76.22c-5.3.63-12.57,2.69-17.13,8.86a21.09,21.09,0,0,0-4.43,11.86c-.08,4.77,2.33,9.08,5,13.46C154.53,149.8,164,151.67,166,151.93a31.73,31.73,0,0,0,10.07-14.87c2.13-7.13,2.15-15.25,2.16-21.78,0-.55,0-1.11,0-1.67a38.07,38.07,0,0,0-.12-4.91l-.06-.34h0C177.28,104.87,172.21,103.92,167.75,103.92Z" fill="#093f68"></path><path d="M180.71,152.55c-4.47,2.29-9.79,1.94-14.44.42-2.42-.79-4.82-3.85-5.46-6.79-1.23-5.58,1.84-13.48,1.85-16.43,0,0,5.47-1.68,7.51-3.41,5.22-4.42,9.39-17.23,8.91-18.21L188.27,126C193.36,135.91,190.76,147.38,180.71,152.55Z" fill="#ffc9b0"></path><path d="M173.46,155.18a24.32,24.32,0,0,1-7.5-1.26c-2.7-.88-5.4-4.19-6.13-7.53-.86-3.9.21-8.62,1.07-12.42a24.46,24.46,0,0,0,.76-4.22,1,1,0,0,1,.7-1c1.47-.45,5.62-1.9,7.17-3.21,4.75-4,8.6-15.65,8.59-17.17a1,1,0,0,1,1.85-.74l9.19,17.89c5.6,10.89,2.24,22.62-8,27.88h0A16.85,16.85,0,0,1,173.46,155.18Zm-9.85-24.69a34.47,34.47,0,0,1-.76,3.92C162,138,161,142.5,161.78,146c.58,2.63,2.78,5.4,4.8,6.06,5.11,1.67,10,1.54,13.67-.36h0c9.2-4.73,12.2-15.32,7.13-25.19l-7.83-15.24c-1.35,4.78-5.06,12.76-8.73,15.88C169.07,128.59,165.18,130,163.61,130.49Zm17.1,22.06h0Zm-2.59-44.19Z" fill="#093f68"></path><circle cx="180.56" cy="126.32" r="1.86" fill="#093f68"></circle><path d="M185.53,124.31s8.06,5.26,7.07,6.13a21,21,0,0,1-3.92,2.1" fill="#ffc9b0"></path><path d="M188.68,133.54a1,1,0,0,1-.39-1.92,28,28,0,0,0,3.15-1.57,44.84,44.84,0,0,0-6.46-4.9,1,1,0,1,1,1.1-1.67c7.47,4.87,7.57,6.23,7.6,6.67a1.24,1.24,0,0,1-.42,1,20.84,20.84,0,0,1-4.19,2.27A.91.91,0,0,1,188.68,133.54Zm3-3.11h0Z" fill="#093f68"></path><path d="M164.79,130s-8.23-4.24-8.54,2.43c-.24,5.11,5.46,12.25,11.7,6.6" fill="#ffc9b0"></path><path d="M163.28,142.09a6.45,6.45,0,0,1-2.75-.63,10.12,10.12,0,0,1-5.28-9.1,4.62,4.62,0,0,1,2.11-4.1c2.87-1.66,7.38.57,7.88.83a1,1,0,0,1-.91,1.78c-1.11-.57-4.33-1.83-6-.88a2.73,2.73,0,0,0-1.11,2.46,8.21,8.21,0,0,0,4.14,7.2c1.88.88,3.91.41,5.89-1.38a1,1,0,1,1,1.34,1.48A8,8,0,0,1,163.28,142.09Z" fill="#093f68"></path><path d="M174.6,126.37a2,2,0,0,1-1.23-3.58l6.58-5.1a2,2,0,0,1,2.45,3.16l-6.57,5.1A2,2,0,0,1,174.6,126.37Z" fill="#093f68"></path><path d="M187.1,141.76a12.34,12.34,0,0,1-5.63-1.62,1,1,0,0,1,.92-1.78c5.25,2.72,7,.68,7.1.6a1,1,0,0,1,1.39-.16,1,1,0,0,1,.19,1.37A4.88,4.88,0,0,1,187.1,141.76Z" fill="#093f68"></path><path d="M176.7,200.92s2.17,18.64,21.37,15.29,54.52-59.28,54.52-59.28l-8.85-7.75-38.4,31Z" fill="#ff3c7f"></path><path d="M193.66,217.62a17.07,17.07,0,0,1-10.5-3.26c-6.39-4.76-7.41-13-7.45-13.32a1,1,0,0,1,.4-.93l28.64-20.7,38.37-31a1,1,0,0,1,1.28,0l8.85,7.75a1,1,0,0,1,.19,1.29c-1.45,2.3-35.78,56.34-55.19,59.73A26.73,26.73,0,0,1,193.66,217.62Zm-15.88-16.25c.35,1.86,1.8,7.83,6.59,11.4,3.48,2.59,8,3.42,13.53,2.46,17.39-3,49.18-51.58,53.39-58.11l-7.57-6.63L206,181Z" fill="#093f68"></path><path d="M247,166.31c-3,1.89-6.25,2.64-11,1.52-4.24,1-27.46,2.12-27.46,2.12l-30-1.67a7.12,7.12,0,0,1-6.7-8.6c1.07-5.14,5.64-5.39,7.24-5.39l31.18,5,26.81-.39s6-5,7.31-4,.11,2.34-2.79,4.79c.34-.12,7.62-2.85,9-.66S249.06,165,247,166.31Z" fill="#ffc9b0"></path><path d="M208.47,171h-.06l-30-1.67h0a8.31,8.31,0,0,1-6.07-3.09,7.76,7.76,0,0,1-1.55-6.71c.83-4,3.75-6.19,8.22-6.19h.16l31.09,4.95,26.37-.38c4.21-3.48,7-4.75,8.28-3.79a2.14,2.14,0,0,1,.94,1.65,2.91,2.91,0,0,1-.7,1.82c2.59-.56,5.23-.65,6.24.92a3.73,3.73,0,0,1,.44,2.91,10.45,10.45,0,0,1-4.32,5.77h0c-3.52,2.22-7,2.73-11.58,1.7-4.81,1-26.48,2.05-27.42,2.1Zm-29.53-15.66c-3.48,0-5.56,1.57-6.19,4.6a5.81,5.81,0,0,0,1.14,5,6.3,6.3,0,0,0,4.58,2.36l30,1.67c1.23-.06,23.22-1.14,27.23-2.09a.9.9,0,0,1,.46,0c4.13,1,7.2.54,10.28-1.4h0a8.7,8.7,0,0,0,3.44-4.5,1.82,1.82,0,0,0-.16-1.4c-.47-.72-3.52-.53-7.81,1a1,1,0,0,1-1.23-.43,1,1,0,0,1,.2-1.26c.73-.62,3-2.5,3-3.11h0l-.06-.06c-.82,0-3.64,1.79-6.15,3.89a.93.93,0,0,1-.62.23l-26.82.39H210Zm64.77.39Z" fill="#093f68"></path></g></svg>